ISO-10303-21;
HEADER;
/* Generated by software containing ST-Developer
 * from STEP Tools, Inc. (www.steptools.com) 
 */

FILE_DESCRIPTION(
/* description */ (''),
/* implementation_level */ '2;1');

FILE_NAME(
/* name */ 'junctek_halter.step',
/* time_stamp */ '2026-08-14T12:00:35+02:00',
/* author */ (''),
/* organization */ (''),
/* preprocessor_version */ 'ST-DEVELOPER v20.1',
/* originating_system */ 'Autodesk Translation Framework v15.8.0.0',
/* authorisation */ '');

FILE_SCHEMA (('AUTOMOTIVE_DESIGN { 1 0 10303 214 3 1 1 }'));
ENDSEC;

DATA;
#10=MECHANICAL_DESIGN_GEOMETRIC_PRESENTATION_REPRESENTATION('',(#13),#1999);
#11=SHAPE_REPRESENTATION_RELATIONSHIP('SRR','None',#2006,#12);
#12=ADVANCED_BREP_SHAPE_REPRESENTATION('',(#14),#1998);
#13=STYLED_ITEM('',(#2015),#14);
#14=MANIFOLD_SOLID_BREP('junctek_halter',#1249);
#15=FACE_BOUND('',#148,.T.);
#16=FACE_BOUND('',#151,.T.);
#17=FACE_BOUND('',#155,.T.);
#18=FACE_BOUND('',#158,.T.);
#19=FACE_BOUND('',#162,.T.);
#20=FACE_BOUND('',#163,.T.);
#21=FACE_BOUND('',#164,.T.);
#22=FACE_BOUND('',#181,.T.);
#23=FACE_BOUND('',#192,.T.);
#24=FACE_BOUND('',#193,.T.);
#25=FACE_BOUND('',#194,.T.);
#26=FACE_BOUND('',#195,.T.);
#27=PLANE('',#1269);
#28=PLANE('',#1273);
#29=PLANE('',#1277);
#30=PLANE('',#1278);
#31=PLANE('',#1279);
#32=PLANE('',#1280);
#33=PLANE('',#1281);
#34=PLANE('',#1282);
#35=PLANE('',#1283);
#36=PLANE('',#1284);
#37=PLANE('',#1285);
#38=PLANE('',#1286);
#39=PLANE('',#1287);
#40=PLANE('',#1288);
#41=PLANE('',#1289);
#42=PLANE('',#1290);
#43=PLANE('',#1291);
#44=PLANE('',#1292);
#45=PLANE('',#1293);
#46=PLANE('',#1294);
#47=PLANE('',#1295);
#48=PLANE('',#1296);
#49=PLANE('',#1297);
#50=PLANE('',#1298);
#51=PLANE('',#1299);
#52=PLANE('',#1302);
#53=PLANE('',#1303);
#54=PLANE('',#1304);
#55=PLANE('',#1305);
#56=PLANE('',#1306);
#57=PLANE('',#1307);
#58=PLANE('',#1308);
#59=PLANE('',#1309);
#60=PLANE('',#1310);
#61=PLANE('',#1311);
#62=PLANE('',#1312);
#63=PLANE('',#1313);
#64=PLANE('',#1316);
#65=PLANE('',#1317);
#66=PLANE('',#1318);
#67=PLANE('',#1319);
#68=PLANE('',#1320);
#69=PLANE('',#1321);
#70=PLANE('',#1322);
#71=PLANE('',#1323);
#72=PLANE('',#1324);
#73=PLANE('',#1325);
#74=PLANE('',#1328);
#75=PLANE('',#1329);
#76=PLANE('',#1330);
#77=PLANE('',#1331);
#78=PLANE('',#1332);
#79=PLANE('',#1333);
#80=PLANE('',#1334);
#81=PLANE('',#1335);
#82=PLANE('',#1336);
#83=FACE_OUTER_BOUND('',#145,.T.);
#84=FACE_OUTER_BOUND('',#146,.T.);
#85=FACE_OUTER_BOUND('',#147,.T.);
#86=FACE_OUTER_BOUND('',#149,.T.);
#87=FACE_OUTER_BOUND('',#150,.T.);
#88=FACE_OUTER_BOUND('',#152,.T.);
#89=FACE_OUTER_BOUND('',#153,.T.);
#90=FACE_OUTER_BOUND('',#154,.T.);
#91=FACE_OUTER_BOUND('',#156,.T.);
#92=FACE_OUTER_BOUND('',#157,.T.);
#93=FACE_OUTER_BOUND('',#159,.T.);
#94=FACE_OUTER_BOUND('',#160,.T.);
#95=FACE_OUTER_BOUND('',#161,.T.);
#96=FACE_OUTER_BOUND('',#165,.T.);
#97=FACE_OUTER_BOUND('',#166,.T.);
#98=FACE_OUTER_BOUND('',#167,.T.);
#99=FACE_OUTER_BOUND('',#168,.T.);
#100=FACE_OUTER_BOUND('',#169,.T.);
#101=FACE_OUTER_BOUND('',#170,.T.);
#102=FACE_OUTER_BOUND('',#171,.T.);
#103=FACE_OUTER_BOUND('',#172,.T.);
#104=FACE_OUTER_BOUND('',#173,.T.);
#105=FACE_OUTER_BOUND('',#174,.T.);
#106=FACE_OUTER_BOUND('',#175,.T.);
#107=FACE_OUTER_BOUND('',#176,.T.);
#108=FACE_OUTER_BOUND('',#177,.T.);
#109=FACE_OUTER_BOUND('',#178,.T.);
#110=FACE_OUTER_BOUND('',#179,.T.);
#111=FACE_OUTER_BOUND('',#180,.T.);
#112=FACE_OUTER_BOUND('',#182,.T.);
#113=FACE_OUTER_BOUND('',#183,.T.);
#114=FACE_OUTER_BOUND('',#184,.T.);
#115=FACE_OUTER_BOUND('',#185,.T.);
#116=FACE_OUTER_BOUND('',#186,.T.);
#117=FACE_OUTER_BOUND('',#187,.T.);
#118=FACE_OUTER_BOUND('',#188,.T.);
#119=FACE_OUTER_BOUND('',#189,.T.);
#120=FACE_OUTER_BOUND('',#190,.T.);
#121=FACE_OUTER_BOUND('',#191,.T.);
#122=FACE_OUTER_BOUND('',#196,.T.);
#123=FACE_OUTER_BOUND('',#197,.T.);
#124=FACE_OUTER_BOUND('',#198,.T.);
#125=FACE_OUTER_BOUND('',#199,.T.);
#126=FACE_OUTER_BOUND('',#200,.T.);
#127=FACE_OUTER_BOUND('',#201,.T.);
#128=FACE_OUTER_BOUND('',#202,.T.);
#129=FACE_OUTER_BOUND('',#203,.T.);
#130=FACE_OUTER_BOUND('',#204,.T.);
#131=FACE_OUTER_BOUND('',#205,.T.);
#132=FACE_OUTER_BOUND('',#206,.T.);
#133=FACE_OUTER_BOUND('',#207,.T.);
#134=FACE_OUTER_BOUND('',#208,.T.);
#135=FACE_OUTER_BOUND('',#209,.T.);
#136=FACE_OUTER_BOUND('',#210,.T.);
#137=FACE_OUTER_BOUND('',#211,.T.);
#138=FACE_OUTER_BOUND('',#212,.T.);
#139=FACE_OUTER_BOUND('',#213,.T.);
#140=FACE_OUTER_BOUND('',#214,.T.);
#141=FACE_OUTER_BOUND('',#215,.T.);
#142=FACE_OUTER_BOUND('',#216,.T.);
#143=FACE_OUTER_BOUND('',#217,.T.);
#144=FACE_OUTER_BOUND('',#218,.T.);
#145=EDGE_LOOP('',(#837,#838,#839,#840));
#146=EDGE_LOOP('',(#841,#842,#843,#844));
#147=EDGE_LOOP('',(#845));
#148=EDGE_LOOP('',(#846));
#149=EDGE_LOOP('',(#847,#848,#849,#850));
#150=EDGE_LOOP('',(#851));
#151=EDGE_LOOP('',(#852));
#152=EDGE_LOOP('',(#853,#854,#855,#856));
#153=EDGE_LOOP('',(#857,#858,#859,#860));
#154=EDGE_LOOP('',(#861,#862,#863,#864));
#155=EDGE_LOOP('',(#865));
#156=EDGE_LOOP('',(#866,#867,#868,#869));
#157=EDGE_LOOP('',(#870,#871,#872,#873));
#158=EDGE_LOOP('',(#874));
#159=EDGE_LOOP('',(#875,#876,#877,#878));
#160=EDGE_LOOP('',(#879,#880,#881,#882));
#161=EDGE_LOOP('',(#883,#884,#885,#886));
#162=EDGE_LOOP('',(#887,#888,#889,#890,#891));
#163=EDGE_LOOP('',(#892,#893,#894,#895,#896));
#164=EDGE_LOOP('',(#897,#898,#899,#900,#901));
#165=EDGE_LOOP('',(#902,#903,#904,#905));
#166=EDGE_LOOP('',(#906,#907,#908,#909));
#167=EDGE_LOOP('',(#910,#911,#912,#913));
#168=EDGE_LOOP('',(#914,#915,#916,#917));
#169=EDGE_LOOP('',(#918,#919,#920,#921));
#170=EDGE_LOOP('',(#922,#923,#924,#925));
#171=EDGE_LOOP('',(#926,#927,#928,#929));
#172=EDGE_LOOP('',(#930,#931,#932,#933));
#173=EDGE_LOOP('',(#934,#935,#936,#937));
#174=EDGE_LOOP('',(#938,#939,#940,#941));
#175=EDGE_LOOP('',(#942,#943,#944,#945));
#176=EDGE_LOOP('',(#946,#947,#948,#949));
#177=EDGE_LOOP('',(#950,#951,#952,#953));
#178=EDGE_LOOP('',(#954,#955,#956,#957));
#179=EDGE_LOOP('',(#958,#959,#960,#961,#962,#963,#964,#965,#966));
#180=EDGE_LOOP('',(#967,#968,#969,#970,#971,#972,#973,#974,#975,#976,#977,
#978));
#181=EDGE_LOOP('',(#979,#980,#981,#982));
#182=EDGE_LOOP('',(#983,#984,#985,#986));
#183=EDGE_LOOP('',(#987,#988,#989,#990));
#184=EDGE_LOOP('',(#991,#992,#993,#994));
#185=EDGE_LOOP('',(#995,#996,#997,#998));
#186=EDGE_LOOP('',(#999,#1000,#1001,#1002,#1003,#1004));
#187=EDGE_LOOP('',(#1005,#1006,#1007,#1008,#1009,#1010,#1011,#1012));
#188=EDGE_LOOP('',(#1013,#1014,#1015,#1016,#1017,#1018));
#189=EDGE_LOOP('',(#1019,#1020,#1021,#1022,#1023,#1024));
#190=EDGE_LOOP('',(#1025,#1026,#1027,#1028,#1029,#1030,#1031,#1032));
#191=EDGE_LOOP('',(#1033,#1034,#1035,#1036,#1037,#1038,#1039,#1040,#1041,
#1042,#1043,#1044,#1045));
#192=EDGE_LOOP('',(#1046));
#193=EDGE_LOOP('',(#1047));
#194=EDGE_LOOP('',(#1048,#1049,#1050,#1051,#1052));
#195=EDGE_LOOP('',(#1053,#1054,#1055,#1056,#1057));
#196=EDGE_LOOP('',(#1058,#1059,#1060,#1061,#1062));
#197=EDGE_LOOP('',(#1063,#1064,#1065,#1066,#1067,#1068,#1069,#1070));
#198=EDGE_LOOP('',(#1071,#1072,#1073,#1074,#1075));
#199=EDGE_LOOP('',(#1076,#1077,#1078,#1079,#1080,#1081,#1082,#1083));
#200=EDGE_LOOP('',(#1084,#1085,#1086,#1087));
#201=EDGE_LOOP('',(#1088,#1089,#1090,#1091));
#202=EDGE_LOOP('',(#1092,#1093,#1094,#1095));
#203=EDGE_LOOP('',(#1096,#1097,#1098,#1099));
#204=EDGE_LOOP('',(#1100,#1101,#1102,#1103));
#205=EDGE_LOOP('',(#1104,#1105,#1106,#1107));
#206=EDGE_LOOP('',(#1108,#1109,#1110,#1111));
#207=EDGE_LOOP('',(#1112,#1113,#1114,#1115,#1116,#1117,#1118,#1119,#1120));
#208=EDGE_LOOP('',(#1121,#1122,#1123,#1124));
#209=EDGE_LOOP('',(#1125,#1126,#1127,#1128));
#210=EDGE_LOOP('',(#1129,#1130,#1131,#1132,#1133,#1134));
#211=EDGE_LOOP('',(#1135,#1136,#1137,#1138,#1139,#1140,#1141,#1142));
#212=EDGE_LOOP('',(#1143,#1144,#1145,#1146));
#213=EDGE_LOOP('',(#1147,#1148,#1149,#1150));
#214=EDGE_LOOP('',(#1151,#1152,#1153,#1154,#1155,#1156,#1157,#1158,#1159,
#1160,#1161,#1162,#1163,#1164));
#215=EDGE_LOOP('',(#1165,#1166,#1167,#1168));
#216=EDGE_LOOP('',(#1169,#1170,#1171,#1172));
#217=EDGE_LOOP('',(#1173,#1174,#1175,#1176));
#218=EDGE_LOOP('',(#1177,#1178,#1179,#1180));
#219=LINE('',#1652,#379);
#220=LINE('',#1658,#380);
#221=LINE('',#1665,#381);
#222=LINE('',#1672,#382);
#223=LINE('',#1677,#383);
#224=LINE('',#1679,#384);
#225=LINE('',#1681,#385);
#226=LINE('',#1682,#386);
#227=LINE('',#1685,#387);
#228=LINE('',#1687,#388);
#229=LINE('',#1688,#389);
#230=LINE('',#1691,#390);
#231=LINE('',#1692,#391);
#232=LINE('',#1696,#392);
#233=LINE('',#1698,#393);
#234=LINE('',#1700,#394);
#235=LINE('',#1701,#395);
#236=LINE('',#1704,#396);
#237=LINE('',#1706,#397);
#238=LINE('',#1707,#398);
#239=LINE('',#1710,#399);
#240=LINE('',#1711,#400);
#241=LINE('',#1713,#401);
#242=LINE('',#1714,#402);
#243=LINE('',#1717,#403);
#244=LINE('',#1719,#404);
#245=LINE('',#1721,#405);
#246=LINE('',#1723,#406);
#247=LINE('',#1724,#407);
#248=LINE('',#1727,#408);
#249=LINE('',#1729,#409);
#250=LINE('',#1731,#410);
#251=LINE('',#1733,#411);
#252=LINE('',#1734,#412);
#253=LINE('',#1737,#413);
#254=LINE('',#1739,#414);
#255=LINE('',#1741,#415);
#256=LINE('',#1743,#416);
#257=LINE('',#1744,#417);
#258=LINE('',#1748,#418);
#259=LINE('',#1749,#419);
#260=LINE('',#1750,#420);
#261=LINE('',#1753,#421);
#262=LINE('',#1754,#422);
#263=LINE('',#1757,#423);
#264=LINE('',#1758,#424);
#265=LINE('',#1761,#425);
#266=LINE('',#1762,#426);
#267=LINE('',#1764,#427);
#268=LINE('',#1768,#428);
#269=LINE('',#1769,#429);
#270=LINE('',#1770,#430);
#271=LINE('',#1773,#431);
#272=LINE('',#1774,#432);
#273=LINE('',#1777,#433);
#274=LINE('',#1778,#434);
#275=LINE('',#1781,#435);
#276=LINE('',#1782,#436);
#277=LINE('',#1784,#437);
#278=LINE('',#1788,#438);
#279=LINE('',#1790,#439);
#280=LINE('',#1792,#440);
#281=LINE('',#1793,#441);
#282=LINE('',#1797,#442);
#283=LINE('',#1799,#443);
#284=LINE('',#1801,#444);
#285=LINE('',#1802,#445);
#286=LINE('',#1805,#446);
#287=LINE('',#1807,#447);
#288=LINE('',#1808,#448);
#289=LINE('',#1810,#449);
#290=LINE('',#1811,#450);
#291=LINE('',#1814,#451);
#292=LINE('',#1816,#452);
#293=LINE('',#1818,#453);
#294=LINE('',#1820,#454);
#295=LINE('',#1821,#455);
#296=LINE('',#1824,#456);
#297=LINE('',#1828,#457);
#298=LINE('',#1830,#458);
#299=LINE('',#1832,#459);
#300=LINE('',#1834,#460);
#301=LINE('',#1836,#461);
#302=LINE('',#1838,#462);
#303=LINE('',#1840,#463);
#304=LINE('',#1844,#464);
#305=LINE('',#1846,#465);
#306=LINE('',#1848,#466);
#307=LINE('',#1849,#467);
#308=LINE('',#1853,#468);
#309=LINE('',#1855,#469);
#310=LINE('',#1857,#470);
#311=LINE('',#1858,#471);
#312=LINE('',#1862,#472);
#313=LINE('',#1864,#473);
#314=LINE('',#1866,#474);
#315=LINE('',#1867,#475);
#316=LINE('',#1870,#476);
#317=LINE('',#1872,#477);
#318=LINE('',#1873,#478);
#319=LINE('',#1876,#479);
#320=LINE('',#1877,#480);
#321=LINE('',#1880,#481);
#322=LINE('',#1881,#482);
#323=LINE('',#1882,#483);
#324=LINE('',#1885,#484);
#325=LINE('',#1887,#485);
#326=LINE('',#1888,#486);
#327=LINE('',#1889,#487);
#328=LINE('',#1892,#488);
#329=LINE('',#1893,#489);
#330=LINE('',#1895,#490);
#331=LINE('',#1897,#491);
#332=LINE('',#1898,#492);
#333=LINE('',#1901,#493);
#334=LINE('',#1903,#494);
#335=LINE('',#1905,#495);
#336=LINE('',#1906,#496);
#337=LINE('',#1909,#497);
#338=LINE('',#1911,#498);
#339=LINE('',#1913,#499);
#340=LINE('',#1915,#500);
#341=LINE('',#1917,#501);
#342=LINE('',#1919,#502);
#343=LINE('',#1921,#503);
#344=LINE('',#1922,#504);
#345=LINE('',#1924,#505);
#346=LINE('',#1925,#506);
#347=LINE('',#1930,#507);
#348=LINE('',#1931,#508);
#349=LINE('',#1934,#509);
#350=LINE('',#1936,#510);
#351=LINE('',#1937,#511);
#352=LINE('',#1941,#512);
#353=LINE('',#1943,#513);
#354=LINE('',#1944,#514);
#355=LINE('',#1947,#515);
#356=LINE('',#1948,#516);
#357=LINE('',#1951,#517);
#358=LINE('',#1952,#518);
#359=LINE('',#1954,#519);
#360=LINE('',#1958,#520);
#361=LINE('',#1959,#521);
#362=LINE('',#1961,#522);
#363=LINE('',#1963,#523);
#364=LINE('',#1966,#524);
#365=LINE('',#1968,#525);
#366=LINE('',#1971,#526);
#367=LINE('',#1973,#527);
#368=LINE('',#1974,#528);
#369=LINE('',#1977,#529);
#370=LINE('',#1978,#530);
#371=LINE('',#1981,#531);
#372=LINE('',#1982,#532);
#373=LINE('',#1985,#533);
#374=LINE('',#1986,#534);
#375=LINE('',#1988,#535);
#376=LINE('',#1989,#536);
#377=LINE('',#1991,#537);
#378=LINE('',#1993,#538);
#379=VECTOR('',#1343,2.25);
#380=VECTOR('',#1350,2.25);
#381=VECTOR('',#1359,2.8);
#382=VECTOR('',#1368,2.8);
#383=VECTOR('',#1373,10.);
#384=VECTOR('',#1374,10.);
#385=VECTOR('',#1375,10.);
#386=VECTOR('',#1376,10.);
#387=VECTOR('',#1379,10.);
#388=VECTOR('',#1380,10.);
#389=VECTOR('',#1381,10.);
#390=VECTOR('',#1384,10.);
#391=VECTOR('',#1385,10.);
#392=VECTOR('',#1388,10.);
#393=VECTOR('',#1389,10.);
#394=VECTOR('',#1390,10.);
#395=VECTOR('',#1391,10.);
#396=VECTOR('',#1394,10.);
#397=VECTOR('',#1395,10.);
#398=VECTOR('',#1396,10.);
#399=VECTOR('',#1399,10.);
#400=VECTOR('',#1400,10.);
#401=VECTOR('',#1403,10.);
#402=VECTOR('',#1404,10.);
#403=VECTOR('',#1405,10.);
#404=VECTOR('',#1406,10.);
#405=VECTOR('',#1407,10.);
#406=VECTOR('',#1408,10.);
#407=VECTOR('',#1409,10.);
#408=VECTOR('',#1410,10.);
#409=VECTOR('',#1411,10.);
#410=VECTOR('',#1412,10.);
#411=VECTOR('',#1413,10.);
#412=VECTOR('',#1414,10.);
#413=VECTOR('',#1415,10.);
#414=VECTOR('',#1416,10.);
#415=VECTOR('',#1417,10.);
#416=VECTOR('',#1418,10.);
#417=VECTOR('',#1419,10.);
#418=VECTOR('',#1422,10.);
#419=VECTOR('',#1423,10.);
#420=VECTOR('',#1424,10.);
#421=VECTOR('',#1427,10.);
#422=VECTOR('',#1428,10.);
#423=VECTOR('',#1431,10.);
#424=VECTOR('',#1432,10.);
#425=VECTOR('',#1435,10.);
#426=VECTOR('',#1436,10.);
#427=VECTOR('',#1439,10.);
#428=VECTOR('',#1442,10.);
#429=VECTOR('',#1443,10.);
#430=VECTOR('',#1444,10.);
#431=VECTOR('',#1447,10.);
#432=VECTOR('',#1448,10.);
#433=VECTOR('',#1451,10.);
#434=VECTOR('',#1452,10.);
#435=VECTOR('',#1455,10.);
#436=VECTOR('',#1456,10.);
#437=VECTOR('',#1459,10.);
#438=VECTOR('',#1462,10.);
#439=VECTOR('',#1463,10.);
#440=VECTOR('',#1464,10.);
#441=VECTOR('',#1465,10.);
#442=VECTOR('',#1468,10.);
#443=VECTOR('',#1469,10.);
#444=VECTOR('',#1470,10.);
#445=VECTOR('',#1471,10.);
#446=VECTOR('',#1474,10.);
#447=VECTOR('',#1475,10.);
#448=VECTOR('',#1476,10.);
#449=VECTOR('',#1479,10.);
#450=VECTOR('',#1480,10.);
#451=VECTOR('',#1483,10.);
#452=VECTOR('',#1484,10.);
#453=VECTOR('',#1485,10.);
#454=VECTOR('',#1486,10.);
#455=VECTOR('',#1487,10.);
#456=VECTOR('',#1490,10.);
#457=VECTOR('',#1493,10.);
#458=VECTOR('',#1494,10.);
#459=VECTOR('',#1495,10.);
#460=VECTOR('',#1496,10.);
#461=VECTOR('',#1497,10.);
#462=VECTOR('',#1498,10.);
#463=VECTOR('',#1499,10.);
#464=VECTOR('',#1502,10.);
#465=VECTOR('',#1503,10.);
#466=VECTOR('',#1504,10.);
#467=VECTOR('',#1505,10.);
#468=VECTOR('',#1508,10.);
#469=VECTOR('',#1509,10.);
#470=VECTOR('',#1510,10.);
#471=VECTOR('',#1511,10.);
#472=VECTOR('',#1514,10.);
#473=VECTOR('',#1515,10.);
#474=VECTOR('',#1516,10.);
#475=VECTOR('',#1517,10.);
#476=VECTOR('',#1520,10.);
#477=VECTOR('',#1521,10.);
#478=VECTOR('',#1522,10.);
#479=VECTOR('',#1525,10.);
#480=VECTOR('',#1526,10.);
#481=VECTOR('',#1529,10.);
#482=VECTOR('',#1530,10.);
#483=VECTOR('',#1531,10.);
#484=VECTOR('',#1534,10.);
#485=VECTOR('',#1535,10.);
#486=VECTOR('',#1536,10.);
#487=VECTOR('',#1537,10.);
#488=VECTOR('',#1540,10.);
#489=VECTOR('',#1541,10.);
#490=VECTOR('',#1544,10.);
#491=VECTOR('',#1545,10.);
#492=VECTOR('',#1546,10.);
#493=VECTOR('',#1549,10.);
#494=VECTOR('',#1550,10.);
#495=VECTOR('',#1551,10.);
#496=VECTOR('',#1552,10.);
#497=VECTOR('',#1555,10.);
#498=VECTOR('',#1556,10.);
#499=VECTOR('',#1557,10.);
#500=VECTOR('',#1558,10.);
#501=VECTOR('',#1559,10.);
#502=VECTOR('',#1560,10.);
#503=VECTOR('',#1561,10.);
#504=VECTOR('',#1562,10.);
#505=VECTOR('',#1565,10.);
#506=VECTOR('',#1566,10.);
#507=VECTOR('',#1571,10.);
#508=VECTOR('',#1572,10.);
#509=VECTOR('',#1575,10.);
#510=VECTOR('',#1578,10.);
#511=VECTOR('',#1579,10.);
#512=VECTOR('',#1584,10.);
#513=VECTOR('',#1585,10.);
#514=VECTOR('',#1586,10.);
#515=VECTOR('',#1589,10.);
#516=VECTOR('',#1590,10.);
#517=VECTOR('',#1593,10.);
#518=VECTOR('',#1594,10.);
#519=VECTOR('',#1597,10.);
#520=VECTOR('',#1602,10.);
#521=VECTOR('',#1603,10.);
#522=VECTOR('',#1606,10.);
#523=VECTOR('',#1609,10.);
#524=VECTOR('',#1614,10.);
#525=VECTOR('',#1617,10.);
#526=VECTOR('',#1620,10.);
#527=VECTOR('',#1621,10.);
#528=VECTOR('',#1622,10.);
#529=VECTOR('',#1625,10.);
#530=VECTOR('',#1626,10.);
#531=VECTOR('',#1629,10.);
#532=VECTOR('',#1630,10.);
#533=VECTOR('',#1633,10.);
#534=VECTOR('',#1634,10.);
#535=VECTOR('',#1635,10.);
#536=VECTOR('',#1636,10.);
#537=VECTOR('',#1639,10.);
#538=VECTOR('',#1642,10.);
#539=CIRCLE('',#1264,2.25);
#540=CIRCLE('',#1265,2.25);
#541=CIRCLE('',#1267,2.25);
#542=CIRCLE('',#1268,2.25);
#543=CIRCLE('',#1270,2.8);
#544=CIRCLE('',#1272,2.8);
#545=CIRCLE('',#1274,2.8);
#546=CIRCLE('',#1276,2.8);
#547=CIRCLE('',#1300,0.75);
#548=CIRCLE('',#1301,0.75);
#549=CIRCLE('',#1314,0.75);
#550=CIRCLE('',#1315,0.75);
#551=VERTEX_POINT('',#1649);
#552=VERTEX_POINT('',#1651);
#553=VERTEX_POINT('',#1655);
#554=VERTEX_POINT('',#1657);
#555=VERTEX_POINT('',#1661);
#556=VERTEX_POINT('',#1664);
#557=VERTEX_POINT('',#1668);
#558=VERTEX_POINT('',#1671);
#559=VERTEX_POINT('',#1675);
#560=VERTEX_POINT('',#1676);
#561=VERTEX_POINT('',#1678);
#562=VERTEX_POINT('',#1680);
#563=VERTEX_POINT('',#1684);
#564=VERTEX_POINT('',#1686);
#565=VERTEX_POINT('',#1690);
#566=VERTEX_POINT('',#1694);
#567=VERTEX_POINT('',#1695);
#568=VERTEX_POINT('',#1697);
#569=VERTEX_POINT('',#1699);
#570=VERTEX_POINT('',#1703);
#571=VERTEX_POINT('',#1705);
#572=VERTEX_POINT('',#1709);
#573=VERTEX_POINT('',#1715);
#574=VERTEX_POINT('',#1716);
#575=VERTEX_POINT('',#1718);
#576=VERTEX_POINT('',#1720);
#577=VERTEX_POINT('',#1722);
#578=VERTEX_POINT('',#1725);
#579=VERTEX_POINT('',#1726);
#580=VERTEX_POINT('',#1728);
#581=VERTEX_POINT('',#1730);
#582=VERTEX_POINT('',#1732);
#583=VERTEX_POINT('',#1735);
#584=VERTEX_POINT('',#1736);
#585=VERTEX_POINT('',#1738);
#586=VERTEX_POINT('',#1740);
#587=VERTEX_POINT('',#1742);
#588=VERTEX_POINT('',#1746);
#589=VERTEX_POINT('',#1747);
#590=VERTEX_POINT('',#1752);
#591=VERTEX_POINT('',#1756);
#592=VERTEX_POINT('',#1760);
#593=VERTEX_POINT('',#1766);
#594=VERTEX_POINT('',#1767);
#595=VERTEX_POINT('',#1772);
#596=VERTEX_POINT('',#1776);
#597=VERTEX_POINT('',#1780);
#598=VERTEX_POINT('',#1786);
#599=VERTEX_POINT('',#1787);
#600=VERTEX_POINT('',#1789);
#601=VERTEX_POINT('',#1791);
#602=VERTEX_POINT('',#1795);
#603=VERTEX_POINT('',#1796);
#604=VERTEX_POINT('',#1798);
#605=VERTEX_POINT('',#1800);
#606=VERTEX_POINT('',#1804);
#607=VERTEX_POINT('',#1806);
#608=VERTEX_POINT('',#1813);
#609=VERTEX_POINT('',#1815);
#610=VERTEX_POINT('',#1817);
#611=VERTEX_POINT('',#1819);
#612=VERTEX_POINT('',#1823);
#613=VERTEX_POINT('',#1825);
#614=VERTEX_POINT('',#1827);
#615=VERTEX_POINT('',#1829);
#616=VERTEX_POINT('',#1831);
#617=VERTEX_POINT('',#1833);
#618=VERTEX_POINT('',#1835);
#619=VERTEX_POINT('',#1837);
#620=VERTEX_POINT('',#1839);
#621=VERTEX_POINT('',#1842);
#622=VERTEX_POINT('',#1843);
#623=VERTEX_POINT('',#1845);
#624=VERTEX_POINT('',#1847);
#625=VERTEX_POINT('',#1851);
#626=VERTEX_POINT('',#1852);
#627=VERTEX_POINT('',#1854);
#628=VERTEX_POINT('',#1856);
#629=VERTEX_POINT('',#1860);
#630=VERTEX_POINT('',#1861);
#631=VERTEX_POINT('',#1863);
#632=VERTEX_POINT('',#1865);
#633=VERTEX_POINT('',#1869);
#634=VERTEX_POINT('',#1871);
#635=VERTEX_POINT('',#1875);
#636=VERTEX_POINT('',#1879);
#637=VERTEX_POINT('',#1884);
#638=VERTEX_POINT('',#1886);
#639=VERTEX_POINT('',#1891);
#640=VERTEX_POINT('',#1896);
#641=VERTEX_POINT('',#1900);
#642=VERTEX_POINT('',#1902);
#643=VERTEX_POINT('',#1904);
#644=VERTEX_POINT('',#1908);
#645=VERTEX_POINT('',#1910);
#646=VERTEX_POINT('',#1912);
#647=VERTEX_POINT('',#1914);
#648=VERTEX_POINT('',#1916);
#649=VERTEX_POINT('',#1918);
#650=VERTEX_POINT('',#1920);
#651=VERTEX_POINT('',#1927);
#652=VERTEX_POINT('',#1929);
#653=VERTEX_POINT('',#1932);
#654=VERTEX_POINT('',#1940);
#655=VERTEX_POINT('',#1942);
#656=VERTEX_POINT('',#1946);
#657=VERTEX_POINT('',#1950);
#658=VERTEX_POINT('',#1957);
#659=VERTEX_POINT('',#1970);
#660=VERTEX_POINT('',#1972);
#661=VERTEX_POINT('',#1976);
#662=VERTEX_POINT('',#1980);
#663=VERTEX_POINT('',#1984);
#664=VERTEX_POINT('',#1987);
#665=EDGE_CURVE('',#551,#551,#539,.T.);
#666=EDGE_CURVE('',#551,#552,#219,.T.);
#667=EDGE_CURVE('',#552,#552,#540,.T.);
#668=EDGE_CURVE('',#553,#553,#541,.T.);
#669=EDGE_CURVE('',#553,#554,#220,.T.);
#670=EDGE_CURVE('',#554,#554,#542,.T.);
#671=EDGE_CURVE('',#555,#555,#543,.T.);
#672=EDGE_CURVE('',#555,#556,#221,.T.);
#673=EDGE_CURVE('',#556,#556,#544,.T.);
#674=EDGE_CURVE('',#557,#557,#545,.T.);
#675=EDGE_CURVE('',#557,#558,#222,.T.);
#676=EDGE_CURVE('',#558,#558,#546,.T.);
#677=EDGE_CURVE('',#559,#560,#223,.T.);
#678=EDGE_CURVE('',#559,#561,#224,.T.);
#679=EDGE_CURVE('',#561,#562,#225,.T.);
#680=EDGE_CURVE('',#562,#560,#226,.T.);
#681=EDGE_CURVE('',#561,#563,#227,.T.);
#682=EDGE_CURVE('',#564,#563,#228,.T.);
#683=EDGE_CURVE('',#562,#564,#229,.T.);
#684=EDGE_CURVE('',#565,#564,#230,.T.);
#685=EDGE_CURVE('',#565,#560,#231,.T.);
#686=EDGE_CURVE('',#566,#567,#232,.T.);
#687=EDGE_CURVE('',#568,#567,#233,.T.);
#688=EDGE_CURVE('',#569,#568,#234,.T.);
#689=EDGE_CURVE('',#566,#569,#235,.T.);
#690=EDGE_CURVE('',#570,#568,#236,.T.);
#691=EDGE_CURVE('',#570,#571,#237,.T.);
#692=EDGE_CURVE('',#569,#571,#238,.T.);
#693=EDGE_CURVE('',#570,#572,#239,.T.);
#694=EDGE_CURVE('',#567,#572,#240,.T.);
#695=EDGE_CURVE('',#560,#570,#241,.T.);
#696=EDGE_CURVE('',#559,#572,#242,.T.);
#697=EDGE_CURVE('',#573,#574,#243,.T.);
#698=EDGE_CURVE('',#574,#575,#244,.T.);
#699=EDGE_CURVE('',#575,#576,#245,.T.);
#700=EDGE_CURVE('',#576,#577,#246,.T.);
#701=EDGE_CURVE('',#577,#573,#247,.T.);
#702=EDGE_CURVE('',#578,#579,#248,.T.);
#703=EDGE_CURVE('',#579,#580,#249,.T.);
#704=EDGE_CURVE('',#580,#581,#250,.T.);
#705=EDGE_CURVE('',#581,#582,#251,.T.);
#706=EDGE_CURVE('',#582,#578,#252,.T.);
#707=EDGE_CURVE('',#583,#584,#253,.T.);
#708=EDGE_CURVE('',#584,#585,#254,.T.);
#709=EDGE_CURVE('',#585,#586,#255,.T.);
#710=EDGE_CURVE('',#586,#587,#256,.T.);
#711=EDGE_CURVE('',#587,#583,#257,.T.);
#712=EDGE_CURVE('',#588,#589,#258,.T.);
#713=EDGE_CURVE('',#588,#586,#259,.T.);
#714=EDGE_CURVE('',#589,#585,#260,.T.);
#715=EDGE_CURVE('',#589,#590,#261,.T.);
#716=EDGE_CURVE('',#590,#584,#262,.T.);
#717=EDGE_CURVE('',#590,#591,#263,.T.);
#718=EDGE_CURVE('',#583,#591,#264,.T.);
#719=EDGE_CURVE('',#592,#588,#265,.T.);
#720=EDGE_CURVE('',#592,#587,#266,.T.);
#721=EDGE_CURVE('',#591,#592,#267,.T.);
#722=EDGE_CURVE('',#593,#594,#268,.T.);
#723=EDGE_CURVE('',#593,#581,#269,.T.);
#724=EDGE_CURVE('',#594,#580,#270,.T.);
#725=EDGE_CURVE('',#594,#595,#271,.T.);
#726=EDGE_CURVE('',#595,#579,#272,.T.);
#727=EDGE_CURVE('',#595,#596,#273,.T.);
#728=EDGE_CURVE('',#578,#596,#274,.T.);
#729=EDGE_CURVE('',#597,#593,#275,.T.);
#730=EDGE_CURVE('',#597,#582,#276,.T.);
#731=EDGE_CURVE('',#596,#597,#277,.T.);
#732=EDGE_CURVE('',#598,#599,#278,.T.);
#733=EDGE_CURVE('',#600,#598,#279,.T.);
#734=EDGE_CURVE('',#600,#601,#280,.T.);
#735=EDGE_CURVE('',#599,#601,#281,.T.);
#736=EDGE_CURVE('',#602,#603,#282,.T.);
#737=EDGE_CURVE('',#604,#602,#283,.T.);
#738=EDGE_CURVE('',#605,#604,#284,.T.);
#739=EDGE_CURVE('',#603,#605,#285,.T.);
#740=EDGE_CURVE('',#606,#604,#286,.T.);
#741=EDGE_CURVE('',#607,#606,#287,.T.);
#742=EDGE_CURVE('',#605,#607,#288,.T.);
#743=EDGE_CURVE('',#601,#606,#289,.T.);
#744=EDGE_CURVE('',#607,#600,#290,.T.);
#745=EDGE_CURVE('',#608,#602,#291,.T.);
#746=EDGE_CURVE('',#608,#609,#292,.T.);
#747=EDGE_CURVE('',#610,#609,#293,.T.);
#748=EDGE_CURVE('',#610,#611,#294,.T.);
#749=EDGE_CURVE('',#611,#599,#295,.T.);
#750=EDGE_CURVE('',#603,#612,#296,.T.);
#751=EDGE_CURVE('',#612,#613,#547,.T.);
#752=EDGE_CURVE('',#613,#614,#297,.T.);
#753=EDGE_CURVE('',#615,#614,#298,.T.);
#754=EDGE_CURVE('',#616,#615,#299,.T.);
#755=EDGE_CURVE('',#617,#616,#300,.T.);
#756=EDGE_CURVE('',#617,#618,#301,.T.);
#757=EDGE_CURVE('',#619,#618,#302,.T.);
#758=EDGE_CURVE('',#619,#620,#303,.T.);
#759=EDGE_CURVE('',#620,#608,#548,.T.);
#760=EDGE_CURVE('',#621,#622,#304,.T.);
#761=EDGE_CURVE('',#622,#623,#305,.T.);
#762=EDGE_CURVE('',#623,#624,#306,.T.);
#763=EDGE_CURVE('',#624,#621,#307,.T.);
#764=EDGE_CURVE('',#625,#626,#308,.T.);
#765=EDGE_CURVE('',#627,#625,#309,.T.);
#766=EDGE_CURVE('',#628,#627,#310,.T.);
#767=EDGE_CURVE('',#626,#628,#311,.T.);
#768=EDGE_CURVE('',#629,#630,#312,.T.);
#769=EDGE_CURVE('',#631,#629,#313,.T.);
#770=EDGE_CURVE('',#632,#631,#314,.T.);
#771=EDGE_CURVE('',#630,#632,#315,.T.);
#772=EDGE_CURVE('',#633,#577,#316,.T.);
#773=EDGE_CURVE('',#634,#633,#317,.T.);
#774=EDGE_CURVE('',#573,#634,#318,.T.);
#775=EDGE_CURVE('',#635,#576,#319,.T.);
#776=EDGE_CURVE('',#633,#635,#320,.T.);
#777=EDGE_CURVE('',#636,#634,#321,.T.);
#778=EDGE_CURVE('',#632,#636,#322,.T.);
#779=EDGE_CURVE('',#631,#574,#323,.T.);
#780=EDGE_CURVE('',#637,#629,#324,.T.);
#781=EDGE_CURVE('',#638,#637,#325,.T.);
#782=EDGE_CURVE('',#626,#638,#326,.T.);
#783=EDGE_CURVE('',#628,#575,#327,.T.);
#784=EDGE_CURVE('',#639,#627,#328,.T.);
#785=EDGE_CURVE('',#635,#639,#329,.T.);
#786=EDGE_CURVE('',#614,#630,#330,.T.);
#787=EDGE_CURVE('',#613,#640,#331,.T.);
#788=EDGE_CURVE('',#637,#640,#332,.T.);
#789=EDGE_CURVE('',#636,#641,#333,.T.);
#790=EDGE_CURVE('',#641,#642,#334,.T.);
#791=EDGE_CURVE('',#642,#643,#335,.T.);
#792=EDGE_CURVE('',#643,#615,#336,.T.);
#793=EDGE_CURVE('',#644,#639,#337,.T.);
#794=EDGE_CURVE('',#645,#644,#338,.T.);
#795=EDGE_CURVE('',#645,#646,#339,.T.);
#796=EDGE_CURVE('',#646,#647,#340,.T.);
#797=EDGE_CURVE('',#648,#647,#341,.T.);
#798=EDGE_CURVE('',#649,#648,#342,.T.);
#799=EDGE_CURVE('',#649,#650,#343,.T.);
#800=EDGE_CURVE('',#650,#641,#344,.T.);
#801=EDGE_CURVE('',#646,#565,#345,.T.);
#802=EDGE_CURVE('',#647,#563,#346,.T.);
#803=EDGE_CURVE('',#640,#651,#549,.T.);
#804=EDGE_CURVE('',#651,#652,#347,.T.);
#805=EDGE_CURVE('',#652,#610,#348,.T.);
#806=EDGE_CURVE('',#609,#653,#550,.T.);
#807=EDGE_CURVE('',#653,#638,#349,.T.);
#808=EDGE_CURVE('',#571,#649,#350,.T.);
#809=EDGE_CURVE('',#648,#566,#351,.T.);
#810=EDGE_CURVE('',#654,#622,#352,.T.);
#811=EDGE_CURVE('',#654,#655,#353,.T.);
#812=EDGE_CURVE('',#623,#655,#354,.T.);
#813=EDGE_CURVE('',#621,#656,#355,.T.);
#814=EDGE_CURVE('',#656,#654,#356,.T.);
#815=EDGE_CURVE('',#657,#624,#357,.T.);
#816=EDGE_CURVE('',#656,#657,#358,.T.);
#817=EDGE_CURVE('',#655,#657,#359,.T.);
#818=EDGE_CURVE('',#658,#652,#360,.T.);
#819=EDGE_CURVE('',#658,#611,#361,.T.);
#820=EDGE_CURVE('',#598,#658,#362,.T.);
#821=EDGE_CURVE('',#612,#651,#363,.T.);
#822=EDGE_CURVE('',#620,#653,#364,.T.);
#823=EDGE_CURVE('',#625,#619,#365,.T.);
#824=EDGE_CURVE('',#618,#659,#366,.T.);
#825=EDGE_CURVE('',#659,#660,#367,.T.);
#826=EDGE_CURVE('',#660,#644,#368,.T.);
#827=EDGE_CURVE('',#659,#661,#369,.T.);
#828=EDGE_CURVE('',#661,#617,#370,.T.);
#829=EDGE_CURVE('',#662,#643,#371,.T.);
#830=EDGE_CURVE('',#616,#662,#372,.T.);
#831=EDGE_CURVE('',#663,#662,#373,.T.);
#832=EDGE_CURVE('',#650,#663,#374,.T.);
#833=EDGE_CURVE('',#664,#645,#375,.T.);
#834=EDGE_CURVE('',#661,#664,#376,.T.);
#835=EDGE_CURVE('',#663,#642,#377,.T.);
#836=EDGE_CURVE('',#664,#660,#378,.T.);
#837=ORIENTED_EDGE('',*,*,#665,.F.);
#838=ORIENTED_EDGE('',*,*,#666,.T.);
#839=ORIENTED_EDGE('',*,*,#667,.F.);
#840=ORIENTED_EDGE('',*,*,#666,.F.);
#841=ORIENTED_EDGE('',*,*,#668,.F.);
#842=ORIENTED_EDGE('',*,*,#669,.T.);
#843=ORIENTED_EDGE('',*,*,#670,.F.);
#844=ORIENTED_EDGE('',*,*,#669,.F.);
#845=ORIENTED_EDGE('',*,*,#671,.F.);
#846=ORIENTED_EDGE('',*,*,#667,.T.);
#847=ORIENTED_EDGE('',*,*,#671,.T.);
#848=ORIENTED_EDGE('',*,*,#672,.T.);
#849=ORIENTED_EDGE('',*,*,#673,.F.);
#850=ORIENTED_EDGE('',*,*,#672,.F.);
#851=ORIENTED_EDGE('',*,*,#674,.F.);
#852=ORIENTED_EDGE('',*,*,#670,.T.);
#853=ORIENTED_EDGE('',*,*,#674,.T.);
#854=ORIENTED_EDGE('',*,*,#675,.T.);
#855=ORIENTED_EDGE('',*,*,#676,.F.);
#856=ORIENTED_EDGE('',*,*,#675,.F.);
#857=ORIENTED_EDGE('',*,*,#677,.F.);
#858=ORIENTED_EDGE('',*,*,#678,.T.);
#859=ORIENTED_EDGE('',*,*,#679,.T.);
#860=ORIENTED_EDGE('',*,*,#680,.T.);
#861=ORIENTED_EDGE('',*,*,#681,.T.);
#862=ORIENTED_EDGE('',*,*,#682,.F.);
#863=ORIENTED_EDGE('',*,*,#683,.F.);
#864=ORIENTED_EDGE('',*,*,#679,.F.);
#865=ORIENTED_EDGE('',*,*,#676,.T.);
#866=ORIENTED_EDGE('',*,*,#683,.T.);
#867=ORIENTED_EDGE('',*,*,#684,.F.);
#868=ORIENTED_EDGE('',*,*,#685,.T.);
#869=ORIENTED_EDGE('',*,*,#680,.F.);
#870=ORIENTED_EDGE('',*,*,#686,.T.);
#871=ORIENTED_EDGE('',*,*,#687,.F.);
#872=ORIENTED_EDGE('',*,*,#688,.F.);
#873=ORIENTED_EDGE('',*,*,#689,.F.);
#874=ORIENTED_EDGE('',*,*,#673,.T.);
#875=ORIENTED_EDGE('',*,*,#688,.T.);
#876=ORIENTED_EDGE('',*,*,#690,.F.);
#877=ORIENTED_EDGE('',*,*,#691,.T.);
#878=ORIENTED_EDGE('',*,*,#692,.F.);
#879=ORIENTED_EDGE('',*,*,#693,.F.);
#880=ORIENTED_EDGE('',*,*,#690,.T.);
#881=ORIENTED_EDGE('',*,*,#687,.T.);
#882=ORIENTED_EDGE('',*,*,#694,.T.);
#883=ORIENTED_EDGE('',*,*,#677,.T.);
#884=ORIENTED_EDGE('',*,*,#695,.T.);
#885=ORIENTED_EDGE('',*,*,#693,.T.);
#886=ORIENTED_EDGE('',*,*,#696,.F.);
#887=ORIENTED_EDGE('',*,*,#697,.T.);
#888=ORIENTED_EDGE('',*,*,#698,.T.);
#889=ORIENTED_EDGE('',*,*,#699,.T.);
#890=ORIENTED_EDGE('',*,*,#700,.T.);
#891=ORIENTED_EDGE('',*,*,#701,.T.);
#892=ORIENTED_EDGE('',*,*,#702,.T.);
#893=ORIENTED_EDGE('',*,*,#703,.T.);
#894=ORIENTED_EDGE('',*,*,#704,.T.);
#895=ORIENTED_EDGE('',*,*,#705,.T.);
#896=ORIENTED_EDGE('',*,*,#706,.T.);
#897=ORIENTED_EDGE('',*,*,#707,.T.);
#898=ORIENTED_EDGE('',*,*,#708,.T.);
#899=ORIENTED_EDGE('',*,*,#709,.T.);
#900=ORIENTED_EDGE('',*,*,#710,.T.);
#901=ORIENTED_EDGE('',*,*,#711,.T.);
#902=ORIENTED_EDGE('',*,*,#712,.F.);
#903=ORIENTED_EDGE('',*,*,#713,.T.);
#904=ORIENTED_EDGE('',*,*,#709,.F.);
#905=ORIENTED_EDGE('',*,*,#714,.F.);
#906=ORIENTED_EDGE('',*,*,#715,.F.);
#907=ORIENTED_EDGE('',*,*,#714,.T.);
#908=ORIENTED_EDGE('',*,*,#708,.F.);
#909=ORIENTED_EDGE('',*,*,#716,.F.);
#910=ORIENTED_EDGE('',*,*,#717,.F.);
#911=ORIENTED_EDGE('',*,*,#716,.T.);
#912=ORIENTED_EDGE('',*,*,#707,.F.);
#913=ORIENTED_EDGE('',*,*,#718,.T.);
#914=ORIENTED_EDGE('',*,*,#719,.F.);
#915=ORIENTED_EDGE('',*,*,#720,.T.);
#916=ORIENTED_EDGE('',*,*,#710,.F.);
#917=ORIENTED_EDGE('',*,*,#713,.F.);
#918=ORIENTED_EDGE('',*,*,#721,.F.);
#919=ORIENTED_EDGE('',*,*,#718,.F.);
#920=ORIENTED_EDGE('',*,*,#711,.F.);
#921=ORIENTED_EDGE('',*,*,#720,.F.);
#922=ORIENTED_EDGE('',*,*,#722,.F.);
#923=ORIENTED_EDGE('',*,*,#723,.T.);
#924=ORIENTED_EDGE('',*,*,#704,.F.);
#925=ORIENTED_EDGE('',*,*,#724,.F.);
#926=ORIENTED_EDGE('',*,*,#725,.F.);
#927=ORIENTED_EDGE('',*,*,#724,.T.);
#928=ORIENTED_EDGE('',*,*,#703,.F.);
#929=ORIENTED_EDGE('',*,*,#726,.F.);
#930=ORIENTED_EDGE('',*,*,#727,.F.);
#931=ORIENTED_EDGE('',*,*,#726,.T.);
#932=ORIENTED_EDGE('',*,*,#702,.F.);
#933=ORIENTED_EDGE('',*,*,#728,.T.);
#934=ORIENTED_EDGE('',*,*,#729,.F.);
#935=ORIENTED_EDGE('',*,*,#730,.T.);
#936=ORIENTED_EDGE('',*,*,#705,.F.);
#937=ORIENTED_EDGE('',*,*,#723,.F.);
#938=ORIENTED_EDGE('',*,*,#731,.F.);
#939=ORIENTED_EDGE('',*,*,#728,.F.);
#940=ORIENTED_EDGE('',*,*,#706,.F.);
#941=ORIENTED_EDGE('',*,*,#730,.F.);
#942=ORIENTED_EDGE('',*,*,#732,.F.);
#943=ORIENTED_EDGE('',*,*,#733,.F.);
#944=ORIENTED_EDGE('',*,*,#734,.T.);
#945=ORIENTED_EDGE('',*,*,#735,.F.);
#946=ORIENTED_EDGE('',*,*,#736,.F.);
#947=ORIENTED_EDGE('',*,*,#737,.F.);
#948=ORIENTED_EDGE('',*,*,#738,.F.);
#949=ORIENTED_EDGE('',*,*,#739,.F.);
#950=ORIENTED_EDGE('',*,*,#738,.T.);
#951=ORIENTED_EDGE('',*,*,#740,.F.);
#952=ORIENTED_EDGE('',*,*,#741,.F.);
#953=ORIENTED_EDGE('',*,*,#742,.F.);
#954=ORIENTED_EDGE('',*,*,#741,.T.);
#955=ORIENTED_EDGE('',*,*,#743,.F.);
#956=ORIENTED_EDGE('',*,*,#734,.F.);
#957=ORIENTED_EDGE('',*,*,#744,.F.);
#958=ORIENTED_EDGE('',*,*,#745,.F.);
#959=ORIENTED_EDGE('',*,*,#746,.T.);
#960=ORIENTED_EDGE('',*,*,#747,.F.);
#961=ORIENTED_EDGE('',*,*,#748,.T.);
#962=ORIENTED_EDGE('',*,*,#749,.T.);
#963=ORIENTED_EDGE('',*,*,#735,.T.);
#964=ORIENTED_EDGE('',*,*,#743,.T.);
#965=ORIENTED_EDGE('',*,*,#740,.T.);
#966=ORIENTED_EDGE('',*,*,#737,.T.);
#967=ORIENTED_EDGE('',*,*,#750,.T.);
#968=ORIENTED_EDGE('',*,*,#751,.T.);
#969=ORIENTED_EDGE('',*,*,#752,.T.);
#970=ORIENTED_EDGE('',*,*,#753,.F.);
#971=ORIENTED_EDGE('',*,*,#754,.F.);
#972=ORIENTED_EDGE('',*,*,#755,.F.);
#973=ORIENTED_EDGE('',*,*,#756,.T.);
#974=ORIENTED_EDGE('',*,*,#757,.F.);
#975=ORIENTED_EDGE('',*,*,#758,.T.);
#976=ORIENTED_EDGE('',*,*,#759,.T.);
#977=ORIENTED_EDGE('',*,*,#745,.T.);
#978=ORIENTED_EDGE('',*,*,#736,.T.);
#979=ORIENTED_EDGE('',*,*,#760,.T.);
#980=ORIENTED_EDGE('',*,*,#761,.T.);
#981=ORIENTED_EDGE('',*,*,#762,.T.);
#982=ORIENTED_EDGE('',*,*,#763,.T.);
#983=ORIENTED_EDGE('',*,*,#764,.F.);
#984=ORIENTED_EDGE('',*,*,#765,.F.);
#985=ORIENTED_EDGE('',*,*,#766,.F.);
#986=ORIENTED_EDGE('',*,*,#767,.F.);
#987=ORIENTED_EDGE('',*,*,#768,.F.);
#988=ORIENTED_EDGE('',*,*,#769,.F.);
#989=ORIENTED_EDGE('',*,*,#770,.F.);
#990=ORIENTED_EDGE('',*,*,#771,.F.);
#991=ORIENTED_EDGE('',*,*,#701,.F.);
#992=ORIENTED_EDGE('',*,*,#772,.F.);
#993=ORIENTED_EDGE('',*,*,#773,.F.);
#994=ORIENTED_EDGE('',*,*,#774,.F.);
#995=ORIENTED_EDGE('',*,*,#700,.F.);
#996=ORIENTED_EDGE('',*,*,#775,.F.);
#997=ORIENTED_EDGE('',*,*,#776,.F.);
#998=ORIENTED_EDGE('',*,*,#772,.T.);
#999=ORIENTED_EDGE('',*,*,#697,.F.);
#1000=ORIENTED_EDGE('',*,*,#774,.T.);
#1001=ORIENTED_EDGE('',*,*,#777,.F.);
#1002=ORIENTED_EDGE('',*,*,#778,.F.);
#1003=ORIENTED_EDGE('',*,*,#770,.T.);
#1004=ORIENTED_EDGE('',*,*,#779,.T.);
#1005=ORIENTED_EDGE('',*,*,#698,.F.);
#1006=ORIENTED_EDGE('',*,*,#779,.F.);
#1007=ORIENTED_EDGE('',*,*,#769,.T.);
#1008=ORIENTED_EDGE('',*,*,#780,.F.);
#1009=ORIENTED_EDGE('',*,*,#781,.F.);
#1010=ORIENTED_EDGE('',*,*,#782,.F.);
#1011=ORIENTED_EDGE('',*,*,#767,.T.);
#1012=ORIENTED_EDGE('',*,*,#783,.T.);
#1013=ORIENTED_EDGE('',*,*,#699,.F.);
#1014=ORIENTED_EDGE('',*,*,#783,.F.);
#1015=ORIENTED_EDGE('',*,*,#766,.T.);
#1016=ORIENTED_EDGE('',*,*,#784,.F.);
#1017=ORIENTED_EDGE('',*,*,#785,.F.);
#1018=ORIENTED_EDGE('',*,*,#775,.T.);
#1019=ORIENTED_EDGE('',*,*,#780,.T.);
#1020=ORIENTED_EDGE('',*,*,#768,.T.);
#1021=ORIENTED_EDGE('',*,*,#786,.F.);
#1022=ORIENTED_EDGE('',*,*,#752,.F.);
#1023=ORIENTED_EDGE('',*,*,#787,.T.);
#1024=ORIENTED_EDGE('',*,*,#788,.F.);
#1025=ORIENTED_EDGE('',*,*,#771,.T.);
#1026=ORIENTED_EDGE('',*,*,#778,.T.);
#1027=ORIENTED_EDGE('',*,*,#789,.T.);
#1028=ORIENTED_EDGE('',*,*,#790,.T.);
#1029=ORIENTED_EDGE('',*,*,#791,.T.);
#1030=ORIENTED_EDGE('',*,*,#792,.T.);
#1031=ORIENTED_EDGE('',*,*,#753,.T.);
#1032=ORIENTED_EDGE('',*,*,#786,.T.);
#1033=ORIENTED_EDGE('',*,*,#777,.T.);
#1034=ORIENTED_EDGE('',*,*,#773,.T.);
#1035=ORIENTED_EDGE('',*,*,#776,.T.);
#1036=ORIENTED_EDGE('',*,*,#785,.T.);
#1037=ORIENTED_EDGE('',*,*,#793,.F.);
#1038=ORIENTED_EDGE('',*,*,#794,.F.);
#1039=ORIENTED_EDGE('',*,*,#795,.T.);
#1040=ORIENTED_EDGE('',*,*,#796,.T.);
#1041=ORIENTED_EDGE('',*,*,#797,.F.);
#1042=ORIENTED_EDGE('',*,*,#798,.F.);
#1043=ORIENTED_EDGE('',*,*,#799,.T.);
#1044=ORIENTED_EDGE('',*,*,#800,.T.);
#1045=ORIENTED_EDGE('',*,*,#789,.F.);
#1046=ORIENTED_EDGE('',*,*,#665,.T.);
#1047=ORIENTED_EDGE('',*,*,#668,.T.);
#1048=ORIENTED_EDGE('',*,*,#717,.T.);
#1049=ORIENTED_EDGE('',*,*,#721,.T.);
#1050=ORIENTED_EDGE('',*,*,#719,.T.);
#1051=ORIENTED_EDGE('',*,*,#712,.T.);
#1052=ORIENTED_EDGE('',*,*,#715,.T.);
#1053=ORIENTED_EDGE('',*,*,#727,.T.);
#1054=ORIENTED_EDGE('',*,*,#731,.T.);
#1055=ORIENTED_EDGE('',*,*,#729,.T.);
#1056=ORIENTED_EDGE('',*,*,#722,.T.);
#1057=ORIENTED_EDGE('',*,*,#725,.T.);
#1058=ORIENTED_EDGE('',*,*,#801,.T.);
#1059=ORIENTED_EDGE('',*,*,#684,.T.);
#1060=ORIENTED_EDGE('',*,*,#682,.T.);
#1061=ORIENTED_EDGE('',*,*,#802,.F.);
#1062=ORIENTED_EDGE('',*,*,#796,.F.);
#1063=ORIENTED_EDGE('',*,*,#781,.T.);
#1064=ORIENTED_EDGE('',*,*,#788,.T.);
#1065=ORIENTED_EDGE('',*,*,#803,.T.);
#1066=ORIENTED_EDGE('',*,*,#804,.T.);
#1067=ORIENTED_EDGE('',*,*,#805,.T.);
#1068=ORIENTED_EDGE('',*,*,#747,.T.);
#1069=ORIENTED_EDGE('',*,*,#806,.T.);
#1070=ORIENTED_EDGE('',*,*,#807,.T.);
#1071=ORIENTED_EDGE('',*,*,#808,.T.);
#1072=ORIENTED_EDGE('',*,*,#798,.T.);
#1073=ORIENTED_EDGE('',*,*,#809,.T.);
#1074=ORIENTED_EDGE('',*,*,#689,.T.);
#1075=ORIENTED_EDGE('',*,*,#692,.T.);
#1076=ORIENTED_EDGE('',*,*,#809,.F.);
#1077=ORIENTED_EDGE('',*,*,#797,.T.);
#1078=ORIENTED_EDGE('',*,*,#802,.T.);
#1079=ORIENTED_EDGE('',*,*,#681,.F.);
#1080=ORIENTED_EDGE('',*,*,#678,.F.);
#1081=ORIENTED_EDGE('',*,*,#696,.T.);
#1082=ORIENTED_EDGE('',*,*,#694,.F.);
#1083=ORIENTED_EDGE('',*,*,#686,.F.);
#1084=ORIENTED_EDGE('',*,*,#761,.F.);
#1085=ORIENTED_EDGE('',*,*,#810,.F.);
#1086=ORIENTED_EDGE('',*,*,#811,.T.);
#1087=ORIENTED_EDGE('',*,*,#812,.F.);
#1088=ORIENTED_EDGE('',*,*,#760,.F.);
#1089=ORIENTED_EDGE('',*,*,#813,.T.);
#1090=ORIENTED_EDGE('',*,*,#814,.T.);
#1091=ORIENTED_EDGE('',*,*,#810,.T.);
#1092=ORIENTED_EDGE('',*,*,#763,.F.);
#1093=ORIENTED_EDGE('',*,*,#815,.F.);
#1094=ORIENTED_EDGE('',*,*,#816,.F.);
#1095=ORIENTED_EDGE('',*,*,#813,.F.);
#1096=ORIENTED_EDGE('',*,*,#816,.T.);
#1097=ORIENTED_EDGE('',*,*,#817,.F.);
#1098=ORIENTED_EDGE('',*,*,#811,.F.);
#1099=ORIENTED_EDGE('',*,*,#814,.F.);
#1100=ORIENTED_EDGE('',*,*,#762,.F.);
#1101=ORIENTED_EDGE('',*,*,#812,.T.);
#1102=ORIENTED_EDGE('',*,*,#817,.T.);
#1103=ORIENTED_EDGE('',*,*,#815,.T.);
#1104=ORIENTED_EDGE('',*,*,#805,.F.);
#1105=ORIENTED_EDGE('',*,*,#818,.F.);
#1106=ORIENTED_EDGE('',*,*,#819,.T.);
#1107=ORIENTED_EDGE('',*,*,#748,.F.);
#1108=ORIENTED_EDGE('',*,*,#732,.T.);
#1109=ORIENTED_EDGE('',*,*,#749,.F.);
#1110=ORIENTED_EDGE('',*,*,#819,.F.);
#1111=ORIENTED_EDGE('',*,*,#820,.F.);
#1112=ORIENTED_EDGE('',*,*,#820,.T.);
#1113=ORIENTED_EDGE('',*,*,#818,.T.);
#1114=ORIENTED_EDGE('',*,*,#804,.F.);
#1115=ORIENTED_EDGE('',*,*,#821,.F.);
#1116=ORIENTED_EDGE('',*,*,#750,.F.);
#1117=ORIENTED_EDGE('',*,*,#739,.T.);
#1118=ORIENTED_EDGE('',*,*,#742,.T.);
#1119=ORIENTED_EDGE('',*,*,#744,.T.);
#1120=ORIENTED_EDGE('',*,*,#733,.T.);
#1121=ORIENTED_EDGE('',*,*,#751,.F.);
#1122=ORIENTED_EDGE('',*,*,#821,.T.);
#1123=ORIENTED_EDGE('',*,*,#803,.F.);
#1124=ORIENTED_EDGE('',*,*,#787,.F.);
#1125=ORIENTED_EDGE('',*,*,#759,.F.);
#1126=ORIENTED_EDGE('',*,*,#822,.T.);
#1127=ORIENTED_EDGE('',*,*,#806,.F.);
#1128=ORIENTED_EDGE('',*,*,#746,.F.);
#1129=ORIENTED_EDGE('',*,*,#782,.T.);
#1130=ORIENTED_EDGE('',*,*,#807,.F.);
#1131=ORIENTED_EDGE('',*,*,#822,.F.);
#1132=ORIENTED_EDGE('',*,*,#758,.F.);
#1133=ORIENTED_EDGE('',*,*,#823,.F.);
#1134=ORIENTED_EDGE('',*,*,#764,.T.);
#1135=ORIENTED_EDGE('',*,*,#765,.T.);
#1136=ORIENTED_EDGE('',*,*,#823,.T.);
#1137=ORIENTED_EDGE('',*,*,#757,.T.);
#1138=ORIENTED_EDGE('',*,*,#824,.T.);
#1139=ORIENTED_EDGE('',*,*,#825,.T.);
#1140=ORIENTED_EDGE('',*,*,#826,.T.);
#1141=ORIENTED_EDGE('',*,*,#793,.T.);
#1142=ORIENTED_EDGE('',*,*,#784,.T.);
#1143=ORIENTED_EDGE('',*,*,#827,.F.);
#1144=ORIENTED_EDGE('',*,*,#824,.F.);
#1145=ORIENTED_EDGE('',*,*,#756,.F.);
#1146=ORIENTED_EDGE('',*,*,#828,.F.);
#1147=ORIENTED_EDGE('',*,*,#829,.F.);
#1148=ORIENTED_EDGE('',*,*,#830,.F.);
#1149=ORIENTED_EDGE('',*,*,#754,.T.);
#1150=ORIENTED_EDGE('',*,*,#792,.F.);
#1151=ORIENTED_EDGE('',*,*,#828,.T.);
#1152=ORIENTED_EDGE('',*,*,#755,.T.);
#1153=ORIENTED_EDGE('',*,*,#830,.T.);
#1154=ORIENTED_EDGE('',*,*,#831,.F.);
#1155=ORIENTED_EDGE('',*,*,#832,.F.);
#1156=ORIENTED_EDGE('',*,*,#799,.F.);
#1157=ORIENTED_EDGE('',*,*,#808,.F.);
#1158=ORIENTED_EDGE('',*,*,#691,.F.);
#1159=ORIENTED_EDGE('',*,*,#695,.F.);
#1160=ORIENTED_EDGE('',*,*,#685,.F.);
#1161=ORIENTED_EDGE('',*,*,#801,.F.);
#1162=ORIENTED_EDGE('',*,*,#795,.F.);
#1163=ORIENTED_EDGE('',*,*,#833,.F.);
#1164=ORIENTED_EDGE('',*,*,#834,.F.);
#1165=ORIENTED_EDGE('',*,*,#829,.T.);
#1166=ORIENTED_EDGE('',*,*,#791,.F.);
#1167=ORIENTED_EDGE('',*,*,#835,.F.);
#1168=ORIENTED_EDGE('',*,*,#831,.T.);
#1169=ORIENTED_EDGE('',*,*,#833,.T.);
#1170=ORIENTED_EDGE('',*,*,#794,.T.);
#1171=ORIENTED_EDGE('',*,*,#826,.F.);
#1172=ORIENTED_EDGE('',*,*,#836,.F.);
#1173=ORIENTED_EDGE('',*,*,#827,.T.);
#1174=ORIENTED_EDGE('',*,*,#834,.T.);
#1175=ORIENTED_EDGE('',*,*,#836,.T.);
#1176=ORIENTED_EDGE('',*,*,#825,.F.);
#1177=ORIENTED_EDGE('',*,*,#832,.T.);
#1178=ORIENTED_EDGE('',*,*,#835,.T.);
#1179=ORIENTED_EDGE('',*,*,#790,.F.);
#1180=ORIENTED_EDGE('',*,*,#800,.F.);
#1181=CYLINDRICAL_SURFACE('',#1263,2.25);
#1182=CYLINDRICAL_SURFACE('',#1266,2.25);
#1183=CYLINDRICAL_SURFACE('',#1271,2.8);
#1184=CYLINDRICAL_SURFACE('',#1275,2.8);
#1185=CYLINDRICAL_SURFACE('',#1326,0.75);
#1186=CYLINDRICAL_SURFACE('',#1327,0.75);
#1187=ADVANCED_FACE('',(#83),#1181,.F.);
#1188=ADVANCED_FACE('',(#84),#1182,.F.);
#1189=ADVANCED_FACE('',(#85,#15),#27,.T.);
#1190=ADVANCED_FACE('',(#86),#1183,.F.);
#1191=ADVANCED_FACE('',(#87,#16),#28,.T.);
#1192=ADVANCED_FACE('',(#88),#1184,.F.);
#1193=ADVANCED_FACE('',(#89),#29,.T.);
#1194=ADVANCED_FACE('',(#90,#17),#30,.T.);
#1195=ADVANCED_FACE('',(#91),#31,.T.);
#1196=ADVANCED_FACE('',(#92,#18),#32,.T.);
#1197=ADVANCED_FACE('',(#93),#33,.T.);
#1198=ADVANCED_FACE('',(#94),#34,.T.);
#1199=ADVANCED_FACE('',(#95,#19,#20,#21),#35,.T.);
#1200=ADVANCED_FACE('',(#96),#36,.F.);
#1201=ADVANCED_FACE('',(#97),#37,.F.);
#1202=ADVANCED_FACE('',(#98),#38,.F.);
#1203=ADVANCED_FACE('',(#99),#39,.F.);
#1204=ADVANCED_FACE('',(#100),#40,.F.);
#1205=ADVANCED_FACE('',(#101),#41,.F.);
#1206=ADVANCED_FACE('',(#102),#42,.F.);
#1207=ADVANCED_FACE('',(#103),#43,.F.);
#1208=ADVANCED_FACE('',(#104),#44,.F.);
#1209=ADVANCED_FACE('',(#105),#45,.F.);
#1210=ADVANCED_FACE('',(#106),#46,.T.);
#1211=ADVANCED_FACE('',(#107),#47,.T.);
#1212=ADVANCED_FACE('',(#108),#48,.T.);
#1213=ADVANCED_FACE('',(#109),#49,.T.);
#1214=ADVANCED_FACE('',(#110),#50,.F.);
#1215=ADVANCED_FACE('',(#111,#22),#51,.F.);
#1216=ADVANCED_FACE('',(#112),#52,.F.);
#1217=ADVANCED_FACE('',(#113),#53,.F.);
#1218=ADVANCED_FACE('',(#114),#54,.F.);
#1219=ADVANCED_FACE('',(#115),#55,.F.);
#1220=ADVANCED_FACE('',(#116),#56,.F.);
#1221=ADVANCED_FACE('',(#117),#57,.F.);
#1222=ADVANCED_FACE('',(#118),#58,.F.);
#1223=ADVANCED_FACE('',(#119),#59,.F.);
#1224=ADVANCED_FACE('',(#120),#60,.T.);
#1225=ADVANCED_FACE('',(#121,#23,#24,#25,#26),#61,.T.);
#1226=ADVANCED_FACE('',(#122),#62,.T.);
#1227=ADVANCED_FACE('',(#123),#63,.T.);
#1228=ADVANCED_FACE('',(#124),#64,.T.);
#1229=ADVANCED_FACE('',(#125),#65,.T.);
#1230=ADVANCED_FACE('',(#126),#66,.T.);
#1231=ADVANCED_FACE('',(#127),#67,.T.);
#1232=ADVANCED_FACE('',(#128),#68,.T.);
#1233=ADVANCED_FACE('',(#129),#69,.T.);
#1234=ADVANCED_FACE('',(#130),#70,.T.);
#1235=ADVANCED_FACE('',(#131),#71,.F.);
#1236=ADVANCED_FACE('',(#132),#72,.F.);
#1237=ADVANCED_FACE('',(#133),#73,.F.);
#1238=ADVANCED_FACE('',(#134),#1185,.F.);
#1239=ADVANCED_FACE('',(#135),#1186,.F.);
#1240=ADVANCED_FACE('',(#136),#74,.F.);
#1241=ADVANCED_FACE('',(#137),#75,.T.);
#1242=ADVANCED_FACE('',(#138),#76,.F.);
#1243=ADVANCED_FACE('',(#139),#77,.F.);
#1244=ADVANCED_FACE('',(#140),#78,.F.);
#1245=ADVANCED_FACE('',(#141),#79,.T.);
#1246=ADVANCED_FACE('',(#142),#80,.T.);
#1247=ADVANCED_FACE('',(#143),#81,.T.);
#1248=ADVANCED_FACE('',(#144),#82,.T.);
#1249=CLOSED_SHELL('',(#1187,#1188,#1189,#1190,#1191,#1192,#1193,#1194,
#1195,#1196,#1197,#1198,#1199,#1200,#1201,#1202,#1203,#1204,#1205,#1206,
#1207,#1208,#1209,#1210,#1211,#1212,#1213,#1214,#1215,#1216,#1217,#1218,
#1219,#1220,#1221,#1222,#1223,#1224,#1225,#1226,#1227,#1228,#1229,#1230,
#1231,#1232,#1233,#1234,#1235,#1236,#1237,#1238,#1239,#1240,#1241,#1242,
#1243,#1244,#1245,#1246,#1247,#1248));
#1250=DERIVED_UNIT_ELEMENT(#1252,1.);
#1251=DERIVED_UNIT_ELEMENT(#2001,-3.);
#1252=(
MASS_UNIT()
NAMED_UNIT(*)
SI_UNIT(.KILO.,.GRAM.)
);
#1253=DERIVED_UNIT((#1250,#1251));
#1254=MEASURE_REPRESENTATION_ITEM('density measure',
POSITIVE_RATIO_MEASURE(7850.),#1253);
#1255=PROPERTY_DEFINITION_REPRESENTATION(#1260,#1257);
#1256=PROPERTY_DEFINITION_REPRESENTATION(#1261,#1258);
#1257=REPRESENTATION('material name',(#1259),#1998);
#1258=REPRESENTATION('density',(#1254),#1998);
#1259=DESCRIPTIVE_REPRESENTATION_ITEM('Stahl','Stahl');
#1260=PROPERTY_DEFINITION('material property','material name',#2008);
#1261=PROPERTY_DEFINITION('material property','density of part',#2008);
#1262=AXIS2_PLACEMENT_3D('',#1647,#1337,#1338);
#1263=AXIS2_PLACEMENT_3D('',#1648,#1339,#1340);
#1264=AXIS2_PLACEMENT_3D('',#1650,#1341,#1342);
#1265=AXIS2_PLACEMENT_3D('',#1653,#1344,#1345);
#1266=AXIS2_PLACEMENT_3D('',#1654,#1346,#1347);
#1267=AXIS2_PLACEMENT_3D('',#1656,#1348,#1349);
#1268=AXIS2_PLACEMENT_3D('',#1659,#1351,#1352);
#1269=AXIS2_PLACEMENT_3D('',#1660,#1353,#1354);
#1270=AXIS2_PLACEMENT_3D('',#1662,#1355,#1356);
#1271=AXIS2_PLACEMENT_3D('',#1663,#1357,#1358);
#1272=AXIS2_PLACEMENT_3D('',#1666,#1360,#1361);
#1273=AXIS2_PLACEMENT_3D('',#1667,#1362,#1363);
#1274=AXIS2_PLACEMENT_3D('',#1669,#1364,#1365);
#1275=AXIS2_PLACEMENT_3D('',#1670,#1366,#1367);
#1276=AXIS2_PLACEMENT_3D('',#1673,#1369,#1370);
#1277=AXIS2_PLACEMENT_3D('',#1674,#1371,#1372);
#1278=AXIS2_PLACEMENT_3D('',#1683,#1377,#1378);
#1279=AXIS2_PLACEMENT_3D('',#1689,#1382,#1383);
#1280=AXIS2_PLACEMENT_3D('',#1693,#1386,#1387);
#1281=AXIS2_PLACEMENT_3D('',#1702,#1392,#1393);
#1282=AXIS2_PLACEMENT_3D('',#1708,#1397,#1398);
#1283=AXIS2_PLACEMENT_3D('',#1712,#1401,#1402);
#1284=AXIS2_PLACEMENT_3D('',#1745,#1420,#1421);
#1285=AXIS2_PLACEMENT_3D('',#1751,#1425,#1426);
#1286=AXIS2_PLACEMENT_3D('',#1755,#1429,#1430);
#1287=AXIS2_PLACEMENT_3D('',#1759,#1433,#1434);
#1288=AXIS2_PLACEMENT_3D('',#1763,#1437,#1438);
#1289=AXIS2_PLACEMENT_3D('',#1765,#1440,#1441);
#1290=AXIS2_PLACEMENT_3D('',#1771,#1445,#1446);
#1291=AXIS2_PLACEMENT_3D('',#1775,#1449,#1450);
#1292=AXIS2_PLACEMENT_3D('',#1779,#1453,#1454);
#1293=AXIS2_PLACEMENT_3D('',#1783,#1457,#1458);
#1294=AXIS2_PLACEMENT_3D('',#1785,#1460,#1461);
#1295=AXIS2_PLACEMENT_3D('',#1794,#1466,#1467);
#1296=AXIS2_PLACEMENT_3D('',#1803,#1472,#1473);
#1297=AXIS2_PLACEMENT_3D('',#1809,#1477,#1478);
#1298=AXIS2_PLACEMENT_3D('',#1812,#1481,#1482);
#1299=AXIS2_PLACEMENT_3D('',#1822,#1488,#1489);
#1300=AXIS2_PLACEMENT_3D('',#1826,#1491,#1492);
#1301=AXIS2_PLACEMENT_3D('',#1841,#1500,#1501);
#1302=AXIS2_PLACEMENT_3D('',#1850,#1506,#1507);
#1303=AXIS2_PLACEMENT_3D('',#1859,#1512,#1513);
#1304=AXIS2_PLACEMENT_3D('',#1868,#1518,#1519);
#1305=AXIS2_PLACEMENT_3D('',#1874,#1523,#1524);
#1306=AXIS2_PLACEMENT_3D('',#1878,#1527,#1528);
#1307=AXIS2_PLACEMENT_3D('',#1883,#1532,#1533);
#1308=AXIS2_PLACEMENT_3D('',#1890,#1538,#1539);
#1309=AXIS2_PLACEMENT_3D('',#1894,#1542,#1543);
#1310=AXIS2_PLACEMENT_3D('',#1899,#1547,#1548);
#1311=AXIS2_PLACEMENT_3D('',#1907,#1553,#1554);
#1312=AXIS2_PLACEMENT_3D('',#1923,#1563,#1564);
#1313=AXIS2_PLACEMENT_3D('',#1926,#1567,#1568);
#1314=AXIS2_PLACEMENT_3D('',#1928,#1569,#1570);
#1315=AXIS2_PLACEMENT_3D('',#1933,#1573,#1574);
#1316=AXIS2_PLACEMENT_3D('',#1935,#1576,#1577);
#1317=AXIS2_PLACEMENT_3D('',#1938,#1580,#1581);
#1318=AXIS2_PLACEMENT_3D('',#1939,#1582,#1583);
#1319=AXIS2_PLACEMENT_3D('',#1945,#1587,#1588);
#1320=AXIS2_PLACEMENT_3D('',#1949,#1591,#1592);
#1321=AXIS2_PLACEMENT_3D('',#1953,#1595,#1596);
#1322=AXIS2_PLACEMENT_3D('',#1955,#1598,#1599);
#1323=AXIS2_PLACEMENT_3D('',#1956,#1600,#1601);
#1324=AXIS2_PLACEMENT_3D('',#1960,#1604,#1605);
#1325=AXIS2_PLACEMENT_3D('',#1962,#1607,#1608);
#1326=AXIS2_PLACEMENT_3D('',#1964,#1610,#1611);
#1327=AXIS2_PLACEMENT_3D('',#1965,#1612,#1613);
#1328=AXIS2_PLACEMENT_3D('',#1967,#1615,#1616);
#1329=AXIS2_PLACEMENT_3D('',#1969,#1618,#1619);
#1330=AXIS2_PLACEMENT_3D('',#1975,#1623,#1624);
#1331=AXIS2_PLACEMENT_3D('',#1979,#1627,#1628);
#1332=AXIS2_PLACEMENT_3D('',#1983,#1631,#1632);
#1333=AXIS2_PLACEMENT_3D('',#1990,#1637,#1638);
#1334=AXIS2_PLACEMENT_3D('',#1992,#1640,#1641);
#1335=AXIS2_PLACEMENT_3D('',#1994,#1643,#1644);
#1336=AXIS2_PLACEMENT_3D('',#1995,#1645,#1646);
#1337=DIRECTION('axis',(0.,0.,1.));
#1338=DIRECTION('refdir',(1.,0.,0.));
#1339=DIRECTION('center_axis',(0.,1.,0.));
#1340=DIRECTION('ref_axis',(1.,0.,0.));
#1341=DIRECTION('center_axis',(0.,1.,0.));
#1342=DIRECTION('ref_axis',(1.,0.,0.));
#1343=DIRECTION('',(0.,1.,0.));
#1344=DIRECTION('center_axis',(0.,-1.,0.));
#1345=DIRECTION('ref_axis',(1.,0.,0.));
#1346=DIRECTION('center_axis',(0.,1.,0.));
#1347=DIRECTION('ref_axis',(1.,0.,0.));
#1348=DIRECTION('center_axis',(0.,1.,0.));
#1349=DIRECTION('ref_axis',(1.,0.,0.));
#1350=DIRECTION('',(0.,1.,0.));
#1351=DIRECTION('center_axis',(0.,-1.,0.));
#1352=DIRECTION('ref_axis',(1.,0.,0.));
#1353=DIRECTION('center_axis',(0.,1.,0.));
#1354=DIRECTION('ref_axis',(1.,0.,0.));
#1355=DIRECTION('center_axis',(0.,-1.,0.));
#1356=DIRECTION('ref_axis',(1.,0.,0.));
#1357=DIRECTION('center_axis',(0.,1.,0.));
#1358=DIRECTION('ref_axis',(1.,0.,0.));
#1359=DIRECTION('',(0.,1.,0.));
#1360=DIRECTION('center_axis',(0.,-1.,0.));
#1361=DIRECTION('ref_axis',(1.,0.,0.));
#1362=DIRECTION('center_axis',(0.,1.,0.));
#1363=DIRECTION('ref_axis',(1.,0.,0.));
#1364=DIRECTION('center_axis',(0.,-1.,0.));
#1365=DIRECTION('ref_axis',(1.,0.,0.));
#1366=DIRECTION('center_axis',(0.,1.,0.));
#1367=DIRECTION('ref_axis',(1.,0.,0.));
#1368=DIRECTION('',(0.,1.,0.));
#1369=DIRECTION('center_axis',(0.,-1.,0.));
#1370=DIRECTION('ref_axis',(1.,0.,0.));
#1371=DIRECTION('center_axis',(-1.,0.,0.));
#1372=DIRECTION('ref_axis',(0.,0.,1.));
#1373=DIRECTION('',(0.,0.,-1.));
#1374=DIRECTION('',(0.,1.,0.));
#1375=DIRECTION('',(0.,0.,-1.));
#1376=DIRECTION('',(0.,-0.707106781186547,-0.707106781186547));
#1377=DIRECTION('center_axis',(0.,1.,0.));
#1378=DIRECTION('ref_axis',(0.,0.,1.));
#1379=DIRECTION('',(1.,0.,0.));
#1380=DIRECTION('',(0.,0.,1.));
#1381=DIRECTION('',(1.,0.,0.));
#1382=DIRECTION('center_axis',(0.,0.707106781186548,-0.707106781186548));
#1383=DIRECTION('ref_axis',(0.,0.707106781186548,0.707106781186548));
#1384=DIRECTION('',(0.,0.707106781186547,0.707106781186547));
#1385=DIRECTION('',(-1.,0.,0.));
#1386=DIRECTION('center_axis',(0.,1.,0.));
#1387=DIRECTION('ref_axis',(0.,0.,1.));
#1388=DIRECTION('',(1.,0.,0.));
#1389=DIRECTION('',(0.,0.,1.));
#1390=DIRECTION('',(1.,0.,0.));
#1391=DIRECTION('',(0.,0.,-1.));
#1392=DIRECTION('center_axis',(0.,0.707106781186548,-0.707106781186548));
#1393=DIRECTION('ref_axis',(0.,0.707106781186548,0.707106781186548));
#1394=DIRECTION('',(0.,0.707106781186547,0.707106781186547));
#1395=DIRECTION('',(-1.,0.,0.));
#1396=DIRECTION('',(0.,-0.707106781186547,-0.707106781186547));
#1397=DIRECTION('center_axis',(1.,0.,0.));
#1398=DIRECTION('ref_axis',(0.,0.,-1.));
#1399=DIRECTION('',(0.,0.,1.));
#1400=DIRECTION('',(0.,-1.,0.));
#1401=DIRECTION('center_axis',(0.,1.,0.));
#1402=DIRECTION('ref_axis',(-1.,0.,0.));
#1403=DIRECTION('',(-1.,0.,0.));
#1404=DIRECTION('',(-1.,0.,0.));
#1405=DIRECTION('',(0.,0.,-1.));
#1406=DIRECTION('',(1.,0.,0.));
#1407=DIRECTION('',(0.,0.,1.));
#1408=DIRECTION('',(-0.707106781186548,0.,0.707106781186547));
#1409=DIRECTION('',(-0.707106781186548,0.,-0.707106781186547));
#1410=DIRECTION('',(0.,0.,-1.));
#1411=DIRECTION('',(1.,0.,0.));
#1412=DIRECTION('',(0.,0.,1.));
#1413=DIRECTION('',(-0.707106781186547,0.,0.707106781186548));
#1414=DIRECTION('',(-0.707106781186547,0.,-0.707106781186548));
#1415=DIRECTION('',(0.,0.,-1.));
#1416=DIRECTION('',(1.,0.,0.));
#1417=DIRECTION('',(0.,0.,1.));
#1418=DIRECTION('',(-0.707106781186547,0.,0.707106781186548));
#1419=DIRECTION('',(-0.707106781186547,0.,-0.707106781186548));
#1420=DIRECTION('center_axis',(1.,0.,0.));
#1421=DIRECTION('ref_axis',(0.,0.,-1.));
#1422=DIRECTION('',(0.,0.,-1.));
#1423=DIRECTION('',(0.,1.,0.));
#1424=DIRECTION('',(0.,1.,0.));
#1425=DIRECTION('center_axis',(0.,0.,-1.));
#1426=DIRECTION('ref_axis',(-1.,0.,0.));
#1427=DIRECTION('',(-1.,0.,0.));
#1428=DIRECTION('',(0.,1.,0.));
#1429=DIRECTION('center_axis',(-1.,0.,0.));
#1430=DIRECTION('ref_axis',(0.,0.,1.));
#1431=DIRECTION('',(0.,0.,1.));
#1432=DIRECTION('',(0.,-1.,0.));
#1433=DIRECTION('center_axis',(0.707106781186548,0.,0.707106781186547));
#1434=DIRECTION('ref_axis',(0.707106781186547,0.,-0.707106781186548));
#1435=DIRECTION('',(0.707106781186547,0.,-0.707106781186548));
#1436=DIRECTION('',(0.,1.,0.));
#1437=DIRECTION('center_axis',(-0.707106781186548,0.,0.707106781186547));
#1438=DIRECTION('ref_axis',(0.707106781186547,0.,0.707106781186548));
#1439=DIRECTION('',(0.707106781186547,0.,0.707106781186548));
#1440=DIRECTION('center_axis',(1.,0.,0.));
#1441=DIRECTION('ref_axis',(0.,0.,-1.));
#1442=DIRECTION('',(0.,0.,-1.));
#1443=DIRECTION('',(0.,1.,0.));
#1444=DIRECTION('',(0.,1.,0.));
#1445=DIRECTION('center_axis',(0.,0.,-1.));
#1446=DIRECTION('ref_axis',(-1.,0.,0.));
#1447=DIRECTION('',(-1.,0.,0.));
#1448=DIRECTION('',(0.,1.,0.));
#1449=DIRECTION('center_axis',(-1.,0.,0.));
#1450=DIRECTION('ref_axis',(0.,0.,1.));
#1451=DIRECTION('',(0.,0.,1.));
#1452=DIRECTION('',(0.,-1.,0.));
#1453=DIRECTION('center_axis',(0.707106781186548,0.,0.707106781186547));
#1454=DIRECTION('ref_axis',(0.707106781186547,0.,-0.707106781186548));
#1455=DIRECTION('',(0.707106781186547,0.,-0.707106781186548));
#1456=DIRECTION('',(0.,1.,0.));
#1457=DIRECTION('center_axis',(-0.707106781186548,0.,0.707106781186547));
#1458=DIRECTION('ref_axis',(0.707106781186547,0.,0.707106781186548));
#1459=DIRECTION('',(0.707106781186547,0.,0.707106781186548));
#1460=DIRECTION('center_axis',(0.,0.,-1.));
#1461=DIRECTION('ref_axis',(0.,1.,0.));
#1462=DIRECTION('',(1.,0.,0.));
#1463=DIRECTION('',(0.,-1.,0.));
#1464=DIRECTION('',(1.,0.,0.));
#1465=DIRECTION('',(0.,1.,0.));
#1466=DIRECTION('center_axis',(0.,0.,1.));
#1467=DIRECTION('ref_axis',(0.,-1.,0.));
#1468=DIRECTION('',(-1.,0.,0.));
#1469=DIRECTION('',(0.,-1.,0.));
#1470=DIRECTION('',(1.,0.,0.));
#1471=DIRECTION('',(0.,1.,0.));
#1472=DIRECTION('center_axis',(0.,1.,0.));
#1473=DIRECTION('ref_axis',(0.,0.,1.));
#1474=DIRECTION('',(0.,0.,1.));
#1475=DIRECTION('',(1.,0.,0.));
#1476=DIRECTION('',(0.,0.,-1.));
#1477=DIRECTION('center_axis',(0.,0.707106781186548,-0.707106781186547));
#1478=DIRECTION('ref_axis',(0.,0.707106781186547,0.707106781186548));
#1479=DIRECTION('',(0.,0.707106781186547,0.707106781186548));
#1480=DIRECTION('',(0.,-0.707106781186547,-0.707106781186548));
#1481=DIRECTION('center_axis',(-1.,0.,0.));
#1482=DIRECTION('ref_axis',(0.,0.,1.));
#1483=DIRECTION('',(0.,0.,1.));
#1484=DIRECTION('',(0.,1.,0.));
#1485=DIRECTION('',(0.,0.,-1.));
#1486=DIRECTION('',(0.,-0.395027750659416,0.918669187580036));
#1487=DIRECTION('',(0.,0.,1.));
#1488=DIRECTION('center_axis',(0.,1.,0.));
#1489=DIRECTION('ref_axis',(-1.,0.,0.));
#1490=DIRECTION('',(0.,0.,-1.));
#1491=DIRECTION('center_axis',(0.,1.,0.));
#1492=DIRECTION('ref_axis',(1.,0.,0.));
#1493=DIRECTION('',(0.,0.,1.));
#1494=DIRECTION('',(1.,0.,0.));
#1495=DIRECTION('',(0.,0.,1.));
#1496=DIRECTION('',(-1.,0.,0.));
#1497=DIRECTION('',(0.,0.,1.));
#1498=DIRECTION('',(1.,0.,0.));
#1499=DIRECTION('',(0.,0.,-1.));
#1500=DIRECTION('center_axis',(0.,1.,0.));
#1501=DIRECTION('ref_axis',(1.,0.,0.));
#1502=DIRECTION('',(0.,0.,1.));
#1503=DIRECTION('',(1.,0.,0.));
#1504=DIRECTION('',(0.,0.,-1.));
#1505=DIRECTION('',(-1.,0.,0.));
#1506=DIRECTION('center_axis',(0.,-1.,0.));
#1507=DIRECTION('ref_axis',(0.,0.,-1.));
#1508=DIRECTION('',(0.,0.,-1.));
#1509=DIRECTION('',(-1.,0.,0.));
#1510=DIRECTION('',(0.,0.,1.));
#1511=DIRECTION('',(1.,0.,0.));
#1512=DIRECTION('center_axis',(0.,-1.,0.));
#1513=DIRECTION('ref_axis',(0.,0.,-1.));
#1514=DIRECTION('',(0.,0.,1.));
#1515=DIRECTION('',(1.,0.,0.));
#1516=DIRECTION('',(0.,0.,-1.));
#1517=DIRECTION('',(-1.,0.,0.));
#1518=DIRECTION('center_axis',(-0.707106781186547,0.,0.707106781186548));
#1519=DIRECTION('ref_axis',(0.707106781186548,0.,0.707106781186547));
#1520=DIRECTION('',(0.,1.,0.));
#1521=DIRECTION('',(0.707106781186548,0.,0.707106781186547));
#1522=DIRECTION('',(0.,-1.,0.));
#1523=DIRECTION('center_axis',(0.707106781186547,0.,0.707106781186548));
#1524=DIRECTION('ref_axis',(0.707106781186548,0.,-0.707106781186547));
#1525=DIRECTION('',(0.,1.,0.));
#1526=DIRECTION('',(0.707106781186548,0.,-0.707106781186547));
#1527=DIRECTION('center_axis',(-1.,0.,0.));
#1528=DIRECTION('ref_axis',(0.,0.,1.));
#1529=DIRECTION('',(0.,0.,1.));
#1530=DIRECTION('',(0.,1.,0.));
#1531=DIRECTION('',(0.,1.,0.));
#1532=DIRECTION('center_axis',(0.,0.,-1.));
#1533=DIRECTION('ref_axis',(-1.,0.,0.));
#1534=DIRECTION('',(0.,-1.,0.));
#1535=DIRECTION('',(-1.,0.,0.));
#1536=DIRECTION('',(0.,1.,0.));
#1537=DIRECTION('',(0.,1.,0.));
#1538=DIRECTION('center_axis',(1.,0.,0.));
#1539=DIRECTION('ref_axis',(0.,0.,-1.));
#1540=DIRECTION('',(0.,-1.,0.));
#1541=DIRECTION('',(0.,0.,-1.));
#1542=DIRECTION('center_axis',(-1.,0.,0.));
#1543=DIRECTION('ref_axis',(0.,0.,1.));
#1544=DIRECTION('',(0.,1.,0.));
#1545=DIRECTION('',(0.,1.,0.));
#1546=DIRECTION('',(0.,0.,-1.));
#1547=DIRECTION('center_axis',(0.,0.,1.));
#1548=DIRECTION('ref_axis',(1.,0.,0.));
#1549=DIRECTION('',(-1.,0.,0.));
#1550=DIRECTION('',(0.,-1.,0.));
#1551=DIRECTION('',(1.,0.,0.));
#1552=DIRECTION('',(-0.507020126563394,0.86193421515777,0.));
#1553=DIRECTION('center_axis',(0.,-1.,0.));
#1554=DIRECTION('ref_axis',(1.,0.,0.));
#1555=DIRECTION('',(-1.,0.,0.));
#1556=DIRECTION('',(0.,0.,1.));
#1557=DIRECTION('',(1.,0.,0.));
#1558=DIRECTION('',(0.,0.,1.));
#1559=DIRECTION('',(1.,0.,0.));
#1560=DIRECTION('',(0.,0.,1.));
#1561=DIRECTION('',(1.,0.,0.));
#1562=DIRECTION('',(0.,0.,1.));
#1563=DIRECTION('center_axis',(1.,0.,0.));
#1564=DIRECTION('ref_axis',(0.,1.,0.));
#1565=DIRECTION('',(0.,1.,0.));
#1566=DIRECTION('',(0.,1.,0.));
#1567=DIRECTION('center_axis',(0.,-1.,0.));
#1568=DIRECTION('ref_axis',(1.,0.,0.));
#1569=DIRECTION('center_axis',(0.,-1.,0.));
#1570=DIRECTION('ref_axis',(1.,0.,0.));
#1571=DIRECTION('',(0.,0.,1.));
#1572=DIRECTION('',(1.,0.,0.));
#1573=DIRECTION('center_axis',(0.,-1.,0.));
#1574=DIRECTION('ref_axis',(1.,0.,0.));
#1575=DIRECTION('',(0.,0.,1.));
#1576=DIRECTION('center_axis',(-1.,0.,0.));
#1577=DIRECTION('ref_axis',(0.,-1.,0.));
#1578=DIRECTION('',(0.,-1.,0.));
#1579=DIRECTION('',(0.,1.,0.));
#1580=DIRECTION('center_axis',(0.,0.,1.));
#1581=DIRECTION('ref_axis',(1.,0.,0.));
#1582=DIRECTION('center_axis',(0.,-0.707106781186548,0.707106781186547));
#1583=DIRECTION('ref_axis',(0.,-0.707106781186547,-0.707106781186548));
#1584=DIRECTION('',(0.,0.707106781186547,0.707106781186548));
#1585=DIRECTION('',(1.,0.,0.));
#1586=DIRECTION('',(0.,-0.707106781186547,-0.707106781186548));
#1587=DIRECTION('center_axis',(-1.,0.,0.));
#1588=DIRECTION('ref_axis',(0.,0.,1.));
#1589=DIRECTION('',(0.,-0.707106781186547,0.707106781186548));
#1590=DIRECTION('',(0.,0.,1.));
#1591=DIRECTION('center_axis',(0.,-0.707106781186548,-0.707106781186547));
#1592=DIRECTION('ref_axis',(0.,0.707106781186547,-0.707106781186548));
#1593=DIRECTION('',(0.,0.707106781186547,-0.707106781186548));
#1594=DIRECTION('',(1.,0.,0.));
#1595=DIRECTION('center_axis',(0.,-1.,0.));
#1596=DIRECTION('ref_axis',(0.,0.,-1.));
#1597=DIRECTION('',(0.,0.,-1.));
#1598=DIRECTION('center_axis',(1.,0.,0.));
#1599=DIRECTION('ref_axis',(0.,0.,-1.));
#1600=DIRECTION('center_axis',(0.,-0.918669187580036,-0.395027750659416));
#1601=DIRECTION('ref_axis',(0.,0.395027750659416,-0.918669187580036));
#1602=DIRECTION('',(0.,0.395027750659416,-0.918669187580036));
#1603=DIRECTION('',(1.,0.,0.));
#1604=DIRECTION('center_axis',(0.,-1.,0.));
#1605=DIRECTION('ref_axis',(0.,0.,-1.));
#1606=DIRECTION('',(0.,0.,-1.));
#1607=DIRECTION('center_axis',(1.,0.,0.));
#1608=DIRECTION('ref_axis',(0.,0.,-1.));
#1609=DIRECTION('',(0.,1.,0.));
#1610=DIRECTION('center_axis',(0.,1.,0.));
#1611=DIRECTION('ref_axis',(1.,0.,0.));
#1612=DIRECTION('center_axis',(0.,1.,0.));
#1613=DIRECTION('ref_axis',(1.,0.,0.));
#1614=DIRECTION('',(0.,1.,0.));
#1615=DIRECTION('center_axis',(1.,0.,0.));
#1616=DIRECTION('ref_axis',(0.,0.,-1.));
#1617=DIRECTION('',(0.,-1.,0.));
#1618=DIRECTION('center_axis',(0.,0.,1.));
#1619=DIRECTION('ref_axis',(1.,0.,0.));
#1620=DIRECTION('',(-0.507020126563394,-0.86193421515777,0.));
#1621=DIRECTION('',(1.,0.,0.));
#1622=DIRECTION('',(0.,1.,0.));
#1623=DIRECTION('center_axis',(0.86193421515777,-0.507020126563394,0.));
#1624=DIRECTION('ref_axis',(0.507020126563394,0.86193421515777,0.));
#1625=DIRECTION('',(0.,0.,-1.));
#1626=DIRECTION('',(0.507020126563394,0.86193421515777,0.));
#1627=DIRECTION('center_axis',(-0.86193421515777,-0.507020126563394,0.));
#1628=DIRECTION('ref_axis',(0.507020126563394,-0.86193421515777,0.));
#1629=DIRECTION('',(0.,0.,1.));
#1630=DIRECTION('',(0.507020126563394,-0.86193421515777,0.));
#1631=DIRECTION('center_axis',(0.,0.,1.));
#1632=DIRECTION('ref_axis',(1.,0.,0.));
#1633=DIRECTION('',(1.,0.,0.));
#1634=DIRECTION('',(0.,-1.,0.));
#1635=DIRECTION('',(0.,1.,0.));
#1636=DIRECTION('',(1.,0.,0.));
#1637=DIRECTION('center_axis',(0.,-1.,0.));
#1638=DIRECTION('ref_axis',(1.,0.,0.));
#1639=DIRECTION('',(0.,0.,1.));
#1640=DIRECTION('center_axis',(1.,0.,0.));
#1641=DIRECTION('ref_axis',(0.,1.,0.));
#1642=DIRECTION('',(0.,0.,1.));
#1643=DIRECTION('center_axis',(0.,-1.,0.));
#1644=DIRECTION('ref_axis',(1.,0.,0.));
#1645=DIRECTION('center_axis',(-1.,0.,0.));
#1646=DIRECTION('ref_axis',(0.,-1.,0.));
#1647=CARTESIAN_POINT('',(0.,0.,0.));
#1648=CARTESIAN_POINT('Origin',(-50.,15.75,38.18));
#1649=CARTESIAN_POINT('',(-52.25,7.5,38.18));
#1650=CARTESIAN_POINT('Origin',(-50.,7.5,38.18));
#1651=CARTESIAN_POINT('',(-52.25,15.,38.18));
#1652=CARTESIAN_POINT('',(-52.25,15.75,38.18));
#1653=CARTESIAN_POINT('Origin',(-50.,15.,38.18));
#1654=CARTESIAN_POINT('Origin',(50.,15.75,38.18));
#1655=CARTESIAN_POINT('',(47.75,7.5,38.18));
#1656=CARTESIAN_POINT('Origin',(50.,7.5,38.18));
#1657=CARTESIAN_POINT('',(47.75,15.,38.18));
#1658=CARTESIAN_POINT('',(47.75,15.75,38.18));
#1659=CARTESIAN_POINT('Origin',(50.,15.,38.18));
#1660=CARTESIAN_POINT('Origin',(-50.,15.,38.18));
#1661=CARTESIAN_POINT('',(-52.8,15.,38.18));
#1662=CARTESIAN_POINT('Origin',(-50.,15.,38.18));
#1663=CARTESIAN_POINT('Origin',(-50.,19.5,38.18));
#1664=CARTESIAN_POINT('',(-52.8,24.,38.18));
#1665=CARTESIAN_POINT('',(-52.8,19.5,38.18));
#1666=CARTESIAN_POINT('Origin',(-50.,24.,38.18));
#1667=CARTESIAN_POINT('Origin',(50.,15.,38.18));
#1668=CARTESIAN_POINT('',(47.2,15.,38.18));
#1669=CARTESIAN_POINT('Origin',(50.,15.,38.18));
#1670=CARTESIAN_POINT('Origin',(50.,19.5,38.18));
#1671=CARTESIAN_POINT('',(47.2,24.,38.18));
#1672=CARTESIAN_POINT('',(47.2,19.5,38.18));
#1673=CARTESIAN_POINT('Origin',(50.,24.,38.18));
#1674=CARTESIAN_POINT('Origin',(40.,18.,29.));
#1675=CARTESIAN_POINT('',(40.,12.,50.));
#1676=CARTESIAN_POINT('',(40.,12.,8.));
#1677=CARTESIAN_POINT('',(40.,12.,18.5));
#1678=CARTESIAN_POINT('',(40.,24.,50.));
#1679=CARTESIAN_POINT('',(40.,24.,50.));
#1680=CARTESIAN_POINT('',(40.,24.,20.));
#1681=CARTESIAN_POINT('',(40.,24.,20.));
#1682=CARTESIAN_POINT('',(40.,12.,8.));
#1683=CARTESIAN_POINT('Origin',(47.5,24.,20.));
#1684=CARTESIAN_POINT('',(55.,24.,50.));
#1685=CARTESIAN_POINT('',(47.5,24.,50.));
#1686=CARTESIAN_POINT('',(55.,24.,20.));
#1687=CARTESIAN_POINT('',(55.,24.,20.));
#1688=CARTESIAN_POINT('',(47.5,24.,20.));
#1689=CARTESIAN_POINT('Origin',(47.5,12.,8.));
#1690=CARTESIAN_POINT('',(55.,12.,8.));
#1691=CARTESIAN_POINT('',(55.,12.,8.));
#1692=CARTESIAN_POINT('',(55.,12.,8.));
#1693=CARTESIAN_POINT('Origin',(-47.5,24.,20.));
#1694=CARTESIAN_POINT('',(-55.,24.,50.));
#1695=CARTESIAN_POINT('',(-40.,24.,50.));
#1696=CARTESIAN_POINT('',(-47.5,24.,50.));
#1697=CARTESIAN_POINT('',(-40.,24.,20.));
#1698=CARTESIAN_POINT('',(-40.,24.,20.));
#1699=CARTESIAN_POINT('',(-55.,24.,20.));
#1700=CARTESIAN_POINT('',(-47.5,24.,20.));
#1701=CARTESIAN_POINT('',(-55.,24.,20.));
#1702=CARTESIAN_POINT('Origin',(-47.5,12.,8.));
#1703=CARTESIAN_POINT('',(-40.,12.,8.));
#1704=CARTESIAN_POINT('',(-40.,12.,8.));
#1705=CARTESIAN_POINT('',(-55.,12.,8.));
#1706=CARTESIAN_POINT('',(55.,12.,8.));
#1707=CARTESIAN_POINT('',(-55.,12.,8.));
#1708=CARTESIAN_POINT('Origin',(-40.,18.,29.));
#1709=CARTESIAN_POINT('',(-40.,12.,50.));
#1710=CARTESIAN_POINT('',(-40.,12.,18.5));
#1711=CARTESIAN_POINT('',(-40.,24.,50.));
#1712=CARTESIAN_POINT('Origin',(55.,12.,8.));
#1713=CARTESIAN_POINT('',(55.,12.,8.));
#1714=CARTESIAN_POINT('',(55.,12.,50.));
#1715=CARTESIAN_POINT('',(-8.,12.,35.));
#1716=CARTESIAN_POINT('',(-8.,12.,27.));
#1717=CARTESIAN_POINT('',(-8.,12.,17.5));
#1718=CARTESIAN_POINT('',(8.,12.,27.));
#1719=CARTESIAN_POINT('',(31.5,12.,27.));
#1720=CARTESIAN_POINT('',(8.,12.,35.));
#1721=CARTESIAN_POINT('',(8.,12.,21.5));
#1722=CARTESIAN_POINT('',(0.,12.,43.));
#1723=CARTESIAN_POINT('',(22.5,12.,20.5));
#1724=CARTESIAN_POINT('',(1.00000000000001,12.,44.));
#1725=CARTESIAN_POINT('',(17.,12.,34.));
#1726=CARTESIAN_POINT('',(17.,12.,14.));
#1727=CARTESIAN_POINT('',(17.,12.,11.));
#1728=CARTESIAN_POINT('',(37.,12.,14.));
#1729=CARTESIAN_POINT('',(46.,12.,14.));
#1730=CARTESIAN_POINT('',(37.,12.,34.));
#1731=CARTESIAN_POINT('',(37.,12.,21.));
#1732=CARTESIAN_POINT('',(27.,12.,44.));
#1733=CARTESIAN_POINT('',(43.,12.,28.));
#1734=CARTESIAN_POINT('',(20.,12.,37.));
#1735=CARTESIAN_POINT('',(-37.,12.,34.));
#1736=CARTESIAN_POINT('',(-37.,12.,14.));
#1737=CARTESIAN_POINT('',(-37.,12.,11.));
#1738=CARTESIAN_POINT('',(-17.,12.,14.));
#1739=CARTESIAN_POINT('',(19.,12.,14.));
#1740=CARTESIAN_POINT('',(-17.,12.,34.));
#1741=CARTESIAN_POINT('',(-17.,12.,21.));
#1742=CARTESIAN_POINT('',(-27.,12.,44.));
#1743=CARTESIAN_POINT('',(2.5,12.,14.5));
#1744=CARTESIAN_POINT('',(-20.5,12.,50.5));
#1745=CARTESIAN_POINT('Origin',(-17.,9.75,34.));
#1746=CARTESIAN_POINT('',(-17.,7.5,34.));
#1747=CARTESIAN_POINT('',(-17.,7.5,14.));
#1748=CARTESIAN_POINT('',(-17.,7.5,21.));
#1749=CARTESIAN_POINT('',(-17.,9.75,34.));
#1750=CARTESIAN_POINT('',(-17.,9.75,14.));
#1751=CARTESIAN_POINT('Origin',(-17.,9.75,14.));
#1752=CARTESIAN_POINT('',(-37.,7.5,14.));
#1753=CARTESIAN_POINT('',(-36.,7.5,14.));
#1754=CARTESIAN_POINT('',(-37.,9.75,14.));
#1755=CARTESIAN_POINT('Origin',(-37.,9.75,14.));
#1756=CARTESIAN_POINT('',(-37.,7.5,34.));
#1757=CARTESIAN_POINT('',(-37.,7.5,11.));
#1758=CARTESIAN_POINT('',(-37.,9.75,34.));
#1759=CARTESIAN_POINT('Origin',(-27.,9.75,44.));
#1760=CARTESIAN_POINT('',(-27.,7.5,44.));
#1761=CARTESIAN_POINT('',(-25.,7.5,42.));
#1762=CARTESIAN_POINT('',(-27.,9.75,44.));
#1763=CARTESIAN_POINT('Origin',(-37.,9.75,34.));
#1764=CARTESIAN_POINT('',(-48.,7.5,23.));
#1765=CARTESIAN_POINT('Origin',(37.,9.75,34.));
#1766=CARTESIAN_POINT('',(37.,7.5,34.));
#1767=CARTESIAN_POINT('',(37.,7.5,14.));
#1768=CARTESIAN_POINT('',(37.,7.5,21.));
#1769=CARTESIAN_POINT('',(37.,9.75,34.));
#1770=CARTESIAN_POINT('',(37.,9.75,14.));
#1771=CARTESIAN_POINT('Origin',(37.,9.75,14.));
#1772=CARTESIAN_POINT('',(17.,7.5,14.));
#1773=CARTESIAN_POINT('',(-9.,7.5,14.));
#1774=CARTESIAN_POINT('',(17.,9.75,14.));
#1775=CARTESIAN_POINT('Origin',(17.,9.75,14.));
#1776=CARTESIAN_POINT('',(17.,7.5,34.));
#1777=CARTESIAN_POINT('',(17.,7.5,11.));
#1778=CARTESIAN_POINT('',(17.,9.75,34.));
#1779=CARTESIAN_POINT('Origin',(27.,9.75,44.));
#1780=CARTESIAN_POINT('',(27.,7.5,44.));
#1781=CARTESIAN_POINT('',(15.5,7.5,55.5));
#1782=CARTESIAN_POINT('',(27.,9.75,44.));
#1783=CARTESIAN_POINT('Origin',(17.,9.75,34.));
#1784=CARTESIAN_POINT('',(-7.5,7.5,9.5));
#1785=CARTESIAN_POINT('Origin',(0.,4.25,29.));
#1786=CARTESIAN_POINT('',(-4.,5.85,29.));
#1787=CARTESIAN_POINT('',(4.,5.85,29.));
#1788=CARTESIAN_POINT('',(0.,5.85,29.));
#1789=CARTESIAN_POINT('',(-4.,7.5,29.));
#1790=CARTESIAN_POINT('',(-4.,4.25,29.));
#1791=CARTESIAN_POINT('',(4.,7.5,29.));
#1792=CARTESIAN_POINT('',(0.,7.5,29.));
#1793=CARTESIAN_POINT('',(4.,4.25,29.));
#1794=CARTESIAN_POINT('Origin',(0.,10.5,34.5));
#1795=CARTESIAN_POINT('',(4.,4.25,34.5));
#1796=CARTESIAN_POINT('',(-4.,4.25,34.5));
#1797=CARTESIAN_POINT('',(0.,4.25,34.5));
#1798=CARTESIAN_POINT('',(4.,10.5,34.5));
#1799=CARTESIAN_POINT('',(4.,10.5,34.5));
#1800=CARTESIAN_POINT('',(-4.,10.5,34.5));
#1801=CARTESIAN_POINT('',(0.,10.5,34.5));
#1802=CARTESIAN_POINT('',(-4.,10.5,34.5));
#1803=CARTESIAN_POINT('Origin',(0.,10.5,32.));
#1804=CARTESIAN_POINT('',(4.,10.5,32.));
#1805=CARTESIAN_POINT('',(4.,10.5,32.));
#1806=CARTESIAN_POINT('',(-4.,10.5,32.));
#1807=CARTESIAN_POINT('',(0.,10.5,32.));
#1808=CARTESIAN_POINT('',(-4.,10.5,32.));
#1809=CARTESIAN_POINT('Origin',(0.,7.5,29.));
#1810=CARTESIAN_POINT('',(4.,7.5,29.));
#1811=CARTESIAN_POINT('',(-4.,7.5,29.));
#1812=CARTESIAN_POINT('Origin',(4.,5.75,10.));
#1813=CARTESIAN_POINT('',(4.,4.25,10.));
#1814=CARTESIAN_POINT('',(4.,4.25,9.));
#1815=CARTESIAN_POINT('',(4.,7.5,10.));
#1816=CARTESIAN_POINT('',(4.,5.75,10.));
#1817=CARTESIAN_POINT('',(4.,7.5,10.1627906976744));
#1818=CARTESIAN_POINT('',(4.,7.5,9.));
#1819=CARTESIAN_POINT('',(4.,5.85,14.));
#1820=CARTESIAN_POINT('',(4.,6.56799729935016,12.3302388387206));
#1821=CARTESIAN_POINT('',(4.,5.85,20.5));
#1822=CARTESIAN_POINT('Origin',(8.25,4.25,8.));
#1823=CARTESIAN_POINT('',(-4.,4.25,10.));
#1824=CARTESIAN_POINT('',(-4.,4.25,19.25));
#1825=CARTESIAN_POINT('',(-5.5,4.25,10.));
#1826=CARTESIAN_POINT('Origin',(-4.75,4.25,10.));
#1827=CARTESIAN_POINT('',(-5.5,4.25,30.));
#1828=CARTESIAN_POINT('',(-5.5,4.25,9.));
#1829=CARTESIAN_POINT('',(-8.25,4.25,30.));
#1830=CARTESIAN_POINT('',(4.125,4.25,30.));
#1831=CARTESIAN_POINT('',(-8.25,4.25,8.));
#1832=CARTESIAN_POINT('',(-8.25,4.25,8.));
#1833=CARTESIAN_POINT('',(8.25,4.25,8.));
#1834=CARTESIAN_POINT('',(4.125,4.25,8.));
#1835=CARTESIAN_POINT('',(8.25,4.25,30.));
#1836=CARTESIAN_POINT('',(8.25,4.25,8.));
#1837=CARTESIAN_POINT('',(5.5,4.25,30.));
#1838=CARTESIAN_POINT('',(4.125,4.25,30.));
#1839=CARTESIAN_POINT('',(5.5,4.25,10.));
#1840=CARTESIAN_POINT('',(5.5,4.25,19.25));
#1841=CARTESIAN_POINT('Origin',(4.75,4.25,10.));
#1842=CARTESIAN_POINT('',(-3.,4.25,22.45));
#1843=CARTESIAN_POINT('',(-3.,4.25,26.55));
#1844=CARTESIAN_POINT('',(-3.,4.25,16.25));
#1845=CARTESIAN_POINT('',(3.,4.25,26.55));
#1846=CARTESIAN_POINT('',(4.125,4.25,26.55));
#1847=CARTESIAN_POINT('',(3.,4.25,22.45));
#1848=CARTESIAN_POINT('',(3.,4.25,16.25));
#1849=CARTESIAN_POINT('',(4.125,4.25,22.45));
#1850=CARTESIAN_POINT('Origin',(0.,7.,35.));
#1851=CARTESIAN_POINT('',(5.5,7.,30.));
#1852=CARTESIAN_POINT('',(5.5,7.,27.));
#1853=CARTESIAN_POINT('',(5.5,7.,32.75));
#1854=CARTESIAN_POINT('',(8.,7.,30.));
#1855=CARTESIAN_POINT('',(0.,7.,30.));
#1856=CARTESIAN_POINT('',(8.,7.,27.));
#1857=CARTESIAN_POINT('',(8.,7.,27.));
#1858=CARTESIAN_POINT('',(-8.,7.,27.));
#1859=CARTESIAN_POINT('Origin',(0.,7.,35.));
#1860=CARTESIAN_POINT('',(-5.5,7.,27.));
#1861=CARTESIAN_POINT('',(-5.5,7.,30.));
#1862=CARTESIAN_POINT('',(-5.5,7.,22.5));
#1863=CARTESIAN_POINT('',(-8.,7.,27.));
#1864=CARTESIAN_POINT('',(-8.,7.,27.));
#1865=CARTESIAN_POINT('',(-8.,7.,30.));
#1866=CARTESIAN_POINT('',(-8.,7.,35.));
#1867=CARTESIAN_POINT('',(0.,7.,30.));
#1868=CARTESIAN_POINT('Origin',(-8.,9.75,35.));
#1869=CARTESIAN_POINT('',(0.,7.5,43.));
#1870=CARTESIAN_POINT('',(0.,9.75,43.));
#1871=CARTESIAN_POINT('',(-8.,7.5,35.));
#1872=CARTESIAN_POINT('',(-26.5,7.5,16.5));
#1873=CARTESIAN_POINT('',(-8.,9.75,35.));
#1874=CARTESIAN_POINT('Origin',(0.,9.75,43.));
#1875=CARTESIAN_POINT('',(8.,7.5,35.));
#1876=CARTESIAN_POINT('',(8.,9.75,35.));
#1877=CARTESIAN_POINT('',(-5.,7.5,48.));
#1878=CARTESIAN_POINT('Origin',(-8.,9.75,27.));
#1879=CARTESIAN_POINT('',(-8.,7.5,30.));
#1880=CARTESIAN_POINT('',(-8.,7.5,17.5));
#1881=CARTESIAN_POINT('',(-8.,6.8125,30.));
#1882=CARTESIAN_POINT('',(-8.,9.75,27.));
#1883=CARTESIAN_POINT('Origin',(8.,9.75,27.));
#1884=CARTESIAN_POINT('',(-5.5,7.5,27.));
#1885=CARTESIAN_POINT('',(-5.5,7.75,27.));
#1886=CARTESIAN_POINT('',(5.5,7.5,27.));
#1887=CARTESIAN_POINT('',(-23.5,7.5,27.));
#1888=CARTESIAN_POINT('',(5.5,7.75,27.));
#1889=CARTESIAN_POINT('',(8.,9.75,27.));
#1890=CARTESIAN_POINT('Origin',(8.,9.75,35.));
#1891=CARTESIAN_POINT('',(8.,7.5,30.));
#1892=CARTESIAN_POINT('',(8.,6.8125,30.));
#1893=CARTESIAN_POINT('',(8.,7.5,21.5));
#1894=CARTESIAN_POINT('Origin',(-5.5,5.75,10.));
#1895=CARTESIAN_POINT('',(-5.5,4.8125,30.));
#1896=CARTESIAN_POINT('',(-5.5,7.5,10.));
#1897=CARTESIAN_POINT('',(-5.5,5.75,10.));
#1898=CARTESIAN_POINT('',(-5.5,7.5,9.));
#1899=CARTESIAN_POINT('Origin',(0.,3.875,30.));
#1900=CARTESIAN_POINT('',(-13.,7.5,30.));
#1901=CARTESIAN_POINT('',(13.,7.5,30.));
#1902=CARTESIAN_POINT('',(-13.,0.25,30.));
#1903=CARTESIAN_POINT('',(-13.,7.5,30.));
#1904=CARTESIAN_POINT('',(-5.89705882352941,0.25,30.));
#1905=CARTESIAN_POINT('',(-13.,0.25,30.));
#1906=CARTESIAN_POINT('',(-7.10764781491003,2.30800128534704,30.));
#1907=CARTESIAN_POINT('Origin',(-55.,7.5,8.));
#1908=CARTESIAN_POINT('',(13.,7.5,30.));
#1909=CARTESIAN_POINT('',(13.,7.5,30.));
#1910=CARTESIAN_POINT('',(13.,7.5,8.));
#1911=CARTESIAN_POINT('',(13.,7.5,8.));
#1912=CARTESIAN_POINT('',(55.,7.5,8.));
#1913=CARTESIAN_POINT('',(-55.,7.5,8.));
#1914=CARTESIAN_POINT('',(55.,7.5,50.));
#1915=CARTESIAN_POINT('',(55.,7.5,8.));
#1916=CARTESIAN_POINT('',(-55.,7.5,50.));
#1917=CARTESIAN_POINT('',(-55.,7.5,50.));
#1918=CARTESIAN_POINT('',(-55.,7.5,8.));
#1919=CARTESIAN_POINT('',(-55.,7.5,8.));
#1920=CARTESIAN_POINT('',(-13.,7.5,8.));
#1921=CARTESIAN_POINT('',(-55.,7.5,8.));
#1922=CARTESIAN_POINT('',(-13.,7.5,8.));
#1923=CARTESIAN_POINT('Origin',(55.,7.5,8.));
#1924=CARTESIAN_POINT('',(55.,7.5,8.));
#1925=CARTESIAN_POINT('',(55.,7.5,50.));
#1926=CARTESIAN_POINT('Origin',(-55.,7.5,8.));
#1927=CARTESIAN_POINT('',(-4.,7.5,10.));
#1928=CARTESIAN_POINT('Origin',(-4.75,7.5,10.));
#1929=CARTESIAN_POINT('',(-4.,7.5,10.1627906976744));
#1930=CARTESIAN_POINT('',(-4.,7.5,19.25));
#1931=CARTESIAN_POINT('',(6.5,7.5,10.1627906976744));
#1932=CARTESIAN_POINT('',(5.5,7.5,10.));
#1933=CARTESIAN_POINT('Origin',(4.75,7.5,10.));
#1934=CARTESIAN_POINT('',(5.5,7.5,19.25));
#1935=CARTESIAN_POINT('Origin',(-55.,12.,8.));
#1936=CARTESIAN_POINT('',(-55.,12.,8.));
#1937=CARTESIAN_POINT('',(-55.,24.,50.));
#1938=CARTESIAN_POINT('Origin',(0.,9.75,50.));
#1939=CARTESIAN_POINT('Origin',(0.,4.75,27.05));
#1940=CARTESIAN_POINT('',(-3.,3.1,25.4));
#1941=CARTESIAN_POINT('',(-3.,3.1,25.4));
#1942=CARTESIAN_POINT('',(3.,3.1,25.4));
#1943=CARTESIAN_POINT('',(0.,3.1,25.4));
#1944=CARTESIAN_POINT('',(3.,3.1,25.4));
#1945=CARTESIAN_POINT('Origin',(-3.,3.925,24.5));
#1946=CARTESIAN_POINT('',(-3.,3.1,23.6));
#1947=CARTESIAN_POINT('',(-3.,4.75,21.95));
#1948=CARTESIAN_POINT('',(-3.,3.1,23.6));
#1949=CARTESIAN_POINT('Origin',(0.,3.1,23.6));
#1950=CARTESIAN_POINT('',(3.,3.1,23.6));
#1951=CARTESIAN_POINT('',(3.,4.75,21.95));
#1952=CARTESIAN_POINT('',(0.,3.1,23.6));
#1953=CARTESIAN_POINT('Origin',(0.,3.1,25.4));
#1954=CARTESIAN_POINT('',(3.,3.1,23.6));
#1955=CARTESIAN_POINT('Origin',(3.,3.925,24.5));
#1956=CARTESIAN_POINT('Origin',(0.,5.85,14.));
#1957=CARTESIAN_POINT('',(-4.,5.85,14.));
#1958=CARTESIAN_POINT('',(-4.,2.84827411595915,20.9807578698624));
#1959=CARTESIAN_POINT('',(0.,5.85,14.));
#1960=CARTESIAN_POINT('Origin',(0.,5.85,31.));
#1961=CARTESIAN_POINT('',(-4.,5.85,30.75));
#1962=CARTESIAN_POINT('Origin',(-4.,5.75,30.5));
#1963=CARTESIAN_POINT('',(-4.,5.75,10.));
#1964=CARTESIAN_POINT('Origin',(-4.75,5.75,10.));
#1965=CARTESIAN_POINT('Origin',(4.75,5.75,10.));
#1966=CARTESIAN_POINT('',(5.5,5.75,10.));
#1967=CARTESIAN_POINT('Origin',(5.5,5.75,30.5));
#1968=CARTESIAN_POINT('',(5.5,4.8125,30.));
#1969=CARTESIAN_POINT('Origin',(0.,3.875,30.));
#1970=CARTESIAN_POINT('',(5.89705882352941,0.25,30.));
#1971=CARTESIAN_POINT('',(5.5635301678512,-0.316998714652956,30.));
#1972=CARTESIAN_POINT('',(13.,0.25,30.));
#1973=CARTESIAN_POINT('',(-13.,0.25,30.));
#1974=CARTESIAN_POINT('',(13.,0.25,30.));
#1975=CARTESIAN_POINT('Origin',(5.16176470588235,-1.,8.));
#1976=CARTESIAN_POINT('',(5.89705882352941,0.25,8.));
#1977=CARTESIAN_POINT('',(5.89705882352941,0.25,8.));
#1978=CARTESIAN_POINT('',(5.5635301678512,-0.316998714652956,8.));
#1979=CARTESIAN_POINT('Origin',(-8.25,4.25,8.));
#1980=CARTESIAN_POINT('',(-5.89705882352941,0.25,8.));
#1981=CARTESIAN_POINT('',(-5.89705882352941,0.25,8.));
#1982=CARTESIAN_POINT('',(-7.10764781491003,2.30800128534704,8.));
#1983=CARTESIAN_POINT('Origin',(0.,3.875,8.));
#1984=CARTESIAN_POINT('',(-13.,0.25,8.));
#1985=CARTESIAN_POINT('',(-13.,0.25,8.));
#1986=CARTESIAN_POINT('',(-13.,7.5,8.));
#1987=CARTESIAN_POINT('',(13.,0.25,8.));
#1988=CARTESIAN_POINT('',(13.,0.25,8.));
#1989=CARTESIAN_POINT('',(-13.,0.25,8.));
#1990=CARTESIAN_POINT('Origin',(-13.,0.25,8.));
#1991=CARTESIAN_POINT('',(-13.,0.25,8.));
#1992=CARTESIAN_POINT('Origin',(13.,0.25,8.));
#1993=CARTESIAN_POINT('',(13.,0.25,8.));
#1994=CARTESIAN_POINT('Origin',(-13.,0.25,8.));
#1995=CARTESIAN_POINT('Origin',(-13.,7.5,8.));
#1996=UNCERTAINTY_MEASURE_WITH_UNIT(LENGTH_MEASURE(0.01),#2000,
'DISTANCE_ACCURACY_VALUE',
'Maximum model space distance between geometric entities at asserted c
onnectivities');
#1997=UNCERTAINTY_MEASURE_WITH_UNIT(LENGTH_MEASURE(0.01),#2000,
'DISTANCE_ACCURACY_VALUE',
'Maximum model space distance between geometric entities at asserted c
onnectivities');
#1998=(
GEOMETRIC_REPRESENTATION_CONTEXT(3)
GLOBAL_UNCERTAINTY_ASSIGNED_CONTEXT((#1996))
GLOBAL_UNIT_ASSIGNED_CONTEXT((#2000,#2002,#2003))
REPRESENTATION_CONTEXT('','3D')
);
#1999=(
GEOMETRIC_REPRESENTATION_CONTEXT(3)
GLOBAL_UNCERTAINTY_ASSIGNED_CONTEXT((#1997))
GLOBAL_UNIT_ASSIGNED_CONTEXT((#2000,#2002,#2003))
REPRESENTATION_CONTEXT('','3D')
);
#2000=(
LENGTH_UNIT()
NAMED_UNIT(*)
SI_UNIT(.MILLI.,.METRE.)
);
#2001=(
LENGTH_UNIT()
NAMED_UNIT(*)
SI_UNIT($,.METRE.)
);
#2002=(
NAMED_UNIT(*)
PLANE_ANGLE_UNIT()
SI_UNIT($,.RADIAN.)
);
#2003=(
NAMED_UNIT(*)
SI_UNIT($,.STERADIAN.)
SOLID_ANGLE_UNIT()
);
#2004=SHAPE_DEFINITION_REPRESENTATION(#2005,#2006);
#2005=PRODUCT_DEFINITION_SHAPE('',$,#2008);
#2006=SHAPE_REPRESENTATION('',(#1262),#1998);
#2007=PRODUCT_DEFINITION_CONTEXT('part definition',#2012,'design');
#2008=PRODUCT_DEFINITION('(Nicht gespeichert)','(Nicht gespeichert)',#2009,
#2007);
#2009=PRODUCT_DEFINITION_FORMATION('',$,#2014);
#2010=PRODUCT_RELATED_PRODUCT_CATEGORY('(Nicht gespeichert)',
'(Nicht gespeichert)',(#2014));
#2011=APPLICATION_PROTOCOL_DEFINITION('international standard',
'automotive_design',2009,#2012);
#2012=APPLICATION_CONTEXT(
'Core Data for Automotive Mechanical Design Process');
#2013=PRODUCT_CONTEXT('part definition',#2012,'mechanical');
#2014=PRODUCT('(Nicht gespeichert)','(Nicht gespeichert)',$,(#2013));
#2015=PRESENTATION_STYLE_ASSIGNMENT((#2016));
#2016=SURFACE_STYLE_USAGE(.BOTH.,#2017);
#2017=SURFACE_SIDE_STYLE('',(#2018));
#2018=SURFACE_STYLE_FILL_AREA(#2019);
#2019=FILL_AREA_STYLE('Stahl - satiniert',(#2020));
#2020=FILL_AREA_STYLE_COLOUR('Stahl - satiniert',#2021);
#2021=COLOUR_RGB('Stahl - satiniert',0.627450980392157,0.627450980392157,
0.627450980392157);
ENDSEC;
END-ISO-10303-21;
