ISO-10303-21;
HEADER;
/* Generated by software containing ST-Developer
 * from STEP Tools, Inc. (www.steptools.com) 
 */

FILE_DESCRIPTION(
/* description */ (''),
/* implementation_level */ '2;1');

FILE_NAME(
/* name */ 'shunt_halter.step',
/* time_stamp */ '2026-08-14T12:12:04+02:00',
/* author */ (''),
/* organization */ (''),
/* preprocessor_version */ 'ST-DEVELOPER v20.1',
/* originating_system */ 'Autodesk Translation Framework v15.8.0.0',
/* authorisation */ '');

FILE_SCHEMA (('AUTOMOTIVE_DESIGN { 1 0 10303 214 3 1 1 }'));
ENDSEC;

DATA;
#10=MECHANICAL_DESIGN_GEOMETRIC_PRESENTATION_REPRESENTATION('',(#13),#1748);
#11=SHAPE_REPRESENTATION_RELATIONSHIP('SRR','None',#1755,#12);
#12=ADVANCED_BREP_SHAPE_REPRESENTATION('',(#14),#1747);
#13=STYLED_ITEM('',(#1764),#14);
#14=MANIFOLD_SOLID_BREP('shunt_halter',#1084);
#15=FACE_BOUND('',#131,.T.);
#16=FACE_BOUND('',#134,.T.);
#17=FACE_BOUND('',#139,.T.);
#18=FACE_BOUND('',#146,.T.);
#19=FACE_BOUND('',#155,.T.);
#20=FACE_BOUND('',#165,.T.);
#21=FACE_BOUND('',#168,.T.);
#22=PLANE('',#1104);
#23=PLANE('',#1108);
#24=PLANE('',#1112);
#25=PLANE('',#1113);
#26=PLANE('',#1114);
#27=PLANE('',#1115);
#28=PLANE('',#1116);
#29=PLANE('',#1117);
#30=PLANE('',#1118);
#31=PLANE('',#1119);
#32=PLANE('',#1120);
#33=PLANE('',#1121);
#34=PLANE('',#1122);
#35=PLANE('',#1123);
#36=PLANE('',#1124);
#37=PLANE('',#1125);
#38=PLANE('',#1126);
#39=PLANE('',#1127);
#40=PLANE('',#1128);
#41=PLANE('',#1131);
#42=PLANE('',#1132);
#43=PLANE('',#1133);
#44=PLANE('',#1134);
#45=PLANE('',#1135);
#46=PLANE('',#1136);
#47=PLANE('',#1137);
#48=PLANE('',#1138);
#49=PLANE('',#1139);
#50=PLANE('',#1140);
#51=PLANE('',#1143);
#52=PLANE('',#1144);
#53=PLANE('',#1145);
#54=PLANE('',#1146);
#55=PLANE('',#1147);
#56=PLANE('',#1148);
#57=PLANE('',#1149);
#58=PLANE('',#1150);
#59=PLANE('',#1151);
#60=PLANE('',#1152);
#61=PLANE('',#1153);
#62=PLANE('',#1154);
#63=PLANE('',#1157);
#64=PLANE('',#1158);
#65=PLANE('',#1159);
#66=PLANE('',#1160);
#67=PLANE('',#1161);
#68=PLANE('',#1162);
#69=PLANE('',#1163);
#70=PLANE('',#1164);
#71=PLANE('',#1165);
#72=FACE_OUTER_BOUND('',#128,.T.);
#73=FACE_OUTER_BOUND('',#129,.T.);
#74=FACE_OUTER_BOUND('',#130,.T.);
#75=FACE_OUTER_BOUND('',#132,.T.);
#76=FACE_OUTER_BOUND('',#133,.T.);
#77=FACE_OUTER_BOUND('',#135,.T.);
#78=FACE_OUTER_BOUND('',#136,.T.);
#79=FACE_OUTER_BOUND('',#137,.T.);
#80=FACE_OUTER_BOUND('',#138,.T.);
#81=FACE_OUTER_BOUND('',#140,.T.);
#82=FACE_OUTER_BOUND('',#141,.T.);
#83=FACE_OUTER_BOUND('',#142,.T.);
#84=FACE_OUTER_BOUND('',#143,.T.);
#85=FACE_OUTER_BOUND('',#144,.T.);
#86=FACE_OUTER_BOUND('',#145,.T.);
#87=FACE_OUTER_BOUND('',#147,.T.);
#88=FACE_OUTER_BOUND('',#148,.T.);
#89=FACE_OUTER_BOUND('',#149,.T.);
#90=FACE_OUTER_BOUND('',#150,.T.);
#91=FACE_OUTER_BOUND('',#151,.T.);
#92=FACE_OUTER_BOUND('',#152,.T.);
#93=FACE_OUTER_BOUND('',#153,.T.);
#94=FACE_OUTER_BOUND('',#154,.T.);
#95=FACE_OUTER_BOUND('',#156,.T.);
#96=FACE_OUTER_BOUND('',#157,.T.);
#97=FACE_OUTER_BOUND('',#158,.T.);
#98=FACE_OUTER_BOUND('',#159,.T.);
#99=FACE_OUTER_BOUND('',#160,.T.);
#100=FACE_OUTER_BOUND('',#161,.T.);
#101=FACE_OUTER_BOUND('',#162,.T.);
#102=FACE_OUTER_BOUND('',#163,.T.);
#103=FACE_OUTER_BOUND('',#164,.T.);
#104=FACE_OUTER_BOUND('',#166,.T.);
#105=FACE_OUTER_BOUND('',#167,.T.);
#106=FACE_OUTER_BOUND('',#169,.T.);
#107=FACE_OUTER_BOUND('',#170,.T.);
#108=FACE_OUTER_BOUND('',#171,.T.);
#109=FACE_OUTER_BOUND('',#172,.T.);
#110=FACE_OUTER_BOUND('',#173,.T.);
#111=FACE_OUTER_BOUND('',#174,.T.);
#112=FACE_OUTER_BOUND('',#175,.T.);
#113=FACE_OUTER_BOUND('',#176,.T.);
#114=FACE_OUTER_BOUND('',#177,.T.);
#115=FACE_OUTER_BOUND('',#178,.T.);
#116=FACE_OUTER_BOUND('',#179,.T.);
#117=FACE_OUTER_BOUND('',#180,.T.);
#118=FACE_OUTER_BOUND('',#181,.T.);
#119=FACE_OUTER_BOUND('',#182,.T.);
#120=FACE_OUTER_BOUND('',#183,.T.);
#121=FACE_OUTER_BOUND('',#184,.T.);
#122=FACE_OUTER_BOUND('',#185,.T.);
#123=FACE_OUTER_BOUND('',#186,.T.);
#124=FACE_OUTER_BOUND('',#187,.T.);
#125=FACE_OUTER_BOUND('',#188,.T.);
#126=FACE_OUTER_BOUND('',#189,.T.);
#127=FACE_OUTER_BOUND('',#190,.T.);
#128=EDGE_LOOP('',(#724,#725,#726,#727));
#129=EDGE_LOOP('',(#728,#729,#730,#731));
#130=EDGE_LOOP('',(#732));
#131=EDGE_LOOP('',(#733));
#132=EDGE_LOOP('',(#734,#735,#736,#737));
#133=EDGE_LOOP('',(#738));
#134=EDGE_LOOP('',(#739));
#135=EDGE_LOOP('',(#740,#741,#742,#743));
#136=EDGE_LOOP('',(#744,#745,#746,#747));
#137=EDGE_LOOP('',(#748,#749,#750,#751));
#138=EDGE_LOOP('',(#752,#753,#754,#755));
#139=EDGE_LOOP('',(#756));
#140=EDGE_LOOP('',(#757,#758,#759,#760));
#141=EDGE_LOOP('',(#761,#762,#763,#764));
#142=EDGE_LOOP('',(#765,#766,#767,#768,#769,#770,#771,#772,#773,#774,#775,
#776,#777,#778,#779,#780));
#143=EDGE_LOOP('',(#781,#782,#783,#784));
#144=EDGE_LOOP('',(#785,#786,#787,#788));
#145=EDGE_LOOP('',(#789,#790,#791,#792));
#146=EDGE_LOOP('',(#793));
#147=EDGE_LOOP('',(#794,#795,#796,#797));
#148=EDGE_LOOP('',(#798,#799,#800,#801));
#149=EDGE_LOOP('',(#802,#803,#804,#805));
#150=EDGE_LOOP('',(#806,#807,#808,#809));
#151=EDGE_LOOP('',(#810,#811,#812,#813));
#152=EDGE_LOOP('',(#814,#815,#816,#817));
#153=EDGE_LOOP('',(#818,#819,#820,#821,#822,#823,#824,#825,#826));
#154=EDGE_LOOP('',(#827,#828,#829,#830,#831,#832,#833,#834,#835,#836,#837,
#838));
#155=EDGE_LOOP('',(#839,#840,#841,#842));
#156=EDGE_LOOP('',(#843,#844,#845,#846,#847,#848));
#157=EDGE_LOOP('',(#849,#850,#851,#852));
#158=EDGE_LOOP('',(#853,#854,#855,#856,#857,#858));
#159=EDGE_LOOP('',(#859,#860,#861,#862,#863,#864,#865,#866));
#160=EDGE_LOOP('',(#867,#868,#869,#870));
#161=EDGE_LOOP('',(#871,#872,#873,#874,#875,#876,#877,#878));
#162=EDGE_LOOP('',(#879,#880,#881,#882));
#163=EDGE_LOOP('',(#883,#884,#885,#886));
#164=EDGE_LOOP('',(#887,#888,#889,#890,#891,#892));
#165=EDGE_LOOP('',(#893));
#166=EDGE_LOOP('',(#894,#895,#896,#897,#898,#899,#900,#901));
#167=EDGE_LOOP('',(#902,#903,#904,#905,#906,#907));
#168=EDGE_LOOP('',(#908));
#169=EDGE_LOOP('',(#909,#910,#911,#912));
#170=EDGE_LOOP('',(#913,#914,#915,#916));
#171=EDGE_LOOP('',(#917,#918,#919,#920));
#172=EDGE_LOOP('',(#921,#922,#923,#924));
#173=EDGE_LOOP('',(#925,#926,#927,#928));
#174=EDGE_LOOP('',(#929,#930,#931,#932));
#175=EDGE_LOOP('',(#933,#934,#935,#936));
#176=EDGE_LOOP('',(#937,#938,#939,#940));
#177=EDGE_LOOP('',(#941,#942,#943,#944));
#178=EDGE_LOOP('',(#945,#946,#947,#948,#949,#950,#951,#952,#953));
#179=EDGE_LOOP('',(#954,#955,#956,#957,#958,#959));
#180=EDGE_LOOP('',(#960,#961,#962,#963));
#181=EDGE_LOOP('',(#964,#965,#966,#967));
#182=EDGE_LOOP('',(#968,#969,#970,#971,#972,#973));
#183=EDGE_LOOP('',(#974,#975,#976,#977,#978,#979,#980,#981));
#184=EDGE_LOOP('',(#982,#983,#984,#985));
#185=EDGE_LOOP('',(#986,#987,#988,#989));
#186=EDGE_LOOP('',(#990,#991,#992,#993,#994,#995,#996,#997,#998,#999,#1000,
#1001,#1002,#1003,#1004,#1005));
#187=EDGE_LOOP('',(#1006,#1007,#1008,#1009));
#188=EDGE_LOOP('',(#1010,#1011,#1012,#1013));
#189=EDGE_LOOP('',(#1014,#1015,#1016,#1017));
#190=EDGE_LOOP('',(#1018,#1019,#1020,#1021));
#191=LINE('',#1446,#328);
#192=LINE('',#1452,#329);
#193=LINE('',#1459,#330);
#194=LINE('',#1466,#331);
#195=LINE('',#1471,#332);
#196=LINE('',#1473,#333);
#197=LINE('',#1475,#334);
#198=LINE('',#1476,#335);
#199=LINE('',#1479,#336);
#200=LINE('',#1481,#337);
#201=LINE('',#1482,#338);
#202=LINE('',#1485,#339);
#203=LINE('',#1486,#340);
#204=LINE('',#1489,#341);
#205=LINE('',#1490,#342);
#206=LINE('',#1492,#343);
#207=LINE('',#1495,#344);
#208=LINE('',#1497,#345);
#209=LINE('',#1499,#346);
#210=LINE('',#1501,#347);
#211=LINE('',#1503,#348);
#212=LINE('',#1505,#349);
#213=LINE('',#1507,#350);
#214=LINE('',#1509,#351);
#215=LINE('',#1511,#352);
#216=LINE('',#1513,#353);
#217=LINE('',#1515,#354);
#218=LINE('',#1517,#355);
#219=LINE('',#1518,#356);
#220=LINE('',#1521,#357);
#221=LINE('',#1523,#358);
#222=LINE('',#1524,#359);
#223=LINE('',#1527,#360);
#224=LINE('',#1528,#361);
#225=LINE('',#1531,#362);
#226=LINE('',#1532,#363);
#227=LINE('',#1534,#364);
#228=LINE('',#1535,#365);
#229=LINE('',#1540,#366);
#230=LINE('',#1542,#367);
#231=LINE('',#1544,#368);
#232=LINE('',#1545,#369);
#233=LINE('',#1549,#370);
#234=LINE('',#1551,#371);
#235=LINE('',#1553,#372);
#236=LINE('',#1554,#373);
#237=LINE('',#1557,#374);
#238=LINE('',#1559,#375);
#239=LINE('',#1560,#376);
#240=LINE('',#1562,#377);
#241=LINE('',#1563,#378);
#242=LINE('',#1566,#379);
#243=LINE('',#1568,#380);
#244=LINE('',#1570,#381);
#245=LINE('',#1572,#382);
#246=LINE('',#1573,#383);
#247=LINE('',#1576,#384);
#248=LINE('',#1580,#385);
#249=LINE('',#1582,#386);
#250=LINE('',#1584,#387);
#251=LINE('',#1586,#388);
#252=LINE('',#1588,#389);
#253=LINE('',#1590,#390);
#254=LINE('',#1592,#391);
#255=LINE('',#1596,#392);
#256=LINE('',#1598,#393);
#257=LINE('',#1600,#394);
#258=LINE('',#1601,#395);
#259=LINE('',#1605,#396);
#260=LINE('',#1607,#397);
#261=LINE('',#1608,#398);
#262=LINE('',#1610,#399);
#263=LINE('',#1611,#400);
#264=LINE('',#1615,#401);
#265=LINE('',#1617,#402);
#266=LINE('',#1619,#403);
#267=LINE('',#1620,#404);
#268=LINE('',#1622,#405);
#269=LINE('',#1624,#406);
#270=LINE('',#1626,#407);
#271=LINE('',#1627,#408);
#272=LINE('',#1631,#409);
#273=LINE('',#1633,#410);
#274=LINE('',#1634,#411);
#275=LINE('',#1635,#412);
#276=LINE('',#1638,#413);
#277=LINE('',#1639,#414);
#278=LINE('',#1642,#415);
#279=LINE('',#1644,#416);
#280=LINE('',#1646,#417);
#281=LINE('',#1647,#418);
#282=LINE('',#1648,#419);
#283=LINE('',#1651,#420);
#284=LINE('',#1652,#421);
#285=LINE('',#1655,#422);
#286=LINE('',#1656,#423);
#287=LINE('',#1659,#424);
#288=LINE('',#1661,#425);
#289=LINE('',#1663,#426);
#290=LINE('',#1664,#427);
#291=LINE('',#1667,#428);
#292=LINE('',#1671,#429);
#293=LINE('',#1672,#430);
#294=LINE('',#1675,#431);
#295=LINE('',#1678,#432);
#296=LINE('',#1680,#433);
#297=LINE('',#1681,#434);
#298=LINE('',#1683,#435);
#299=LINE('',#1685,#436);
#300=LINE('',#1688,#437);
#301=LINE('',#1690,#438);
#302=LINE('',#1691,#439);
#303=LINE('',#1694,#440);
#304=LINE('',#1695,#441);
#305=LINE('',#1698,#442);
#306=LINE('',#1699,#443);
#307=LINE('',#1701,#444);
#308=LINE('',#1705,#445);
#309=LINE('',#1706,#446);
#310=LINE('',#1708,#447);
#311=LINE('',#1710,#448);
#312=LINE('',#1712,#449);
#313=LINE('',#1715,#450);
#314=LINE('',#1717,#451);
#315=LINE('',#1720,#452);
#316=LINE('',#1722,#453);
#317=LINE('',#1723,#454);
#318=LINE('',#1726,#455);
#319=LINE('',#1727,#456);
#320=LINE('',#1730,#457);
#321=LINE('',#1731,#458);
#322=LINE('',#1734,#459);
#323=LINE('',#1735,#460);
#324=LINE('',#1737,#461);
#325=LINE('',#1738,#462);
#326=LINE('',#1740,#463);
#327=LINE('',#1742,#464);
#328=VECTOR('',#1172,2.25);
#329=VECTOR('',#1179,2.25);
#330=VECTOR('',#1188,2.8);
#331=VECTOR('',#1197,2.8);
#332=VECTOR('',#1202,10.);
#333=VECTOR('',#1203,10.);
#334=VECTOR('',#1204,10.);
#335=VECTOR('',#1205,10.);
#336=VECTOR('',#1208,10.);
#337=VECTOR('',#1209,10.);
#338=VECTOR('',#1210,10.);
#339=VECTOR('',#1213,10.);
#340=VECTOR('',#1214,10.);
#341=VECTOR('',#1217,10.);
#342=VECTOR('',#1218,10.);
#343=VECTOR('',#1221,10.);
#344=VECTOR('',#1224,10.);
#345=VECTOR('',#1225,10.);
#346=VECTOR('',#1226,10.);
#347=VECTOR('',#1227,10.);
#348=VECTOR('',#1228,10.);
#349=VECTOR('',#1229,10.);
#350=VECTOR('',#1230,10.);
#351=VECTOR('',#1231,10.);
#352=VECTOR('',#1232,10.);
#353=VECTOR('',#1233,10.);
#354=VECTOR('',#1234,10.);
#355=VECTOR('',#1235,10.);
#356=VECTOR('',#1236,10.);
#357=VECTOR('',#1239,10.);
#358=VECTOR('',#1240,10.);
#359=VECTOR('',#1241,10.);
#360=VECTOR('',#1244,10.);
#361=VECTOR('',#1245,10.);
#362=VECTOR('',#1248,10.);
#363=VECTOR('',#1249,10.);
#364=VECTOR('',#1252,10.);
#365=VECTOR('',#1253,10.);
#366=VECTOR('',#1258,10.);
#367=VECTOR('',#1259,10.);
#368=VECTOR('',#1260,10.);
#369=VECTOR('',#1261,10.);
#370=VECTOR('',#1264,10.);
#371=VECTOR('',#1265,10.);
#372=VECTOR('',#1266,10.);
#373=VECTOR('',#1267,10.);
#374=VECTOR('',#1270,10.);
#375=VECTOR('',#1271,10.);
#376=VECTOR('',#1272,10.);
#377=VECTOR('',#1275,10.);
#378=VECTOR('',#1276,10.);
#379=VECTOR('',#1279,10.);
#380=VECTOR('',#1280,10.);
#381=VECTOR('',#1281,10.);
#382=VECTOR('',#1282,10.);
#383=VECTOR('',#1283,10.);
#384=VECTOR('',#1286,10.);
#385=VECTOR('',#1289,10.);
#386=VECTOR('',#1290,10.);
#387=VECTOR('',#1291,10.);
#388=VECTOR('',#1292,10.);
#389=VECTOR('',#1293,10.);
#390=VECTOR('',#1294,10.);
#391=VECTOR('',#1295,10.);
#392=VECTOR('',#1298,10.);
#393=VECTOR('',#1299,10.);
#394=VECTOR('',#1300,10.);
#395=VECTOR('',#1301,10.);
#396=VECTOR('',#1304,10.);
#397=VECTOR('',#1305,10.);
#398=VECTOR('',#1306,10.);
#399=VECTOR('',#1307,10.);
#400=VECTOR('',#1308,10.);
#401=VECTOR('',#1311,10.);
#402=VECTOR('',#1312,10.);
#403=VECTOR('',#1313,10.);
#404=VECTOR('',#1314,10.);
#405=VECTOR('',#1317,10.);
#406=VECTOR('',#1318,10.);
#407=VECTOR('',#1319,10.);
#408=VECTOR('',#1320,10.);
#409=VECTOR('',#1323,10.);
#410=VECTOR('',#1324,10.);
#411=VECTOR('',#1325,10.);
#412=VECTOR('',#1326,10.);
#413=VECTOR('',#1329,10.);
#414=VECTOR('',#1330,10.);
#415=VECTOR('',#1333,10.);
#416=VECTOR('',#1334,10.);
#417=VECTOR('',#1335,10.);
#418=VECTOR('',#1336,10.);
#419=VECTOR('',#1337,10.);
#420=VECTOR('',#1340,10.);
#421=VECTOR('',#1341,10.);
#422=VECTOR('',#1344,10.);
#423=VECTOR('',#1345,10.);
#424=VECTOR('',#1348,10.);
#425=VECTOR('',#1349,10.);
#426=VECTOR('',#1350,10.);
#427=VECTOR('',#1351,10.);
#428=VECTOR('',#1354,10.);
#429=VECTOR('',#1357,10.);
#430=VECTOR('',#1358,10.);
#431=VECTOR('',#1361,10.);
#432=VECTOR('',#1364,10.);
#433=VECTOR('',#1365,10.);
#434=VECTOR('',#1366,10.);
#435=VECTOR('',#1369,10.);
#436=VECTOR('',#1372,10.);
#437=VECTOR('',#1375,10.);
#438=VECTOR('',#1376,10.);
#439=VECTOR('',#1377,10.);
#440=VECTOR('',#1380,10.);
#441=VECTOR('',#1381,10.);
#442=VECTOR('',#1384,10.);
#443=VECTOR('',#1385,10.);
#444=VECTOR('',#1388,10.);
#445=VECTOR('',#1393,10.);
#446=VECTOR('',#1394,10.);
#447=VECTOR('',#1397,10.);
#448=VECTOR('',#1400,10.);
#449=VECTOR('',#1403,10.);
#450=VECTOR('',#1408,10.);
#451=VECTOR('',#1411,10.);
#452=VECTOR('',#1414,10.);
#453=VECTOR('',#1415,10.);
#454=VECTOR('',#1416,10.);
#455=VECTOR('',#1419,10.);
#456=VECTOR('',#1420,10.);
#457=VECTOR('',#1423,10.);
#458=VECTOR('',#1424,10.);
#459=VECTOR('',#1427,10.);
#460=VECTOR('',#1428,10.);
#461=VECTOR('',#1429,10.);
#462=VECTOR('',#1430,10.);
#463=VECTOR('',#1433,10.);
#464=VECTOR('',#1436,10.);
#465=CIRCLE('',#1099,2.25);
#466=CIRCLE('',#1100,2.25);
#467=CIRCLE('',#1102,2.25);
#468=CIRCLE('',#1103,2.25);
#469=CIRCLE('',#1105,2.8);
#470=CIRCLE('',#1107,2.8);
#471=CIRCLE('',#1109,2.8);
#472=CIRCLE('',#1111,2.8);
#473=CIRCLE('',#1129,0.75);
#474=CIRCLE('',#1130,0.75);
#475=CIRCLE('',#1141,0.75);
#476=CIRCLE('',#1142,0.75);
#477=VERTEX_POINT('',#1443);
#478=VERTEX_POINT('',#1445);
#479=VERTEX_POINT('',#1449);
#480=VERTEX_POINT('',#1451);
#481=VERTEX_POINT('',#1455);
#482=VERTEX_POINT('',#1458);
#483=VERTEX_POINT('',#1462);
#484=VERTEX_POINT('',#1465);
#485=VERTEX_POINT('',#1469);
#486=VERTEX_POINT('',#1470);
#487=VERTEX_POINT('',#1472);
#488=VERTEX_POINT('',#1474);
#489=VERTEX_POINT('',#1478);
#490=VERTEX_POINT('',#1480);
#491=VERTEX_POINT('',#1484);
#492=VERTEX_POINT('',#1488);
#493=VERTEX_POINT('',#1494);
#494=VERTEX_POINT('',#1496);
#495=VERTEX_POINT('',#1498);
#496=VERTEX_POINT('',#1500);
#497=VERTEX_POINT('',#1502);
#498=VERTEX_POINT('',#1504);
#499=VERTEX_POINT('',#1506);
#500=VERTEX_POINT('',#1508);
#501=VERTEX_POINT('',#1510);
#502=VERTEX_POINT('',#1512);
#503=VERTEX_POINT('',#1514);
#504=VERTEX_POINT('',#1516);
#505=VERTEX_POINT('',#1520);
#506=VERTEX_POINT('',#1522);
#507=VERTEX_POINT('',#1526);
#508=VERTEX_POINT('',#1530);
#509=VERTEX_POINT('',#1538);
#510=VERTEX_POINT('',#1539);
#511=VERTEX_POINT('',#1541);
#512=VERTEX_POINT('',#1543);
#513=VERTEX_POINT('',#1547);
#514=VERTEX_POINT('',#1548);
#515=VERTEX_POINT('',#1550);
#516=VERTEX_POINT('',#1552);
#517=VERTEX_POINT('',#1556);
#518=VERTEX_POINT('',#1558);
#519=VERTEX_POINT('',#1565);
#520=VERTEX_POINT('',#1567);
#521=VERTEX_POINT('',#1569);
#522=VERTEX_POINT('',#1571);
#523=VERTEX_POINT('',#1575);
#524=VERTEX_POINT('',#1577);
#525=VERTEX_POINT('',#1579);
#526=VERTEX_POINT('',#1581);
#527=VERTEX_POINT('',#1583);
#528=VERTEX_POINT('',#1585);
#529=VERTEX_POINT('',#1587);
#530=VERTEX_POINT('',#1589);
#531=VERTEX_POINT('',#1591);
#532=VERTEX_POINT('',#1594);
#533=VERTEX_POINT('',#1595);
#534=VERTEX_POINT('',#1597);
#535=VERTEX_POINT('',#1599);
#536=VERTEX_POINT('',#1603);
#537=VERTEX_POINT('',#1604);
#538=VERTEX_POINT('',#1606);
#539=VERTEX_POINT('',#1609);
#540=VERTEX_POINT('',#1613);
#541=VERTEX_POINT('',#1614);
#542=VERTEX_POINT('',#1616);
#543=VERTEX_POINT('',#1618);
#544=VERTEX_POINT('',#1623);
#545=VERTEX_POINT('',#1625);
#546=VERTEX_POINT('',#1629);
#547=VERTEX_POINT('',#1630);
#548=VERTEX_POINT('',#1632);
#549=VERTEX_POINT('',#1637);
#550=VERTEX_POINT('',#1641);
#551=VERTEX_POINT('',#1643);
#552=VERTEX_POINT('',#1645);
#553=VERTEX_POINT('',#1650);
#554=VERTEX_POINT('',#1654);
#555=VERTEX_POINT('',#1658);
#556=VERTEX_POINT('',#1660);
#557=VERTEX_POINT('',#1662);
#558=VERTEX_POINT('',#1666);
#559=VERTEX_POINT('',#1668);
#560=VERTEX_POINT('',#1670);
#561=VERTEX_POINT('',#1673);
#562=VERTEX_POINT('',#1677);
#563=VERTEX_POINT('',#1679);
#564=VERTEX_POINT('',#1687);
#565=VERTEX_POINT('',#1689);
#566=VERTEX_POINT('',#1693);
#567=VERTEX_POINT('',#1697);
#568=VERTEX_POINT('',#1704);
#569=VERTEX_POINT('',#1719);
#570=VERTEX_POINT('',#1721);
#571=VERTEX_POINT('',#1725);
#572=VERTEX_POINT('',#1729);
#573=VERTEX_POINT('',#1733);
#574=VERTEX_POINT('',#1736);
#575=EDGE_CURVE('',#477,#477,#465,.T.);
#576=EDGE_CURVE('',#477,#478,#191,.T.);
#577=EDGE_CURVE('',#478,#478,#466,.T.);
#578=EDGE_CURVE('',#479,#479,#467,.T.);
#579=EDGE_CURVE('',#479,#480,#192,.T.);
#580=EDGE_CURVE('',#480,#480,#468,.T.);
#581=EDGE_CURVE('',#481,#481,#469,.T.);
#582=EDGE_CURVE('',#481,#482,#193,.T.);
#583=EDGE_CURVE('',#482,#482,#470,.T.);
#584=EDGE_CURVE('',#483,#483,#471,.T.);
#585=EDGE_CURVE('',#483,#484,#194,.T.);
#586=EDGE_CURVE('',#484,#484,#472,.T.);
#587=EDGE_CURVE('',#485,#486,#195,.T.);
#588=EDGE_CURVE('',#485,#487,#196,.T.);
#589=EDGE_CURVE('',#487,#488,#197,.T.);
#590=EDGE_CURVE('',#488,#486,#198,.T.);
#591=EDGE_CURVE('',#489,#485,#199,.T.);
#592=EDGE_CURVE('',#490,#489,#200,.T.);
#593=EDGE_CURVE('',#487,#490,#201,.T.);
#594=EDGE_CURVE('',#491,#490,#202,.T.);
#595=EDGE_CURVE('',#488,#491,#203,.T.);
#596=EDGE_CURVE('',#492,#491,#204,.T.);
#597=EDGE_CURVE('',#492,#486,#205,.T.);
#598=EDGE_CURVE('',#492,#489,#206,.T.);
#599=EDGE_CURVE('',#486,#493,#207,.T.);
#600=EDGE_CURVE('',#493,#494,#208,.T.);
#601=EDGE_CURVE('',#494,#495,#209,.T.);
#602=EDGE_CURVE('',#495,#496,#210,.T.);
#603=EDGE_CURVE('',#496,#497,#211,.T.);
#604=EDGE_CURVE('',#497,#498,#212,.T.);
#605=EDGE_CURVE('',#499,#498,#213,.T.);
#606=EDGE_CURVE('',#499,#500,#214,.T.);
#607=EDGE_CURVE('',#500,#501,#215,.T.);
#608=EDGE_CURVE('',#501,#502,#216,.T.);
#609=EDGE_CURVE('',#503,#502,#217,.T.);
#610=EDGE_CURVE('',#504,#503,#218,.T.);
#611=EDGE_CURVE('',#504,#492,#219,.T.);
#612=EDGE_CURVE('',#495,#505,#220,.T.);
#613=EDGE_CURVE('',#505,#506,#221,.T.);
#614=EDGE_CURVE('',#506,#496,#222,.T.);
#615=EDGE_CURVE('',#507,#494,#223,.T.);
#616=EDGE_CURVE('',#505,#507,#224,.T.);
#617=EDGE_CURVE('',#508,#507,#225,.T.);
#618=EDGE_CURVE('',#506,#508,#226,.T.);
#619=EDGE_CURVE('',#493,#508,#227,.T.);
#620=EDGE_CURVE('',#493,#496,#228,.T.);
#621=EDGE_CURVE('',#509,#510,#229,.T.);
#622=EDGE_CURVE('',#511,#509,#230,.T.);
#623=EDGE_CURVE('',#511,#512,#231,.T.);
#624=EDGE_CURVE('',#510,#512,#232,.T.);
#625=EDGE_CURVE('',#513,#514,#233,.T.);
#626=EDGE_CURVE('',#515,#513,#234,.T.);
#627=EDGE_CURVE('',#516,#515,#235,.T.);
#628=EDGE_CURVE('',#514,#516,#236,.T.);
#629=EDGE_CURVE('',#517,#515,#237,.T.);
#630=EDGE_CURVE('',#518,#517,#238,.T.);
#631=EDGE_CURVE('',#516,#518,#239,.T.);
#632=EDGE_CURVE('',#512,#517,#240,.T.);
#633=EDGE_CURVE('',#518,#511,#241,.T.);
#634=EDGE_CURVE('',#519,#513,#242,.T.);
#635=EDGE_CURVE('',#519,#520,#243,.T.);
#636=EDGE_CURVE('',#521,#520,#244,.T.);
#637=EDGE_CURVE('',#521,#522,#245,.T.);
#638=EDGE_CURVE('',#522,#510,#246,.T.);
#639=EDGE_CURVE('',#514,#523,#247,.T.);
#640=EDGE_CURVE('',#523,#524,#473,.T.);
#641=EDGE_CURVE('',#524,#525,#248,.T.);
#642=EDGE_CURVE('',#526,#525,#249,.T.);
#643=EDGE_CURVE('',#527,#526,#250,.T.);
#644=EDGE_CURVE('',#528,#527,#251,.T.);
#645=EDGE_CURVE('',#528,#529,#252,.T.);
#646=EDGE_CURVE('',#530,#529,#253,.T.);
#647=EDGE_CURVE('',#530,#531,#254,.T.);
#648=EDGE_CURVE('',#531,#519,#474,.T.);
#649=EDGE_CURVE('',#532,#533,#255,.T.);
#650=EDGE_CURVE('',#533,#534,#256,.T.);
#651=EDGE_CURVE('',#534,#535,#257,.T.);
#652=EDGE_CURVE('',#535,#532,#258,.T.);
#653=EDGE_CURVE('',#536,#537,#259,.T.);
#654=EDGE_CURVE('',#538,#536,#260,.T.);
#655=EDGE_CURVE('',#500,#538,#261,.T.);
#656=EDGE_CURVE('',#539,#499,#262,.T.);
#657=EDGE_CURVE('',#537,#539,#263,.T.);
#658=EDGE_CURVE('',#540,#541,#264,.T.);
#659=EDGE_CURVE('',#542,#540,#265,.T.);
#660=EDGE_CURVE('',#542,#543,#266,.T.);
#661=EDGE_CURVE('',#541,#543,#267,.T.);
#662=EDGE_CURVE('',#543,#501,#268,.T.);
#663=EDGE_CURVE('',#544,#542,#269,.T.);
#664=EDGE_CURVE('',#545,#544,#270,.T.);
#665=EDGE_CURVE('',#502,#545,#271,.T.);
#666=EDGE_CURVE('',#546,#547,#272,.T.);
#667=EDGE_CURVE('',#548,#546,#273,.T.);
#668=EDGE_CURVE('',#541,#548,#274,.T.);
#669=EDGE_CURVE('',#538,#547,#275,.T.);
#670=EDGE_CURVE('',#549,#536,#276,.T.);
#671=EDGE_CURVE('',#547,#549,#277,.T.);
#672=EDGE_CURVE('',#537,#550,#278,.T.);
#673=EDGE_CURVE('',#550,#551,#279,.T.);
#674=EDGE_CURVE('',#551,#552,#280,.T.);
#675=EDGE_CURVE('',#552,#526,#281,.T.);
#676=EDGE_CURVE('',#525,#549,#282,.T.);
#677=EDGE_CURVE('',#545,#553,#283,.T.);
#678=EDGE_CURVE('',#553,#503,#284,.T.);
#679=EDGE_CURVE('',#498,#554,#285,.T.);
#680=EDGE_CURVE('',#554,#539,#286,.T.);
#681=EDGE_CURVE('',#555,#544,#287,.T.);
#682=EDGE_CURVE('',#556,#555,#288,.T.);
#683=EDGE_CURVE('',#556,#557,#289,.T.);
#684=EDGE_CURVE('',#557,#553,#290,.T.);
#685=EDGE_CURVE('',#546,#558,#291,.T.);
#686=EDGE_CURVE('',#558,#559,#475,.T.);
#687=EDGE_CURVE('',#559,#560,#292,.T.);
#688=EDGE_CURVE('',#560,#521,#293,.T.);
#689=EDGE_CURVE('',#520,#561,#476,.T.);
#690=EDGE_CURVE('',#561,#548,#294,.T.);
#691=EDGE_CURVE('',#562,#554,#295,.T.);
#692=EDGE_CURVE('',#562,#563,#296,.T.);
#693=EDGE_CURVE('',#563,#550,#297,.T.);
#694=EDGE_CURVE('',#557,#504,#298,.T.);
#695=EDGE_CURVE('',#497,#562,#299,.T.);
#696=EDGE_CURVE('',#564,#533,#300,.T.);
#697=EDGE_CURVE('',#564,#565,#301,.T.);
#698=EDGE_CURVE('',#534,#565,#302,.T.);
#699=EDGE_CURVE('',#532,#566,#303,.T.);
#700=EDGE_CURVE('',#566,#564,#304,.T.);
#701=EDGE_CURVE('',#567,#535,#305,.T.);
#702=EDGE_CURVE('',#566,#567,#306,.T.);
#703=EDGE_CURVE('',#565,#567,#307,.T.);
#704=EDGE_CURVE('',#568,#560,#308,.T.);
#705=EDGE_CURVE('',#568,#522,#309,.T.);
#706=EDGE_CURVE('',#509,#568,#310,.T.);
#707=EDGE_CURVE('',#523,#559,#311,.T.);
#708=EDGE_CURVE('',#524,#558,#312,.T.);
#709=EDGE_CURVE('',#531,#561,#313,.T.);
#710=EDGE_CURVE('',#540,#530,#314,.T.);
#711=EDGE_CURVE('',#529,#569,#315,.T.);
#712=EDGE_CURVE('',#569,#570,#316,.T.);
#713=EDGE_CURVE('',#570,#555,#317,.T.);
#714=EDGE_CURVE('',#569,#571,#318,.T.);
#715=EDGE_CURVE('',#571,#528,#319,.T.);
#716=EDGE_CURVE('',#572,#552,#320,.T.);
#717=EDGE_CURVE('',#527,#572,#321,.T.);
#718=EDGE_CURVE('',#573,#572,#322,.T.);
#719=EDGE_CURVE('',#563,#573,#323,.T.);
#720=EDGE_CURVE('',#574,#556,#324,.T.);
#721=EDGE_CURVE('',#571,#574,#325,.T.);
#722=EDGE_CURVE('',#573,#551,#326,.T.);
#723=EDGE_CURVE('',#574,#570,#327,.T.);
#724=ORIENTED_EDGE('',*,*,#575,.F.);
#725=ORIENTED_EDGE('',*,*,#576,.T.);
#726=ORIENTED_EDGE('',*,*,#577,.F.);
#727=ORIENTED_EDGE('',*,*,#576,.F.);
#728=ORIENTED_EDGE('',*,*,#578,.F.);
#729=ORIENTED_EDGE('',*,*,#579,.T.);
#730=ORIENTED_EDGE('',*,*,#580,.F.);
#731=ORIENTED_EDGE('',*,*,#579,.F.);
#732=ORIENTED_EDGE('',*,*,#581,.F.);
#733=ORIENTED_EDGE('',*,*,#577,.T.);
#734=ORIENTED_EDGE('',*,*,#581,.T.);
#735=ORIENTED_EDGE('',*,*,#582,.T.);
#736=ORIENTED_EDGE('',*,*,#583,.F.);
#737=ORIENTED_EDGE('',*,*,#582,.F.);
#738=ORIENTED_EDGE('',*,*,#584,.F.);
#739=ORIENTED_EDGE('',*,*,#580,.T.);
#740=ORIENTED_EDGE('',*,*,#584,.T.);
#741=ORIENTED_EDGE('',*,*,#585,.T.);
#742=ORIENTED_EDGE('',*,*,#586,.F.);
#743=ORIENTED_EDGE('',*,*,#585,.F.);
#744=ORIENTED_EDGE('',*,*,#587,.F.);
#745=ORIENTED_EDGE('',*,*,#588,.T.);
#746=ORIENTED_EDGE('',*,*,#589,.T.);
#747=ORIENTED_EDGE('',*,*,#590,.T.);
#748=ORIENTED_EDGE('',*,*,#591,.F.);
#749=ORIENTED_EDGE('',*,*,#592,.F.);
#750=ORIENTED_EDGE('',*,*,#593,.F.);
#751=ORIENTED_EDGE('',*,*,#588,.F.);
#752=ORIENTED_EDGE('',*,*,#593,.T.);
#753=ORIENTED_EDGE('',*,*,#594,.F.);
#754=ORIENTED_EDGE('',*,*,#595,.F.);
#755=ORIENTED_EDGE('',*,*,#589,.F.);
#756=ORIENTED_EDGE('',*,*,#586,.T.);
#757=ORIENTED_EDGE('',*,*,#595,.T.);
#758=ORIENTED_EDGE('',*,*,#596,.F.);
#759=ORIENTED_EDGE('',*,*,#597,.T.);
#760=ORIENTED_EDGE('',*,*,#590,.F.);
#761=ORIENTED_EDGE('',*,*,#598,.F.);
#762=ORIENTED_EDGE('',*,*,#596,.T.);
#763=ORIENTED_EDGE('',*,*,#594,.T.);
#764=ORIENTED_EDGE('',*,*,#592,.T.);
#765=ORIENTED_EDGE('',*,*,#598,.T.);
#766=ORIENTED_EDGE('',*,*,#591,.T.);
#767=ORIENTED_EDGE('',*,*,#587,.T.);
#768=ORIENTED_EDGE('',*,*,#599,.T.);
#769=ORIENTED_EDGE('',*,*,#600,.T.);
#770=ORIENTED_EDGE('',*,*,#601,.T.);
#771=ORIENTED_EDGE('',*,*,#602,.T.);
#772=ORIENTED_EDGE('',*,*,#603,.T.);
#773=ORIENTED_EDGE('',*,*,#604,.T.);
#774=ORIENTED_EDGE('',*,*,#605,.F.);
#775=ORIENTED_EDGE('',*,*,#606,.T.);
#776=ORIENTED_EDGE('',*,*,#607,.T.);
#777=ORIENTED_EDGE('',*,*,#608,.T.);
#778=ORIENTED_EDGE('',*,*,#609,.F.);
#779=ORIENTED_EDGE('',*,*,#610,.F.);
#780=ORIENTED_EDGE('',*,*,#611,.T.);
#781=ORIENTED_EDGE('',*,*,#602,.F.);
#782=ORIENTED_EDGE('',*,*,#612,.T.);
#783=ORIENTED_EDGE('',*,*,#613,.T.);
#784=ORIENTED_EDGE('',*,*,#614,.T.);
#785=ORIENTED_EDGE('',*,*,#601,.F.);
#786=ORIENTED_EDGE('',*,*,#615,.F.);
#787=ORIENTED_EDGE('',*,*,#616,.F.);
#788=ORIENTED_EDGE('',*,*,#612,.F.);
#789=ORIENTED_EDGE('',*,*,#616,.T.);
#790=ORIENTED_EDGE('',*,*,#617,.F.);
#791=ORIENTED_EDGE('',*,*,#618,.F.);
#792=ORIENTED_EDGE('',*,*,#613,.F.);
#793=ORIENTED_EDGE('',*,*,#583,.T.);
#794=ORIENTED_EDGE('',*,*,#618,.T.);
#795=ORIENTED_EDGE('',*,*,#619,.F.);
#796=ORIENTED_EDGE('',*,*,#620,.T.);
#797=ORIENTED_EDGE('',*,*,#614,.F.);
#798=ORIENTED_EDGE('',*,*,#600,.F.);
#799=ORIENTED_EDGE('',*,*,#619,.T.);
#800=ORIENTED_EDGE('',*,*,#617,.T.);
#801=ORIENTED_EDGE('',*,*,#615,.T.);
#802=ORIENTED_EDGE('',*,*,#621,.F.);
#803=ORIENTED_EDGE('',*,*,#622,.F.);
#804=ORIENTED_EDGE('',*,*,#623,.T.);
#805=ORIENTED_EDGE('',*,*,#624,.F.);
#806=ORIENTED_EDGE('',*,*,#625,.F.);
#807=ORIENTED_EDGE('',*,*,#626,.F.);
#808=ORIENTED_EDGE('',*,*,#627,.F.);
#809=ORIENTED_EDGE('',*,*,#628,.F.);
#810=ORIENTED_EDGE('',*,*,#627,.T.);
#811=ORIENTED_EDGE('',*,*,#629,.F.);
#812=ORIENTED_EDGE('',*,*,#630,.F.);
#813=ORIENTED_EDGE('',*,*,#631,.F.);
#814=ORIENTED_EDGE('',*,*,#630,.T.);
#815=ORIENTED_EDGE('',*,*,#632,.F.);
#816=ORIENTED_EDGE('',*,*,#623,.F.);
#817=ORIENTED_EDGE('',*,*,#633,.F.);
#818=ORIENTED_EDGE('',*,*,#634,.F.);
#819=ORIENTED_EDGE('',*,*,#635,.T.);
#820=ORIENTED_EDGE('',*,*,#636,.F.);
#821=ORIENTED_EDGE('',*,*,#637,.T.);
#822=ORIENTED_EDGE('',*,*,#638,.T.);
#823=ORIENTED_EDGE('',*,*,#624,.T.);
#824=ORIENTED_EDGE('',*,*,#632,.T.);
#825=ORIENTED_EDGE('',*,*,#629,.T.);
#826=ORIENTED_EDGE('',*,*,#626,.T.);
#827=ORIENTED_EDGE('',*,*,#639,.T.);
#828=ORIENTED_EDGE('',*,*,#640,.T.);
#829=ORIENTED_EDGE('',*,*,#641,.T.);
#830=ORIENTED_EDGE('',*,*,#642,.F.);
#831=ORIENTED_EDGE('',*,*,#643,.F.);
#832=ORIENTED_EDGE('',*,*,#644,.F.);
#833=ORIENTED_EDGE('',*,*,#645,.T.);
#834=ORIENTED_EDGE('',*,*,#646,.F.);
#835=ORIENTED_EDGE('',*,*,#647,.T.);
#836=ORIENTED_EDGE('',*,*,#648,.T.);
#837=ORIENTED_EDGE('',*,*,#634,.T.);
#838=ORIENTED_EDGE('',*,*,#625,.T.);
#839=ORIENTED_EDGE('',*,*,#649,.T.);
#840=ORIENTED_EDGE('',*,*,#650,.T.);
#841=ORIENTED_EDGE('',*,*,#651,.T.);
#842=ORIENTED_EDGE('',*,*,#652,.T.);
#843=ORIENTED_EDGE('',*,*,#653,.F.);
#844=ORIENTED_EDGE('',*,*,#654,.F.);
#845=ORIENTED_EDGE('',*,*,#655,.F.);
#846=ORIENTED_EDGE('',*,*,#606,.F.);
#847=ORIENTED_EDGE('',*,*,#656,.F.);
#848=ORIENTED_EDGE('',*,*,#657,.F.);
#849=ORIENTED_EDGE('',*,*,#658,.F.);
#850=ORIENTED_EDGE('',*,*,#659,.F.);
#851=ORIENTED_EDGE('',*,*,#660,.T.);
#852=ORIENTED_EDGE('',*,*,#661,.F.);
#853=ORIENTED_EDGE('',*,*,#608,.F.);
#854=ORIENTED_EDGE('',*,*,#662,.F.);
#855=ORIENTED_EDGE('',*,*,#660,.F.);
#856=ORIENTED_EDGE('',*,*,#663,.F.);
#857=ORIENTED_EDGE('',*,*,#664,.F.);
#858=ORIENTED_EDGE('',*,*,#665,.F.);
#859=ORIENTED_EDGE('',*,*,#666,.F.);
#860=ORIENTED_EDGE('',*,*,#667,.F.);
#861=ORIENTED_EDGE('',*,*,#668,.F.);
#862=ORIENTED_EDGE('',*,*,#661,.T.);
#863=ORIENTED_EDGE('',*,*,#662,.T.);
#864=ORIENTED_EDGE('',*,*,#607,.F.);
#865=ORIENTED_EDGE('',*,*,#655,.T.);
#866=ORIENTED_EDGE('',*,*,#669,.T.);
#867=ORIENTED_EDGE('',*,*,#670,.F.);
#868=ORIENTED_EDGE('',*,*,#671,.F.);
#869=ORIENTED_EDGE('',*,*,#669,.F.);
#870=ORIENTED_EDGE('',*,*,#654,.T.);
#871=ORIENTED_EDGE('',*,*,#670,.T.);
#872=ORIENTED_EDGE('',*,*,#653,.T.);
#873=ORIENTED_EDGE('',*,*,#672,.T.);
#874=ORIENTED_EDGE('',*,*,#673,.T.);
#875=ORIENTED_EDGE('',*,*,#674,.T.);
#876=ORIENTED_EDGE('',*,*,#675,.T.);
#877=ORIENTED_EDGE('',*,*,#642,.T.);
#878=ORIENTED_EDGE('',*,*,#676,.T.);
#879=ORIENTED_EDGE('',*,*,#665,.T.);
#880=ORIENTED_EDGE('',*,*,#677,.T.);
#881=ORIENTED_EDGE('',*,*,#678,.T.);
#882=ORIENTED_EDGE('',*,*,#609,.T.);
#883=ORIENTED_EDGE('',*,*,#656,.T.);
#884=ORIENTED_EDGE('',*,*,#605,.T.);
#885=ORIENTED_EDGE('',*,*,#679,.T.);
#886=ORIENTED_EDGE('',*,*,#680,.T.);
#887=ORIENTED_EDGE('',*,*,#664,.T.);
#888=ORIENTED_EDGE('',*,*,#681,.F.);
#889=ORIENTED_EDGE('',*,*,#682,.F.);
#890=ORIENTED_EDGE('',*,*,#683,.T.);
#891=ORIENTED_EDGE('',*,*,#684,.T.);
#892=ORIENTED_EDGE('',*,*,#677,.F.);
#893=ORIENTED_EDGE('',*,*,#578,.T.);
#894=ORIENTED_EDGE('',*,*,#667,.T.);
#895=ORIENTED_EDGE('',*,*,#685,.T.);
#896=ORIENTED_EDGE('',*,*,#686,.T.);
#897=ORIENTED_EDGE('',*,*,#687,.T.);
#898=ORIENTED_EDGE('',*,*,#688,.T.);
#899=ORIENTED_EDGE('',*,*,#636,.T.);
#900=ORIENTED_EDGE('',*,*,#689,.T.);
#901=ORIENTED_EDGE('',*,*,#690,.T.);
#902=ORIENTED_EDGE('',*,*,#657,.T.);
#903=ORIENTED_EDGE('',*,*,#680,.F.);
#904=ORIENTED_EDGE('',*,*,#691,.F.);
#905=ORIENTED_EDGE('',*,*,#692,.T.);
#906=ORIENTED_EDGE('',*,*,#693,.T.);
#907=ORIENTED_EDGE('',*,*,#672,.F.);
#908=ORIENTED_EDGE('',*,*,#575,.T.);
#909=ORIENTED_EDGE('',*,*,#694,.T.);
#910=ORIENTED_EDGE('',*,*,#610,.T.);
#911=ORIENTED_EDGE('',*,*,#678,.F.);
#912=ORIENTED_EDGE('',*,*,#684,.F.);
#913=ORIENTED_EDGE('',*,*,#695,.T.);
#914=ORIENTED_EDGE('',*,*,#691,.T.);
#915=ORIENTED_EDGE('',*,*,#679,.F.);
#916=ORIENTED_EDGE('',*,*,#604,.F.);
#917=ORIENTED_EDGE('',*,*,#650,.F.);
#918=ORIENTED_EDGE('',*,*,#696,.F.);
#919=ORIENTED_EDGE('',*,*,#697,.T.);
#920=ORIENTED_EDGE('',*,*,#698,.F.);
#921=ORIENTED_EDGE('',*,*,#649,.F.);
#922=ORIENTED_EDGE('',*,*,#699,.T.);
#923=ORIENTED_EDGE('',*,*,#700,.T.);
#924=ORIENTED_EDGE('',*,*,#696,.T.);
#925=ORIENTED_EDGE('',*,*,#652,.F.);
#926=ORIENTED_EDGE('',*,*,#701,.F.);
#927=ORIENTED_EDGE('',*,*,#702,.F.);
#928=ORIENTED_EDGE('',*,*,#699,.F.);
#929=ORIENTED_EDGE('',*,*,#702,.T.);
#930=ORIENTED_EDGE('',*,*,#703,.F.);
#931=ORIENTED_EDGE('',*,*,#697,.F.);
#932=ORIENTED_EDGE('',*,*,#700,.F.);
#933=ORIENTED_EDGE('',*,*,#651,.F.);
#934=ORIENTED_EDGE('',*,*,#698,.T.);
#935=ORIENTED_EDGE('',*,*,#703,.T.);
#936=ORIENTED_EDGE('',*,*,#701,.T.);
#937=ORIENTED_EDGE('',*,*,#688,.F.);
#938=ORIENTED_EDGE('',*,*,#704,.F.);
#939=ORIENTED_EDGE('',*,*,#705,.T.);
#940=ORIENTED_EDGE('',*,*,#637,.F.);
#941=ORIENTED_EDGE('',*,*,#621,.T.);
#942=ORIENTED_EDGE('',*,*,#638,.F.);
#943=ORIENTED_EDGE('',*,*,#705,.F.);
#944=ORIENTED_EDGE('',*,*,#706,.F.);
#945=ORIENTED_EDGE('',*,*,#706,.T.);
#946=ORIENTED_EDGE('',*,*,#704,.T.);
#947=ORIENTED_EDGE('',*,*,#687,.F.);
#948=ORIENTED_EDGE('',*,*,#707,.F.);
#949=ORIENTED_EDGE('',*,*,#639,.F.);
#950=ORIENTED_EDGE('',*,*,#628,.T.);
#951=ORIENTED_EDGE('',*,*,#631,.T.);
#952=ORIENTED_EDGE('',*,*,#633,.T.);
#953=ORIENTED_EDGE('',*,*,#622,.T.);
#954=ORIENTED_EDGE('',*,*,#671,.T.);
#955=ORIENTED_EDGE('',*,*,#676,.F.);
#956=ORIENTED_EDGE('',*,*,#641,.F.);
#957=ORIENTED_EDGE('',*,*,#708,.T.);
#958=ORIENTED_EDGE('',*,*,#685,.F.);
#959=ORIENTED_EDGE('',*,*,#666,.T.);
#960=ORIENTED_EDGE('',*,*,#640,.F.);
#961=ORIENTED_EDGE('',*,*,#707,.T.);
#962=ORIENTED_EDGE('',*,*,#686,.F.);
#963=ORIENTED_EDGE('',*,*,#708,.F.);
#964=ORIENTED_EDGE('',*,*,#648,.F.);
#965=ORIENTED_EDGE('',*,*,#709,.T.);
#966=ORIENTED_EDGE('',*,*,#689,.F.);
#967=ORIENTED_EDGE('',*,*,#635,.F.);
#968=ORIENTED_EDGE('',*,*,#668,.T.);
#969=ORIENTED_EDGE('',*,*,#690,.F.);
#970=ORIENTED_EDGE('',*,*,#709,.F.);
#971=ORIENTED_EDGE('',*,*,#647,.F.);
#972=ORIENTED_EDGE('',*,*,#710,.F.);
#973=ORIENTED_EDGE('',*,*,#658,.T.);
#974=ORIENTED_EDGE('',*,*,#659,.T.);
#975=ORIENTED_EDGE('',*,*,#710,.T.);
#976=ORIENTED_EDGE('',*,*,#646,.T.);
#977=ORIENTED_EDGE('',*,*,#711,.T.);
#978=ORIENTED_EDGE('',*,*,#712,.T.);
#979=ORIENTED_EDGE('',*,*,#713,.T.);
#980=ORIENTED_EDGE('',*,*,#681,.T.);
#981=ORIENTED_EDGE('',*,*,#663,.T.);
#982=ORIENTED_EDGE('',*,*,#714,.F.);
#983=ORIENTED_EDGE('',*,*,#711,.F.);
#984=ORIENTED_EDGE('',*,*,#645,.F.);
#985=ORIENTED_EDGE('',*,*,#715,.F.);
#986=ORIENTED_EDGE('',*,*,#716,.F.);
#987=ORIENTED_EDGE('',*,*,#717,.F.);
#988=ORIENTED_EDGE('',*,*,#643,.T.);
#989=ORIENTED_EDGE('',*,*,#675,.F.);
#990=ORIENTED_EDGE('',*,*,#715,.T.);
#991=ORIENTED_EDGE('',*,*,#644,.T.);
#992=ORIENTED_EDGE('',*,*,#717,.T.);
#993=ORIENTED_EDGE('',*,*,#718,.F.);
#994=ORIENTED_EDGE('',*,*,#719,.F.);
#995=ORIENTED_EDGE('',*,*,#692,.F.);
#996=ORIENTED_EDGE('',*,*,#695,.F.);
#997=ORIENTED_EDGE('',*,*,#603,.F.);
#998=ORIENTED_EDGE('',*,*,#620,.F.);
#999=ORIENTED_EDGE('',*,*,#599,.F.);
#1000=ORIENTED_EDGE('',*,*,#597,.F.);
#1001=ORIENTED_EDGE('',*,*,#611,.F.);
#1002=ORIENTED_EDGE('',*,*,#694,.F.);
#1003=ORIENTED_EDGE('',*,*,#683,.F.);
#1004=ORIENTED_EDGE('',*,*,#720,.F.);
#1005=ORIENTED_EDGE('',*,*,#721,.F.);
#1006=ORIENTED_EDGE('',*,*,#716,.T.);
#1007=ORIENTED_EDGE('',*,*,#674,.F.);
#1008=ORIENTED_EDGE('',*,*,#722,.F.);
#1009=ORIENTED_EDGE('',*,*,#718,.T.);
#1010=ORIENTED_EDGE('',*,*,#720,.T.);
#1011=ORIENTED_EDGE('',*,*,#682,.T.);
#1012=ORIENTED_EDGE('',*,*,#713,.F.);
#1013=ORIENTED_EDGE('',*,*,#723,.F.);
#1014=ORIENTED_EDGE('',*,*,#714,.T.);
#1015=ORIENTED_EDGE('',*,*,#721,.T.);
#1016=ORIENTED_EDGE('',*,*,#723,.T.);
#1017=ORIENTED_EDGE('',*,*,#712,.F.);
#1018=ORIENTED_EDGE('',*,*,#719,.T.);
#1019=ORIENTED_EDGE('',*,*,#722,.T.);
#1020=ORIENTED_EDGE('',*,*,#673,.F.);
#1021=ORIENTED_EDGE('',*,*,#693,.F.);
#1022=CYLINDRICAL_SURFACE('',#1098,2.25);
#1023=CYLINDRICAL_SURFACE('',#1101,2.25);
#1024=CYLINDRICAL_SURFACE('',#1106,2.8);
#1025=CYLINDRICAL_SURFACE('',#1110,2.8);
#1026=CYLINDRICAL_SURFACE('',#1155,0.75);
#1027=CYLINDRICAL_SURFACE('',#1156,0.75);
#1028=ADVANCED_FACE('',(#72),#1022,.F.);
#1029=ADVANCED_FACE('',(#73),#1023,.F.);
#1030=ADVANCED_FACE('',(#74,#15),#22,.T.);
#1031=ADVANCED_FACE('',(#75),#1024,.F.);
#1032=ADVANCED_FACE('',(#76,#16),#23,.T.);
#1033=ADVANCED_FACE('',(#77),#1025,.F.);
#1034=ADVANCED_FACE('',(#78),#24,.T.);
#1035=ADVANCED_FACE('',(#79),#25,.T.);
#1036=ADVANCED_FACE('',(#80,#17),#26,.T.);
#1037=ADVANCED_FACE('',(#81),#27,.T.);
#1038=ADVANCED_FACE('',(#82),#28,.T.);
#1039=ADVANCED_FACE('',(#83),#29,.T.);
#1040=ADVANCED_FACE('',(#84),#30,.T.);
#1041=ADVANCED_FACE('',(#85),#31,.T.);
#1042=ADVANCED_FACE('',(#86,#18),#32,.T.);
#1043=ADVANCED_FACE('',(#87),#33,.T.);
#1044=ADVANCED_FACE('',(#88),#34,.T.);
#1045=ADVANCED_FACE('',(#89),#35,.T.);
#1046=ADVANCED_FACE('',(#90),#36,.T.);
#1047=ADVANCED_FACE('',(#91),#37,.T.);
#1048=ADVANCED_FACE('',(#92),#38,.T.);
#1049=ADVANCED_FACE('',(#93),#39,.F.);
#1050=ADVANCED_FACE('',(#94,#19),#40,.F.);
#1051=ADVANCED_FACE('',(#95),#41,.F.);
#1052=ADVANCED_FACE('',(#96),#42,.F.);
#1053=ADVANCED_FACE('',(#97),#43,.F.);
#1054=ADVANCED_FACE('',(#98),#44,.F.);
#1055=ADVANCED_FACE('',(#99),#45,.F.);
#1056=ADVANCED_FACE('',(#100),#46,.T.);
#1057=ADVANCED_FACE('',(#101),#47,.T.);
#1058=ADVANCED_FACE('',(#102),#48,.T.);
#1059=ADVANCED_FACE('',(#103,#20),#49,.T.);
#1060=ADVANCED_FACE('',(#104),#50,.T.);
#1061=ADVANCED_FACE('',(#105,#21),#51,.T.);
#1062=ADVANCED_FACE('',(#106),#52,.T.);
#1063=ADVANCED_FACE('',(#107),#53,.T.);
#1064=ADVANCED_FACE('',(#108),#54,.T.);
#1065=ADVANCED_FACE('',(#109),#55,.T.);
#1066=ADVANCED_FACE('',(#110),#56,.T.);
#1067=ADVANCED_FACE('',(#111),#57,.T.);
#1068=ADVANCED_FACE('',(#112),#58,.T.);
#1069=ADVANCED_FACE('',(#113),#59,.F.);
#1070=ADVANCED_FACE('',(#114),#60,.F.);
#1071=ADVANCED_FACE('',(#115),#61,.F.);
#1072=ADVANCED_FACE('',(#116),#62,.F.);
#1073=ADVANCED_FACE('',(#117),#1026,.F.);
#1074=ADVANCED_FACE('',(#118),#1027,.F.);
#1075=ADVANCED_FACE('',(#119),#63,.F.);
#1076=ADVANCED_FACE('',(#120),#64,.T.);
#1077=ADVANCED_FACE('',(#121),#65,.F.);
#1078=ADVANCED_FACE('',(#122),#66,.F.);
#1079=ADVANCED_FACE('',(#123),#67,.F.);
#1080=ADVANCED_FACE('',(#124),#68,.T.);
#1081=ADVANCED_FACE('',(#125),#69,.T.);
#1082=ADVANCED_FACE('',(#126),#70,.T.);
#1083=ADVANCED_FACE('',(#127),#71,.T.);
#1084=CLOSED_SHELL('',(#1028,#1029,#1030,#1031,#1032,#1033,#1034,#1035,
#1036,#1037,#1038,#1039,#1040,#1041,#1042,#1043,#1044,#1045,#1046,#1047,
#1048,#1049,#1050,#1051,#1052,#1053,#1054,#1055,#1056,#1057,#1058,#1059,
#1060,#1061,#1062,#1063,#1064,#1065,#1066,#1067,#1068,#1069,#1070,#1071,
#1072,#1073,#1074,#1075,#1076,#1077,#1078,#1079,#1080,#1081,#1082,#1083));
#1085=DERIVED_UNIT_ELEMENT(#1087,1.);
#1086=DERIVED_UNIT_ELEMENT(#1750,-3.);
#1087=(
MASS_UNIT()
NAMED_UNIT(*)
SI_UNIT(.KILO.,.GRAM.)
);
#1088=DERIVED_UNIT((#1085,#1086));
#1089=MEASURE_REPRESENTATION_ITEM('density measure',
POSITIVE_RATIO_MEASURE(7850.),#1088);
#1090=PROPERTY_DEFINITION_REPRESENTATION(#1095,#1092);
#1091=PROPERTY_DEFINITION_REPRESENTATION(#1096,#1093);
#1092=REPRESENTATION('material name',(#1094),#1747);
#1093=REPRESENTATION('density',(#1089),#1747);
#1094=DESCRIPTIVE_REPRESENTATION_ITEM('Stahl','Stahl');
#1095=PROPERTY_DEFINITION('material property','material name',#1757);
#1096=PROPERTY_DEFINITION('material property','density of part',#1757);
#1097=AXIS2_PLACEMENT_3D('',#1441,#1166,#1167);
#1098=AXIS2_PLACEMENT_3D('',#1442,#1168,#1169);
#1099=AXIS2_PLACEMENT_3D('',#1444,#1170,#1171);
#1100=AXIS2_PLACEMENT_3D('',#1447,#1173,#1174);
#1101=AXIS2_PLACEMENT_3D('',#1448,#1175,#1176);
#1102=AXIS2_PLACEMENT_3D('',#1450,#1177,#1178);
#1103=AXIS2_PLACEMENT_3D('',#1453,#1180,#1181);
#1104=AXIS2_PLACEMENT_3D('',#1454,#1182,#1183);
#1105=AXIS2_PLACEMENT_3D('',#1456,#1184,#1185);
#1106=AXIS2_PLACEMENT_3D('',#1457,#1186,#1187);
#1107=AXIS2_PLACEMENT_3D('',#1460,#1189,#1190);
#1108=AXIS2_PLACEMENT_3D('',#1461,#1191,#1192);
#1109=AXIS2_PLACEMENT_3D('',#1463,#1193,#1194);
#1110=AXIS2_PLACEMENT_3D('',#1464,#1195,#1196);
#1111=AXIS2_PLACEMENT_3D('',#1467,#1198,#1199);
#1112=AXIS2_PLACEMENT_3D('',#1468,#1200,#1201);
#1113=AXIS2_PLACEMENT_3D('',#1477,#1206,#1207);
#1114=AXIS2_PLACEMENT_3D('',#1483,#1211,#1212);
#1115=AXIS2_PLACEMENT_3D('',#1487,#1215,#1216);
#1116=AXIS2_PLACEMENT_3D('',#1491,#1219,#1220);
#1117=AXIS2_PLACEMENT_3D('',#1493,#1222,#1223);
#1118=AXIS2_PLACEMENT_3D('',#1519,#1237,#1238);
#1119=AXIS2_PLACEMENT_3D('',#1525,#1242,#1243);
#1120=AXIS2_PLACEMENT_3D('',#1529,#1246,#1247);
#1121=AXIS2_PLACEMENT_3D('',#1533,#1250,#1251);
#1122=AXIS2_PLACEMENT_3D('',#1536,#1254,#1255);
#1123=AXIS2_PLACEMENT_3D('',#1537,#1256,#1257);
#1124=AXIS2_PLACEMENT_3D('',#1546,#1262,#1263);
#1125=AXIS2_PLACEMENT_3D('',#1555,#1268,#1269);
#1126=AXIS2_PLACEMENT_3D('',#1561,#1273,#1274);
#1127=AXIS2_PLACEMENT_3D('',#1564,#1277,#1278);
#1128=AXIS2_PLACEMENT_3D('',#1574,#1284,#1285);
#1129=AXIS2_PLACEMENT_3D('',#1578,#1287,#1288);
#1130=AXIS2_PLACEMENT_3D('',#1593,#1296,#1297);
#1131=AXIS2_PLACEMENT_3D('',#1602,#1302,#1303);
#1132=AXIS2_PLACEMENT_3D('',#1612,#1309,#1310);
#1133=AXIS2_PLACEMENT_3D('',#1621,#1315,#1316);
#1134=AXIS2_PLACEMENT_3D('',#1628,#1321,#1322);
#1135=AXIS2_PLACEMENT_3D('',#1636,#1327,#1328);
#1136=AXIS2_PLACEMENT_3D('',#1640,#1331,#1332);
#1137=AXIS2_PLACEMENT_3D('',#1649,#1338,#1339);
#1138=AXIS2_PLACEMENT_3D('',#1653,#1342,#1343);
#1139=AXIS2_PLACEMENT_3D('',#1657,#1346,#1347);
#1140=AXIS2_PLACEMENT_3D('',#1665,#1352,#1353);
#1141=AXIS2_PLACEMENT_3D('',#1669,#1355,#1356);
#1142=AXIS2_PLACEMENT_3D('',#1674,#1359,#1360);
#1143=AXIS2_PLACEMENT_3D('',#1676,#1362,#1363);
#1144=AXIS2_PLACEMENT_3D('',#1682,#1367,#1368);
#1145=AXIS2_PLACEMENT_3D('',#1684,#1370,#1371);
#1146=AXIS2_PLACEMENT_3D('',#1686,#1373,#1374);
#1147=AXIS2_PLACEMENT_3D('',#1692,#1378,#1379);
#1148=AXIS2_PLACEMENT_3D('',#1696,#1382,#1383);
#1149=AXIS2_PLACEMENT_3D('',#1700,#1386,#1387);
#1150=AXIS2_PLACEMENT_3D('',#1702,#1389,#1390);
#1151=AXIS2_PLACEMENT_3D('',#1703,#1391,#1392);
#1152=AXIS2_PLACEMENT_3D('',#1707,#1395,#1396);
#1153=AXIS2_PLACEMENT_3D('',#1709,#1398,#1399);
#1154=AXIS2_PLACEMENT_3D('',#1711,#1401,#1402);
#1155=AXIS2_PLACEMENT_3D('',#1713,#1404,#1405);
#1156=AXIS2_PLACEMENT_3D('',#1714,#1406,#1407);
#1157=AXIS2_PLACEMENT_3D('',#1716,#1409,#1410);
#1158=AXIS2_PLACEMENT_3D('',#1718,#1412,#1413);
#1159=AXIS2_PLACEMENT_3D('',#1724,#1417,#1418);
#1160=AXIS2_PLACEMENT_3D('',#1728,#1421,#1422);
#1161=AXIS2_PLACEMENT_3D('',#1732,#1425,#1426);
#1162=AXIS2_PLACEMENT_3D('',#1739,#1431,#1432);
#1163=AXIS2_PLACEMENT_3D('',#1741,#1434,#1435);
#1164=AXIS2_PLACEMENT_3D('',#1743,#1437,#1438);
#1165=AXIS2_PLACEMENT_3D('',#1744,#1439,#1440);
#1166=DIRECTION('axis',(0.,0.,1.));
#1167=DIRECTION('refdir',(1.,0.,0.));
#1168=DIRECTION('center_axis',(0.,1.,0.));
#1169=DIRECTION('ref_axis',(1.,0.,0.));
#1170=DIRECTION('center_axis',(0.,1.,0.));
#1171=DIRECTION('ref_axis',(1.,0.,0.));
#1172=DIRECTION('',(0.,1.,0.));
#1173=DIRECTION('center_axis',(0.,-1.,0.));
#1174=DIRECTION('ref_axis',(1.,0.,0.));
#1175=DIRECTION('center_axis',(0.,1.,0.));
#1176=DIRECTION('ref_axis',(1.,0.,0.));
#1177=DIRECTION('center_axis',(0.,1.,0.));
#1178=DIRECTION('ref_axis',(1.,0.,0.));
#1179=DIRECTION('',(0.,1.,0.));
#1180=DIRECTION('center_axis',(0.,-1.,0.));
#1181=DIRECTION('ref_axis',(1.,0.,0.));
#1182=DIRECTION('center_axis',(0.,1.,0.));
#1183=DIRECTION('ref_axis',(1.,0.,0.));
#1184=DIRECTION('center_axis',(0.,-1.,0.));
#1185=DIRECTION('ref_axis',(1.,0.,0.));
#1186=DIRECTION('center_axis',(0.,1.,0.));
#1187=DIRECTION('ref_axis',(1.,0.,0.));
#1188=DIRECTION('',(0.,1.,0.));
#1189=DIRECTION('center_axis',(0.,-1.,0.));
#1190=DIRECTION('ref_axis',(1.,0.,0.));
#1191=DIRECTION('center_axis',(0.,1.,0.));
#1192=DIRECTION('ref_axis',(1.,0.,0.));
#1193=DIRECTION('center_axis',(0.,-1.,0.));
#1194=DIRECTION('ref_axis',(1.,0.,0.));
#1195=DIRECTION('center_axis',(0.,1.,0.));
#1196=DIRECTION('ref_axis',(1.,0.,0.));
#1197=DIRECTION('',(0.,1.,0.));
#1198=DIRECTION('center_axis',(0.,-1.,0.));
#1199=DIRECTION('ref_axis',(1.,0.,0.));
#1200=DIRECTION('center_axis',(-1.,0.,0.));
#1201=DIRECTION('ref_axis',(0.,0.,1.));
#1202=DIRECTION('',(0.,0.,-1.));
#1203=DIRECTION('',(0.,1.,0.));
#1204=DIRECTION('',(0.,0.,-1.));
#1205=DIRECTION('',(0.,-0.707106781186547,-0.707106781186547));
#1206=DIRECTION('center_axis',(0.,0.,1.));
#1207=DIRECTION('ref_axis',(0.,-1.,0.));
#1208=DIRECTION('',(-1.,0.,0.));
#1209=DIRECTION('',(0.,-1.,0.));
#1210=DIRECTION('',(1.,0.,0.));
#1211=DIRECTION('center_axis',(0.,1.,0.));
#1212=DIRECTION('ref_axis',(0.,0.,1.));
#1213=DIRECTION('',(0.,0.,1.));
#1214=DIRECTION('',(1.,0.,0.));
#1215=DIRECTION('center_axis',(0.,0.707106781186548,-0.707106781186548));
#1216=DIRECTION('ref_axis',(0.,0.707106781186548,0.707106781186548));
#1217=DIRECTION('',(0.,0.707106781186547,0.707106781186547));
#1218=DIRECTION('',(-1.,0.,0.));
#1219=DIRECTION('center_axis',(1.,0.,0.));
#1220=DIRECTION('ref_axis',(0.,0.,-1.));
#1221=DIRECTION('',(0.,0.,1.));
#1222=DIRECTION('center_axis',(0.,1.,0.));
#1223=DIRECTION('ref_axis',(-1.,0.,0.));
#1224=DIRECTION('',(-1.,0.,0.));
#1225=DIRECTION('',(0.,0.,1.));
#1226=DIRECTION('',(-1.,0.,0.));
#1227=DIRECTION('',(0.,0.,-1.));
#1228=DIRECTION('',(-1.,0.,0.));
#1229=DIRECTION('',(0.,0.,1.));
#1230=DIRECTION('',(-1.,0.,0.));
#1231=DIRECTION('',(0.,0.,-1.));
#1232=DIRECTION('',(1.,0.,0.));
#1233=DIRECTION('',(0.,0.,1.));
#1234=DIRECTION('',(-1.,0.,0.));
#1235=DIRECTION('',(0.,0.,1.));
#1236=DIRECTION('',(-1.,0.,0.));
#1237=DIRECTION('center_axis',(-1.,0.,0.));
#1238=DIRECTION('ref_axis',(0.,0.,1.));
#1239=DIRECTION('',(0.,1.,0.));
#1240=DIRECTION('',(0.,0.,-1.));
#1241=DIRECTION('',(0.,-0.707106781186547,-0.707106781186547));
#1242=DIRECTION('center_axis',(0.,0.,1.));
#1243=DIRECTION('ref_axis',(0.,-1.,0.));
#1244=DIRECTION('',(0.,-1.,0.));
#1245=DIRECTION('',(1.,0.,0.));
#1246=DIRECTION('center_axis',(0.,1.,0.));
#1247=DIRECTION('ref_axis',(0.,0.,1.));
#1248=DIRECTION('',(0.,0.,1.));
#1249=DIRECTION('',(1.,0.,0.));
#1250=DIRECTION('center_axis',(0.,0.707106781186548,-0.707106781186548));
#1251=DIRECTION('ref_axis',(0.,0.707106781186548,0.707106781186548));
#1252=DIRECTION('',(0.,0.707106781186547,0.707106781186547));
#1253=DIRECTION('',(-1.,0.,0.));
#1254=DIRECTION('center_axis',(1.,0.,0.));
#1255=DIRECTION('ref_axis',(0.,0.,-1.));
#1256=DIRECTION('center_axis',(0.,0.,-1.));
#1257=DIRECTION('ref_axis',(0.,1.,0.));
#1258=DIRECTION('',(1.,0.,0.));
#1259=DIRECTION('',(0.,-1.,0.));
#1260=DIRECTION('',(1.,0.,0.));
#1261=DIRECTION('',(0.,1.,0.));
#1262=DIRECTION('center_axis',(0.,0.,1.));
#1263=DIRECTION('ref_axis',(0.,-1.,0.));
#1264=DIRECTION('',(-1.,0.,0.));
#1265=DIRECTION('',(0.,-1.,0.));
#1266=DIRECTION('',(1.,0.,0.));
#1267=DIRECTION('',(0.,1.,0.));
#1268=DIRECTION('center_axis',(0.,1.,0.));
#1269=DIRECTION('ref_axis',(0.,0.,1.));
#1270=DIRECTION('',(0.,0.,1.));
#1271=DIRECTION('',(1.,0.,0.));
#1272=DIRECTION('',(0.,0.,-1.));
#1273=DIRECTION('center_axis',(0.,0.707106781186548,-0.707106781186547));
#1274=DIRECTION('ref_axis',(0.,0.707106781186547,0.707106781186548));
#1275=DIRECTION('',(0.,0.707106781186547,0.707106781186548));
#1276=DIRECTION('',(0.,-0.707106781186547,-0.707106781186548));
#1277=DIRECTION('center_axis',(-1.,0.,0.));
#1278=DIRECTION('ref_axis',(0.,0.,1.));
#1279=DIRECTION('',(0.,0.,1.));
#1280=DIRECTION('',(0.,1.,0.));
#1281=DIRECTION('',(0.,0.,-1.));
#1282=DIRECTION('',(0.,-0.395027750659416,0.918669187580036));
#1283=DIRECTION('',(0.,0.,1.));
#1284=DIRECTION('center_axis',(0.,1.,0.));
#1285=DIRECTION('ref_axis',(-1.,0.,0.));
#1286=DIRECTION('',(0.,0.,-1.));
#1287=DIRECTION('center_axis',(0.,1.,0.));
#1288=DIRECTION('ref_axis',(1.,0.,0.));
#1289=DIRECTION('',(0.,0.,1.));
#1290=DIRECTION('',(1.,0.,0.));
#1291=DIRECTION('',(0.,0.,1.));
#1292=DIRECTION('',(-1.,0.,0.));
#1293=DIRECTION('',(0.,0.,1.));
#1294=DIRECTION('',(1.,0.,0.));
#1295=DIRECTION('',(0.,0.,-1.));
#1296=DIRECTION('center_axis',(0.,1.,0.));
#1297=DIRECTION('ref_axis',(1.,0.,0.));
#1298=DIRECTION('',(0.,0.,1.));
#1299=DIRECTION('',(1.,0.,0.));
#1300=DIRECTION('',(0.,0.,-1.));
#1301=DIRECTION('',(-1.,0.,0.));
#1302=DIRECTION('center_axis',(-1.,0.,0.));
#1303=DIRECTION('ref_axis',(0.,0.,1.));
#1304=DIRECTION('',(0.,1.,0.));
#1305=DIRECTION('',(0.,0.,1.));
#1306=DIRECTION('',(0.,-1.,0.));
#1307=DIRECTION('',(0.,1.,0.));
#1308=DIRECTION('',(0.,0.,1.));
#1309=DIRECTION('center_axis',(0.,-1.,0.));
#1310=DIRECTION('ref_axis',(0.,0.,-1.));
#1311=DIRECTION('',(0.,0.,-1.));
#1312=DIRECTION('',(-1.,0.,0.));
#1313=DIRECTION('',(0.,0.,-1.));
#1314=DIRECTION('',(1.,0.,0.));
#1315=DIRECTION('center_axis',(1.,0.,0.));
#1316=DIRECTION('ref_axis',(0.,0.,-1.));
#1317=DIRECTION('',(0.,1.,0.));
#1318=DIRECTION('',(0.,-1.,0.));
#1319=DIRECTION('',(0.,0.,-1.));
#1320=DIRECTION('',(0.,-1.,0.));
#1321=DIRECTION('center_axis',(0.,0.,-1.));
#1322=DIRECTION('ref_axis',(0.,1.,0.));
#1323=DIRECTION('',(0.,-1.,0.));
#1324=DIRECTION('',(-1.,0.,0.));
#1325=DIRECTION('',(0.,1.,0.));
#1326=DIRECTION('',(1.,0.,0.));
#1327=DIRECTION('center_axis',(0.,-1.,0.));
#1328=DIRECTION('ref_axis',(0.,0.,-1.));
#1329=DIRECTION('',(-1.,0.,0.));
#1330=DIRECTION('',(0.,0.,1.));
#1331=DIRECTION('center_axis',(0.,0.,1.));
#1332=DIRECTION('ref_axis',(1.,0.,0.));
#1333=DIRECTION('',(-1.,0.,0.));
#1334=DIRECTION('',(0.,-1.,0.));
#1335=DIRECTION('',(1.,0.,0.));
#1336=DIRECTION('',(-0.507020126563394,0.86193421515777,0.));
#1337=DIRECTION('',(0.,1.,0.));
#1338=DIRECTION('center_axis',(0.,0.,1.));
#1339=DIRECTION('ref_axis',(1.,0.,0.));
#1340=DIRECTION('',(1.,0.,0.));
#1341=DIRECTION('',(0.,1.,0.));
#1342=DIRECTION('center_axis',(0.,0.,1.));
#1343=DIRECTION('ref_axis',(1.,0.,0.));
#1344=DIRECTION('',(0.,-1.,0.));
#1345=DIRECTION('',(1.,0.,0.));
#1346=DIRECTION('center_axis',(0.,-1.,0.));
#1347=DIRECTION('ref_axis',(1.,0.,0.));
#1348=DIRECTION('',(-1.,0.,0.));
#1349=DIRECTION('',(0.,0.,1.));
#1350=DIRECTION('',(1.,0.,0.));
#1351=DIRECTION('',(0.,0.,1.));
#1352=DIRECTION('center_axis',(0.,-1.,0.));
#1353=DIRECTION('ref_axis',(1.,0.,0.));
#1354=DIRECTION('',(0.,0.,-1.));
#1355=DIRECTION('center_axis',(0.,-1.,0.));
#1356=DIRECTION('ref_axis',(1.,0.,0.));
#1357=DIRECTION('',(0.,0.,1.));
#1358=DIRECTION('',(1.,0.,0.));
#1359=DIRECTION('center_axis',(0.,-1.,0.));
#1360=DIRECTION('ref_axis',(1.,0.,0.));
#1361=DIRECTION('',(0.,0.,1.));
#1362=DIRECTION('center_axis',(0.,-1.,0.));
#1363=DIRECTION('ref_axis',(1.,0.,0.));
#1364=DIRECTION('',(0.,0.,1.));
#1365=DIRECTION('',(1.,0.,0.));
#1366=DIRECTION('',(0.,0.,1.));
#1367=DIRECTION('center_axis',(1.,0.,0.));
#1368=DIRECTION('ref_axis',(0.,1.,0.));
#1369=DIRECTION('',(0.,1.,0.));
#1370=DIRECTION('center_axis',(-1.,0.,0.));
#1371=DIRECTION('ref_axis',(0.,-1.,0.));
#1372=DIRECTION('',(0.,-1.,0.));
#1373=DIRECTION('center_axis',(0.,-0.707106781186548,0.707106781186547));
#1374=DIRECTION('ref_axis',(0.,-0.707106781186547,-0.707106781186548));
#1375=DIRECTION('',(0.,0.707106781186547,0.707106781186548));
#1376=DIRECTION('',(1.,0.,0.));
#1377=DIRECTION('',(0.,-0.707106781186547,-0.707106781186548));
#1378=DIRECTION('center_axis',(-1.,0.,0.));
#1379=DIRECTION('ref_axis',(0.,0.,1.));
#1380=DIRECTION('',(0.,-0.707106781186547,0.707106781186548));
#1381=DIRECTION('',(0.,0.,1.));
#1382=DIRECTION('center_axis',(0.,-0.707106781186548,-0.707106781186547));
#1383=DIRECTION('ref_axis',(0.,0.707106781186547,-0.707106781186548));
#1384=DIRECTION('',(0.,0.707106781186547,-0.707106781186548));
#1385=DIRECTION('',(1.,0.,0.));
#1386=DIRECTION('center_axis',(0.,-1.,0.));
#1387=DIRECTION('ref_axis',(0.,0.,-1.));
#1388=DIRECTION('',(0.,0.,-1.));
#1389=DIRECTION('center_axis',(1.,0.,0.));
#1390=DIRECTION('ref_axis',(0.,0.,-1.));
#1391=DIRECTION('center_axis',(0.,-0.918669187580036,-0.395027750659416));
#1392=DIRECTION('ref_axis',(0.,0.395027750659416,-0.918669187580036));
#1393=DIRECTION('',(0.,0.395027750659416,-0.918669187580036));
#1394=DIRECTION('',(1.,0.,0.));
#1395=DIRECTION('center_axis',(0.,-1.,0.));
#1396=DIRECTION('ref_axis',(0.,0.,-1.));
#1397=DIRECTION('',(0.,0.,-1.));
#1398=DIRECTION('center_axis',(1.,0.,0.));
#1399=DIRECTION('ref_axis',(0.,0.,-1.));
#1400=DIRECTION('',(0.,1.,0.));
#1401=DIRECTION('center_axis',(-1.,0.,0.));
#1402=DIRECTION('ref_axis',(0.,0.,1.));
#1403=DIRECTION('',(0.,1.,0.));
#1404=DIRECTION('center_axis',(0.,1.,0.));
#1405=DIRECTION('ref_axis',(1.,0.,0.));
#1406=DIRECTION('center_axis',(0.,1.,0.));
#1407=DIRECTION('ref_axis',(1.,0.,0.));
#1408=DIRECTION('',(0.,1.,0.));
#1409=DIRECTION('center_axis',(1.,0.,0.));
#1410=DIRECTION('ref_axis',(0.,0.,-1.));
#1411=DIRECTION('',(0.,-1.,0.));
#1412=DIRECTION('center_axis',(0.,0.,1.));
#1413=DIRECTION('ref_axis',(1.,0.,0.));
#1414=DIRECTION('',(-0.507020126563394,-0.86193421515777,0.));
#1415=DIRECTION('',(1.,0.,0.));
#1416=DIRECTION('',(0.,1.,0.));
#1417=DIRECTION('center_axis',(0.86193421515777,-0.507020126563394,0.));
#1418=DIRECTION('ref_axis',(0.507020126563394,0.86193421515777,0.));
#1419=DIRECTION('',(0.,0.,-1.));
#1420=DIRECTION('',(0.507020126563394,0.86193421515777,0.));
#1421=DIRECTION('center_axis',(-0.86193421515777,-0.507020126563394,0.));
#1422=DIRECTION('ref_axis',(0.507020126563394,-0.86193421515777,0.));
#1423=DIRECTION('',(0.,0.,1.));
#1424=DIRECTION('',(0.507020126563394,-0.86193421515777,0.));
#1425=DIRECTION('center_axis',(0.,0.,1.));
#1426=DIRECTION('ref_axis',(1.,0.,0.));
#1427=DIRECTION('',(1.,0.,0.));
#1428=DIRECTION('',(0.,-1.,0.));
#1429=DIRECTION('',(0.,1.,0.));
#1430=DIRECTION('',(1.,0.,0.));
#1431=DIRECTION('center_axis',(0.,-1.,0.));
#1432=DIRECTION('ref_axis',(1.,0.,0.));
#1433=DIRECTION('',(0.,0.,1.));
#1434=DIRECTION('center_axis',(1.,0.,0.));
#1435=DIRECTION('ref_axis',(0.,1.,0.));
#1436=DIRECTION('',(0.,0.,1.));
#1437=DIRECTION('center_axis',(0.,-1.,0.));
#1438=DIRECTION('ref_axis',(1.,0.,0.));
#1439=DIRECTION('center_axis',(-1.,0.,0.));
#1440=DIRECTION('ref_axis',(0.,-1.,0.));
#1441=CARTESIAN_POINT('',(0.,0.,0.));
#1442=CARTESIAN_POINT('Origin',(-32.,13.75,27.));
#1443=CARTESIAN_POINT('',(-34.25,7.5,27.));
#1444=CARTESIAN_POINT('Origin',(-32.,7.5,27.));
#1445=CARTESIAN_POINT('',(-34.25,11.,27.));
#1446=CARTESIAN_POINT('',(-34.25,13.75,27.));
#1447=CARTESIAN_POINT('Origin',(-32.,11.,27.));
#1448=CARTESIAN_POINT('Origin',(32.,13.75,27.));
#1449=CARTESIAN_POINT('',(29.75,7.5,27.));
#1450=CARTESIAN_POINT('Origin',(32.,7.5,27.));
#1451=CARTESIAN_POINT('',(29.75,11.,27.));
#1452=CARTESIAN_POINT('',(29.75,13.75,27.));
#1453=CARTESIAN_POINT('Origin',(32.,11.,27.));
#1454=CARTESIAN_POINT('Origin',(-32.,11.,27.));
#1455=CARTESIAN_POINT('',(-34.8,11.,27.));
#1456=CARTESIAN_POINT('Origin',(-32.,11.,27.));
#1457=CARTESIAN_POINT('Origin',(-32.,15.5,27.));
#1458=CARTESIAN_POINT('',(-34.8,20.,27.));
#1459=CARTESIAN_POINT('',(-34.8,15.5,27.));
#1460=CARTESIAN_POINT('Origin',(-32.,20.,27.));
#1461=CARTESIAN_POINT('Origin',(32.,11.,27.));
#1462=CARTESIAN_POINT('',(29.2,11.,27.));
#1463=CARTESIAN_POINT('Origin',(32.,11.,27.));
#1464=CARTESIAN_POINT('Origin',(32.,15.5,27.));
#1465=CARTESIAN_POINT('',(29.2,20.,27.));
#1466=CARTESIAN_POINT('',(29.2,15.5,27.));
#1467=CARTESIAN_POINT('Origin',(32.,20.,27.));
#1468=CARTESIAN_POINT('Origin',(28.2,16.,23.));
#1469=CARTESIAN_POINT('',(28.2,12.,38.));
#1470=CARTESIAN_POINT('',(28.2,12.,8.));
#1471=CARTESIAN_POINT('',(28.2,12.,15.5));
#1472=CARTESIAN_POINT('',(28.2,20.,38.));
#1473=CARTESIAN_POINT('',(28.2,20.,38.));
#1474=CARTESIAN_POINT('',(28.2,20.,16.));
#1475=CARTESIAN_POINT('',(28.2,20.,16.));
#1476=CARTESIAN_POINT('',(28.2,12.,8.));
#1477=CARTESIAN_POINT('Origin',(34.1,20.,38.));
#1478=CARTESIAN_POINT('',(40.,12.,38.));
#1479=CARTESIAN_POINT('',(37.55,12.,38.));
#1480=CARTESIAN_POINT('',(40.,20.,38.));
#1481=CARTESIAN_POINT('',(40.,20.,38.));
#1482=CARTESIAN_POINT('',(34.1,20.,38.));
#1483=CARTESIAN_POINT('Origin',(34.1,20.,16.));
#1484=CARTESIAN_POINT('',(40.,20.,16.));
#1485=CARTESIAN_POINT('',(40.,20.,16.));
#1486=CARTESIAN_POINT('',(34.1,20.,16.));
#1487=CARTESIAN_POINT('Origin',(34.1,12.,8.));
#1488=CARTESIAN_POINT('',(40.,12.,8.));
#1489=CARTESIAN_POINT('',(40.,12.,8.));
#1490=CARTESIAN_POINT('',(41.,12.,8.));
#1491=CARTESIAN_POINT('Origin',(40.,16.,23.));
#1492=CARTESIAN_POINT('',(40.,12.,15.5));
#1493=CARTESIAN_POINT('Origin',(41.,12.,8.));
#1494=CARTESIAN_POINT('',(-28.2,12.,8.));
#1495=CARTESIAN_POINT('',(41.,12.,8.));
#1496=CARTESIAN_POINT('',(-28.2,12.,38.));
#1497=CARTESIAN_POINT('',(-28.2,12.,15.5));
#1498=CARTESIAN_POINT('',(-40.,12.,38.));
#1499=CARTESIAN_POINT('',(3.45,12.,38.));
#1500=CARTESIAN_POINT('',(-40.,12.,8.));
#1501=CARTESIAN_POINT('',(-40.,12.,15.5));
#1502=CARTESIAN_POINT('',(-41.,12.,8.));
#1503=CARTESIAN_POINT('',(41.,12.,8.));
#1504=CARTESIAN_POINT('',(-41.,12.,42.));
#1505=CARTESIAN_POINT('',(-41.,12.,8.));
#1506=CARTESIAN_POINT('',(-9.,12.,42.));
#1507=CARTESIAN_POINT('',(41.,12.,42.));
#1508=CARTESIAN_POINT('',(-9.,12.,28.));
#1509=CARTESIAN_POINT('',(-9.,12.,21.75));
#1510=CARTESIAN_POINT('',(9.,12.,28.));
#1511=CARTESIAN_POINT('',(20.5,12.,28.));
#1512=CARTESIAN_POINT('',(9.,12.,42.));
#1513=CARTESIAN_POINT('',(9.,12.,21.75));
#1514=CARTESIAN_POINT('',(41.,12.,42.));
#1515=CARTESIAN_POINT('',(41.,12.,42.));
#1516=CARTESIAN_POINT('',(41.,12.,8.));
#1517=CARTESIAN_POINT('',(41.,12.,8.));
#1518=CARTESIAN_POINT('',(41.,12.,8.));
#1519=CARTESIAN_POINT('Origin',(-40.,16.,23.));
#1520=CARTESIAN_POINT('',(-40.,20.,38.));
#1521=CARTESIAN_POINT('',(-40.,20.,38.));
#1522=CARTESIAN_POINT('',(-40.,20.,16.));
#1523=CARTESIAN_POINT('',(-40.,20.,16.));
#1524=CARTESIAN_POINT('',(-40.,12.,8.));
#1525=CARTESIAN_POINT('Origin',(-34.1,20.,38.));
#1526=CARTESIAN_POINT('',(-28.2,20.,38.));
#1527=CARTESIAN_POINT('',(-28.2,20.,38.));
#1528=CARTESIAN_POINT('',(-34.1,20.,38.));
#1529=CARTESIAN_POINT('Origin',(-34.1,20.,16.));
#1530=CARTESIAN_POINT('',(-28.2,20.,16.));
#1531=CARTESIAN_POINT('',(-28.2,20.,16.));
#1532=CARTESIAN_POINT('',(-34.1,20.,16.));
#1533=CARTESIAN_POINT('Origin',(-34.1,12.,8.));
#1534=CARTESIAN_POINT('',(-28.2,12.,8.));
#1535=CARTESIAN_POINT('',(41.,12.,8.));
#1536=CARTESIAN_POINT('Origin',(-28.2,16.,23.));
#1537=CARTESIAN_POINT('Origin',(0.,4.25,29.));
#1538=CARTESIAN_POINT('',(-4.,5.85,29.));
#1539=CARTESIAN_POINT('',(4.,5.85,29.));
#1540=CARTESIAN_POINT('',(0.,5.85,29.));
#1541=CARTESIAN_POINT('',(-4.,7.5,29.));
#1542=CARTESIAN_POINT('',(-4.,4.25,29.));
#1543=CARTESIAN_POINT('',(4.,7.5,29.));
#1544=CARTESIAN_POINT('',(0.,7.5,29.));
#1545=CARTESIAN_POINT('',(4.,4.25,29.));
#1546=CARTESIAN_POINT('Origin',(0.,10.5,34.5));
#1547=CARTESIAN_POINT('',(4.,4.25,34.5));
#1548=CARTESIAN_POINT('',(-4.,4.25,34.5));
#1549=CARTESIAN_POINT('',(0.,4.25,34.5));
#1550=CARTESIAN_POINT('',(4.,10.5,34.5));
#1551=CARTESIAN_POINT('',(4.,10.5,34.5));
#1552=CARTESIAN_POINT('',(-4.,10.5,34.5));
#1553=CARTESIAN_POINT('',(0.,10.5,34.5));
#1554=CARTESIAN_POINT('',(-4.,10.5,34.5));
#1555=CARTESIAN_POINT('Origin',(0.,10.5,32.));
#1556=CARTESIAN_POINT('',(4.,10.5,32.));
#1557=CARTESIAN_POINT('',(4.,10.5,32.));
#1558=CARTESIAN_POINT('',(-4.,10.5,32.));
#1559=CARTESIAN_POINT('',(0.,10.5,32.));
#1560=CARTESIAN_POINT('',(-4.,10.5,32.));
#1561=CARTESIAN_POINT('Origin',(0.,7.5,29.));
#1562=CARTESIAN_POINT('',(4.,7.5,29.));
#1563=CARTESIAN_POINT('',(-4.,7.5,29.));
#1564=CARTESIAN_POINT('Origin',(4.,5.75,10.));
#1565=CARTESIAN_POINT('',(4.,4.25,10.));
#1566=CARTESIAN_POINT('',(4.,4.25,9.));
#1567=CARTESIAN_POINT('',(4.,7.5,10.));
#1568=CARTESIAN_POINT('',(4.,5.75,10.));
#1569=CARTESIAN_POINT('',(4.,7.5,10.1627906976744));
#1570=CARTESIAN_POINT('',(4.,7.5,9.));
#1571=CARTESIAN_POINT('',(4.,5.85,14.));
#1572=CARTESIAN_POINT('',(4.,6.56799729935016,12.3302388387206));
#1573=CARTESIAN_POINT('',(4.,5.85,20.5));
#1574=CARTESIAN_POINT('Origin',(8.25,4.25,8.));
#1575=CARTESIAN_POINT('',(-4.,4.25,10.));
#1576=CARTESIAN_POINT('',(-4.,4.25,19.25));
#1577=CARTESIAN_POINT('',(-5.5,4.25,10.));
#1578=CARTESIAN_POINT('Origin',(-4.75,4.25,10.));
#1579=CARTESIAN_POINT('',(-5.5,4.25,30.));
#1580=CARTESIAN_POINT('',(-5.5,4.25,9.));
#1581=CARTESIAN_POINT('',(-8.25,4.25,30.));
#1582=CARTESIAN_POINT('',(4.125,4.25,30.));
#1583=CARTESIAN_POINT('',(-8.25,4.25,8.));
#1584=CARTESIAN_POINT('',(-8.25,4.25,8.));
#1585=CARTESIAN_POINT('',(8.25,4.25,8.));
#1586=CARTESIAN_POINT('',(4.125,4.25,8.));
#1587=CARTESIAN_POINT('',(8.25,4.25,30.));
#1588=CARTESIAN_POINT('',(8.25,4.25,8.));
#1589=CARTESIAN_POINT('',(5.5,4.25,30.));
#1590=CARTESIAN_POINT('',(4.125,4.25,30.));
#1591=CARTESIAN_POINT('',(5.5,4.25,10.));
#1592=CARTESIAN_POINT('',(5.5,4.25,19.25));
#1593=CARTESIAN_POINT('Origin',(4.75,4.25,10.));
#1594=CARTESIAN_POINT('',(-3.,4.25,22.45));
#1595=CARTESIAN_POINT('',(-3.,4.25,26.55));
#1596=CARTESIAN_POINT('',(-3.,4.25,16.25));
#1597=CARTESIAN_POINT('',(3.,4.25,26.55));
#1598=CARTESIAN_POINT('',(4.125,4.25,26.55));
#1599=CARTESIAN_POINT('',(3.,4.25,22.45));
#1600=CARTESIAN_POINT('',(3.,4.25,16.25));
#1601=CARTESIAN_POINT('',(4.125,4.25,22.45));
#1602=CARTESIAN_POINT('Origin',(-9.,9.975,35.5));
#1603=CARTESIAN_POINT('',(-9.,7.45,30.));
#1604=CARTESIAN_POINT('',(-9.,7.5,30.));
#1605=CARTESIAN_POINT('',(-9.,6.925,30.));
#1606=CARTESIAN_POINT('',(-9.,7.45,28.));
#1607=CARTESIAN_POINT('',(-9.,7.45,43.));
#1608=CARTESIAN_POINT('',(-9.,7.45,28.));
#1609=CARTESIAN_POINT('',(-9.,7.5,42.));
#1610=CARTESIAN_POINT('',(-9.,9.8625,42.));
#1611=CARTESIAN_POINT('',(-9.,7.5,21.75));
#1612=CARTESIAN_POINT('Origin',(0.,7.45,43.));
#1613=CARTESIAN_POINT('',(5.5,7.45,30.));
#1614=CARTESIAN_POINT('',(5.5,7.45,28.));
#1615=CARTESIAN_POINT('',(5.5,7.45,36.75));
#1616=CARTESIAN_POINT('',(9.,7.45,30.));
#1617=CARTESIAN_POINT('',(0.,7.45,30.));
#1618=CARTESIAN_POINT('',(9.,7.45,28.));
#1619=CARTESIAN_POINT('',(9.,7.45,43.));
#1620=CARTESIAN_POINT('',(0.,7.45,28.));
#1621=CARTESIAN_POINT('Origin',(9.,9.975,35.5));
#1622=CARTESIAN_POINT('',(9.,7.45,28.));
#1623=CARTESIAN_POINT('',(9.,7.5,30.));
#1624=CARTESIAN_POINT('',(9.,6.925,30.));
#1625=CARTESIAN_POINT('',(9.,7.5,42.));
#1626=CARTESIAN_POINT('',(9.,7.5,21.75));
#1627=CARTESIAN_POINT('',(9.,9.8625,42.));
#1628=CARTESIAN_POINT('Origin',(0.,7.45,28.));
#1629=CARTESIAN_POINT('',(-5.5,7.5,28.));
#1630=CARTESIAN_POINT('',(-5.5,7.45,28.));
#1631=CARTESIAN_POINT('',(-5.5,6.6,28.));
#1632=CARTESIAN_POINT('',(5.5,7.5,28.));
#1633=CARTESIAN_POINT('',(-20.5,7.5,28.));
#1634=CARTESIAN_POINT('',(5.5,6.6,28.));
#1635=CARTESIAN_POINT('',(0.,7.45,28.));
#1636=CARTESIAN_POINT('Origin',(0.,7.45,43.));
#1637=CARTESIAN_POINT('',(-5.5,7.45,30.));
#1638=CARTESIAN_POINT('',(0.,7.45,30.));
#1639=CARTESIAN_POINT('',(-5.5,7.45,26.5));
#1640=CARTESIAN_POINT('Origin',(0.,3.875,30.));
#1641=CARTESIAN_POINT('',(-13.,7.5,30.));
#1642=CARTESIAN_POINT('',(13.,7.5,30.));
#1643=CARTESIAN_POINT('',(-13.,0.25,30.));
#1644=CARTESIAN_POINT('',(-13.,7.5,30.));
#1645=CARTESIAN_POINT('',(-5.89705882352941,0.25,30.));
#1646=CARTESIAN_POINT('',(-13.,0.25,30.));
#1647=CARTESIAN_POINT('',(-7.10764781491003,2.30800128534704,30.));
#1648=CARTESIAN_POINT('',(-5.5,4.8125,30.));
#1649=CARTESIAN_POINT('Origin',(0.,9.75,42.));
#1650=CARTESIAN_POINT('',(41.,7.5,42.));
#1651=CARTESIAN_POINT('',(-41.,7.5,42.));
#1652=CARTESIAN_POINT('',(41.,7.5,42.));
#1653=CARTESIAN_POINT('Origin',(0.,9.75,42.));
#1654=CARTESIAN_POINT('',(-41.,7.5,42.));
#1655=CARTESIAN_POINT('',(-41.,12.,42.));
#1656=CARTESIAN_POINT('',(-41.,7.5,42.));
#1657=CARTESIAN_POINT('Origin',(-41.,7.5,8.));
#1658=CARTESIAN_POINT('',(13.,7.5,30.));
#1659=CARTESIAN_POINT('',(13.,7.5,30.));
#1660=CARTESIAN_POINT('',(13.,7.5,8.));
#1661=CARTESIAN_POINT('',(13.,7.5,8.));
#1662=CARTESIAN_POINT('',(41.,7.5,8.));
#1663=CARTESIAN_POINT('',(-41.,7.5,8.));
#1664=CARTESIAN_POINT('',(41.,7.5,8.));
#1665=CARTESIAN_POINT('Origin',(-41.,7.5,8.));
#1666=CARTESIAN_POINT('',(-5.5,7.5,10.));
#1667=CARTESIAN_POINT('',(-5.5,7.5,9.));
#1668=CARTESIAN_POINT('',(-4.,7.5,10.));
#1669=CARTESIAN_POINT('Origin',(-4.75,7.5,10.));
#1670=CARTESIAN_POINT('',(-4.,7.5,10.1627906976744));
#1671=CARTESIAN_POINT('',(-4.,7.5,19.25));
#1672=CARTESIAN_POINT('',(6.5,7.5,10.1627906976744));
#1673=CARTESIAN_POINT('',(5.5,7.5,10.));
#1674=CARTESIAN_POINT('Origin',(4.75,7.5,10.));
#1675=CARTESIAN_POINT('',(5.5,7.5,19.25));
#1676=CARTESIAN_POINT('Origin',(-41.,7.5,8.));
#1677=CARTESIAN_POINT('',(-41.,7.5,8.));
#1678=CARTESIAN_POINT('',(-41.,7.5,8.));
#1679=CARTESIAN_POINT('',(-13.,7.5,8.));
#1680=CARTESIAN_POINT('',(-41.,7.5,8.));
#1681=CARTESIAN_POINT('',(-13.,7.5,8.));
#1682=CARTESIAN_POINT('Origin',(41.,7.5,8.));
#1683=CARTESIAN_POINT('',(41.,7.5,8.));
#1684=CARTESIAN_POINT('Origin',(-41.,12.,8.));
#1685=CARTESIAN_POINT('',(-41.,12.,8.));
#1686=CARTESIAN_POINT('Origin',(0.,4.75,27.05));
#1687=CARTESIAN_POINT('',(-3.,3.1,25.4));
#1688=CARTESIAN_POINT('',(-3.,3.1,25.4));
#1689=CARTESIAN_POINT('',(3.,3.1,25.4));
#1690=CARTESIAN_POINT('',(0.,3.1,25.4));
#1691=CARTESIAN_POINT('',(3.,3.1,25.4));
#1692=CARTESIAN_POINT('Origin',(-3.,3.925,24.5));
#1693=CARTESIAN_POINT('',(-3.,3.1,23.6));
#1694=CARTESIAN_POINT('',(-3.,4.75,21.95));
#1695=CARTESIAN_POINT('',(-3.,3.1,23.6));
#1696=CARTESIAN_POINT('Origin',(0.,3.1,23.6));
#1697=CARTESIAN_POINT('',(3.,3.1,23.6));
#1698=CARTESIAN_POINT('',(3.,4.75,21.95));
#1699=CARTESIAN_POINT('',(0.,3.1,23.6));
#1700=CARTESIAN_POINT('Origin',(0.,3.1,25.4));
#1701=CARTESIAN_POINT('',(3.,3.1,23.6));
#1702=CARTESIAN_POINT('Origin',(3.,3.925,24.5));
#1703=CARTESIAN_POINT('Origin',(0.,5.85,14.));
#1704=CARTESIAN_POINT('',(-4.,5.85,14.));
#1705=CARTESIAN_POINT('',(-4.,2.84827411595915,20.9807578698624));
#1706=CARTESIAN_POINT('',(0.,5.85,14.));
#1707=CARTESIAN_POINT('Origin',(0.,5.85,31.));
#1708=CARTESIAN_POINT('',(-4.,5.85,30.75));
#1709=CARTESIAN_POINT('Origin',(-4.,5.75,30.5));
#1710=CARTESIAN_POINT('',(-4.,5.75,10.));
#1711=CARTESIAN_POINT('Origin',(-5.5,5.75,10.));
#1712=CARTESIAN_POINT('',(-5.5,5.75,10.));
#1713=CARTESIAN_POINT('Origin',(-4.75,5.75,10.));
#1714=CARTESIAN_POINT('Origin',(4.75,5.75,10.));
#1715=CARTESIAN_POINT('',(5.5,5.75,10.));
#1716=CARTESIAN_POINT('Origin',(5.5,5.75,30.5));
#1717=CARTESIAN_POINT('',(5.5,4.8125,30.));
#1718=CARTESIAN_POINT('Origin',(0.,3.875,30.));
#1719=CARTESIAN_POINT('',(5.89705882352941,0.25,30.));
#1720=CARTESIAN_POINT('',(5.5635301678512,-0.316998714652956,30.));
#1721=CARTESIAN_POINT('',(13.,0.25,30.));
#1722=CARTESIAN_POINT('',(-13.,0.25,30.));
#1723=CARTESIAN_POINT('',(13.,0.25,30.));
#1724=CARTESIAN_POINT('Origin',(5.16176470588235,-1.,8.));
#1725=CARTESIAN_POINT('',(5.89705882352941,0.25,8.));
#1726=CARTESIAN_POINT('',(5.89705882352941,0.25,8.));
#1727=CARTESIAN_POINT('',(5.5635301678512,-0.316998714652956,8.));
#1728=CARTESIAN_POINT('Origin',(-8.25,4.25,8.));
#1729=CARTESIAN_POINT('',(-5.89705882352941,0.25,8.));
#1730=CARTESIAN_POINT('',(-5.89705882352941,0.25,8.));
#1731=CARTESIAN_POINT('',(-7.10764781491003,2.30800128534704,8.));
#1732=CARTESIAN_POINT('Origin',(0.,3.875,8.));
#1733=CARTESIAN_POINT('',(-13.,0.25,8.));
#1734=CARTESIAN_POINT('',(-13.,0.25,8.));
#1735=CARTESIAN_POINT('',(-13.,7.5,8.));
#1736=CARTESIAN_POINT('',(13.,0.25,8.));
#1737=CARTESIAN_POINT('',(13.,0.25,8.));
#1738=CARTESIAN_POINT('',(-13.,0.25,8.));
#1739=CARTESIAN_POINT('Origin',(-13.,0.25,8.));
#1740=CARTESIAN_POINT('',(-13.,0.25,8.));
#1741=CARTESIAN_POINT('Origin',(13.,0.25,8.));
#1742=CARTESIAN_POINT('',(13.,0.25,8.));
#1743=CARTESIAN_POINT('Origin',(-13.,0.25,8.));
#1744=CARTESIAN_POINT('Origin',(-13.,7.5,8.));
#1745=UNCERTAINTY_MEASURE_WITH_UNIT(LENGTH_MEASURE(0.01),#1749,
'DISTANCE_ACCURACY_VALUE',
'Maximum model space distance between geometric entities at asserted c
onnectivities');
#1746=UNCERTAINTY_MEASURE_WITH_UNIT(LENGTH_MEASURE(0.01),#1749,
'DISTANCE_ACCURACY_VALUE',
'Maximum model space distance between geometric entities at asserted c
onnectivities');
#1747=(
GEOMETRIC_REPRESENTATION_CONTEXT(3)
GLOBAL_UNCERTAINTY_ASSIGNED_CONTEXT((#1745))
GLOBAL_UNIT_ASSIGNED_CONTEXT((#1749,#1751,#1752))
REPRESENTATION_CONTEXT('','3D')
);
#1748=(
GEOMETRIC_REPRESENTATION_CONTEXT(3)
GLOBAL_UNCERTAINTY_ASSIGNED_CONTEXT((#1746))
GLOBAL_UNIT_ASSIGNED_CONTEXT((#1749,#1751,#1752))
REPRESENTATION_CONTEXT('','3D')
);
#1749=(
LENGTH_UNIT()
NAMED_UNIT(*)
SI_UNIT(.MILLI.,.METRE.)
);
#1750=(
LENGTH_UNIT()
NAMED_UNIT(*)
SI_UNIT($,.METRE.)
);
#1751=(
NAMED_UNIT(*)
PLANE_ANGLE_UNIT()
SI_UNIT($,.RADIAN.)
);
#1752=(
NAMED_UNIT(*)
SI_UNIT($,.STERADIAN.)
SOLID_ANGLE_UNIT()
);
#1753=SHAPE_DEFINITION_REPRESENTATION(#1754,#1755);
#1754=PRODUCT_DEFINITION_SHAPE('',$,#1757);
#1755=SHAPE_REPRESENTATION('',(#1097),#1747);
#1756=PRODUCT_DEFINITION_CONTEXT('part definition',#1761,'design');
#1757=PRODUCT_DEFINITION('(Nicht gespeichert)','(Nicht gespeichert)',#1758,
#1756);
#1758=PRODUCT_DEFINITION_FORMATION('',$,#1763);
#1759=PRODUCT_RELATED_PRODUCT_CATEGORY('(Nicht gespeichert)',
'(Nicht gespeichert)',(#1763));
#1760=APPLICATION_PROTOCOL_DEFINITION('international standard',
'automotive_design',2009,#1761);
#1761=APPLICATION_CONTEXT(
'Core Data for Automotive Mechanical Design Process');
#1762=PRODUCT_CONTEXT('part definition',#1761,'mechanical');
#1763=PRODUCT('(Nicht gespeichert)','(Nicht gespeichert)',$,(#1762));
#1764=PRESENTATION_STYLE_ASSIGNMENT((#1765));
#1765=SURFACE_STYLE_USAGE(.BOTH.,#1766);
#1766=SURFACE_SIDE_STYLE('',(#1767));
#1767=SURFACE_STYLE_FILL_AREA(#1768);
#1768=FILL_AREA_STYLE('Stahl - satiniert',(#1769));
#1769=FILL_AREA_STYLE_COLOUR('Stahl - satiniert',#1770);
#1770=COLOUR_RGB('Stahl - satiniert',0.627450980392157,0.627450980392157,
0.627450980392157);
ENDSEC;
END-ISO-10303-21;
