ISO-10303-21;
HEADER;
/* Generated by software containing ST-Developer
 * from STEP Tools, Inc. (www.steptools.com) 
 */

FILE_DESCRIPTION(
/* description */ (''),
/* implementation_level */ '2;1');

FILE_NAME(
/* name */ 'snap_interface.step',
/* time_stamp */ '2026-08-14T00:23:20+02:00',
/* author */ (''),
/* organization */ (''),
/* preprocessor_version */ 'ST-DEVELOPER v20.1',
/* originating_system */ 'Autodesk Translation Framework v15.8.0.0',
/* authorisation */ '');

FILE_SCHEMA (('AUTOMOTIVE_DESIGN { 1 0 10303 214 3 1 1 }'));
ENDSEC;

DATA;
#10=MECHANICAL_DESIGN_GEOMETRIC_PRESENTATION_REPRESENTATION('',(#13,#14,
#15,#16),#2102);
#11=SHAPE_REPRESENTATION_RELATIONSHIP('SRR','None',#2109,#12);
#12=ADVANCED_BREP_SHAPE_REPRESENTATION('',(#17,#18,#19,#20),#2101);
#13=STYLED_ITEM('',(#2118),#17);
#14=STYLED_ITEM('',(#2118),#18);
#15=STYLED_ITEM('',(#2118),#19);
#16=STYLED_ITEM('',(#2118),#20);
#17=MANIFOLD_SOLID_BREP('snap_rail_pruefklotz',#1287);
#18=MANIFOLD_SOLID_BREP('snap_rail_pruefklotz',#1288);
#19=MANIFOLD_SOLID_BREP('snap_rail_pruefklotz',#1289);
#20=MANIFOLD_SOLID_BREP('snap_adapter',#1290);
#21=FACE_BOUND('',#146,.T.);
#22=FACE_BOUND('',#176,.T.);
#23=FACE_BOUND('',#197,.T.);
#24=FACE_BOUND('',#198,.T.);
#25=FACE_BOUND('',#201,.T.);
#26=FACE_BOUND('',#202,.T.);
#27=CIRCLE('',#1313,2.);
#28=CIRCLE('',#1314,2.);
#29=CIRCLE('',#1316,2.);
#30=CIRCLE('',#1317,2.);
#31=CIRCLE('',#1331,2.);
#32=CIRCLE('',#1332,2.);
#33=CIRCLE('',#1340,2.);
#34=CIRCLE('',#1342,2.);
#35=CIRCLE('',#1345,2.);
#36=CIRCLE('',#1347,2.);
#37=CIRCLE('',#1349,2.);
#38=CIRCLE('',#1351,2.);
#39=CIRCLE('',#1353,2.);
#40=CIRCLE('',#1355,2.);
#41=CIRCLE('',#1357,2.);
#42=CIRCLE('',#1359,2.);
#43=CIRCLE('',#1366,0.75);
#44=CIRCLE('',#1367,0.75);
#45=CIRCLE('',#1377,0.75);
#46=CIRCLE('',#1378,0.75);
#47=CYLINDRICAL_SURFACE('',#1312,2.);
#48=CYLINDRICAL_SURFACE('',#1315,2.);
#49=CYLINDRICAL_SURFACE('',#1330,2.);
#50=CYLINDRICAL_SURFACE('',#1343,2.);
#51=CYLINDRICAL_SURFACE('',#1346,2.);
#52=CYLINDRICAL_SURFACE('',#1350,2.);
#53=CYLINDRICAL_SURFACE('',#1354,2.);
#54=CYLINDRICAL_SURFACE('',#1358,2.);
#55=CYLINDRICAL_SURFACE('',#1380,0.75);
#56=CYLINDRICAL_SURFACE('',#1381,0.75);
#57=FACE_OUTER_BOUND('',#129,.T.);
#58=FACE_OUTER_BOUND('',#130,.T.);
#59=FACE_OUTER_BOUND('',#131,.T.);
#60=FACE_OUTER_BOUND('',#132,.T.);
#61=FACE_OUTER_BOUND('',#133,.T.);
#62=FACE_OUTER_BOUND('',#134,.T.);
#63=FACE_OUTER_BOUND('',#135,.T.);
#64=FACE_OUTER_BOUND('',#136,.T.);
#65=FACE_OUTER_BOUND('',#137,.T.);
#66=FACE_OUTER_BOUND('',#138,.T.);
#67=FACE_OUTER_BOUND('',#139,.T.);
#68=FACE_OUTER_BOUND('',#140,.T.);
#69=FACE_OUTER_BOUND('',#141,.T.);
#70=FACE_OUTER_BOUND('',#142,.T.);
#71=FACE_OUTER_BOUND('',#143,.T.);
#72=FACE_OUTER_BOUND('',#144,.T.);
#73=FACE_OUTER_BOUND('',#145,.T.);
#74=FACE_OUTER_BOUND('',#147,.T.);
#75=FACE_OUTER_BOUND('',#148,.T.);
#76=FACE_OUTER_BOUND('',#149,.T.);
#77=FACE_OUTER_BOUND('',#150,.T.);
#78=FACE_OUTER_BOUND('',#151,.T.);
#79=FACE_OUTER_BOUND('',#152,.T.);
#80=FACE_OUTER_BOUND('',#153,.T.);
#81=FACE_OUTER_BOUND('',#154,.T.);
#82=FACE_OUTER_BOUND('',#155,.T.);
#83=FACE_OUTER_BOUND('',#156,.T.);
#84=FACE_OUTER_BOUND('',#157,.T.);
#85=FACE_OUTER_BOUND('',#158,.T.);
#86=FACE_OUTER_BOUND('',#159,.T.);
#87=FACE_OUTER_BOUND('',#160,.T.);
#88=FACE_OUTER_BOUND('',#161,.T.);
#89=FACE_OUTER_BOUND('',#162,.T.);
#90=FACE_OUTER_BOUND('',#163,.T.);
#91=FACE_OUTER_BOUND('',#164,.T.);
#92=FACE_OUTER_BOUND('',#165,.T.);
#93=FACE_OUTER_BOUND('',#166,.T.);
#94=FACE_OUTER_BOUND('',#167,.T.);
#95=FACE_OUTER_BOUND('',#168,.T.);
#96=FACE_OUTER_BOUND('',#169,.T.);
#97=FACE_OUTER_BOUND('',#170,.T.);
#98=FACE_OUTER_BOUND('',#171,.T.);
#99=FACE_OUTER_BOUND('',#172,.T.);
#100=FACE_OUTER_BOUND('',#173,.T.);
#101=FACE_OUTER_BOUND('',#174,.T.);
#102=FACE_OUTER_BOUND('',#175,.T.);
#103=FACE_OUTER_BOUND('',#177,.T.);
#104=FACE_OUTER_BOUND('',#178,.T.);
#105=FACE_OUTER_BOUND('',#179,.T.);
#106=FACE_OUTER_BOUND('',#180,.T.);
#107=FACE_OUTER_BOUND('',#181,.T.);
#108=FACE_OUTER_BOUND('',#182,.T.);
#109=FACE_OUTER_BOUND('',#183,.T.);
#110=FACE_OUTER_BOUND('',#184,.T.);
#111=FACE_OUTER_BOUND('',#185,.T.);
#112=FACE_OUTER_BOUND('',#186,.T.);
#113=FACE_OUTER_BOUND('',#187,.T.);
#114=FACE_OUTER_BOUND('',#188,.T.);
#115=FACE_OUTER_BOUND('',#189,.T.);
#116=FACE_OUTER_BOUND('',#190,.T.);
#117=FACE_OUTER_BOUND('',#191,.T.);
#118=FACE_OUTER_BOUND('',#192,.T.);
#119=FACE_OUTER_BOUND('',#193,.T.);
#120=FACE_OUTER_BOUND('',#194,.T.);
#121=FACE_OUTER_BOUND('',#195,.T.);
#122=FACE_OUTER_BOUND('',#196,.T.);
#123=FACE_OUTER_BOUND('',#199,.T.);
#124=FACE_OUTER_BOUND('',#200,.T.);
#125=FACE_OUTER_BOUND('',#203,.T.);
#126=FACE_OUTER_BOUND('',#204,.T.);
#127=FACE_OUTER_BOUND('',#205,.T.);
#128=FACE_OUTER_BOUND('',#206,.T.);
#129=EDGE_LOOP('',(#805,#806,#807,#808));
#130=EDGE_LOOP('',(#809,#810,#811,#812));
#131=EDGE_LOOP('',(#813,#814,#815,#816));
#132=EDGE_LOOP('',(#817,#818,#819,#820));
#133=EDGE_LOOP('',(#821,#822,#823,#824));
#134=EDGE_LOOP('',(#825,#826,#827,#828));
#135=EDGE_LOOP('',(#829,#830,#831,#832,#833));
#136=EDGE_LOOP('',(#834,#835,#836,#837,#838,#839,#840,#841));
#137=EDGE_LOOP('',(#842,#843,#844,#845));
#138=EDGE_LOOP('',(#846,#847,#848,#849));
#139=EDGE_LOOP('',(#850,#851,#852,#853,#854,#855,#856,#857));
#140=EDGE_LOOP('',(#858,#859,#860,#861,#862,#863));
#141=EDGE_LOOP('',(#864,#865,#866,#867,#868,#869));
#142=EDGE_LOOP('',(#870,#871,#872,#873,#874));
#143=EDGE_LOOP('',(#875,#876,#877,#878));
#144=EDGE_LOOP('',(#879,#880,#881,#882));
#145=EDGE_LOOP('',(#883,#884,#885,#886,#887,#888,#889,#890));
#146=EDGE_LOOP('',(#891,#892,#893,#894));
#147=EDGE_LOOP('',(#895,#896,#897,#898));
#148=EDGE_LOOP('',(#899,#900,#901,#902));
#149=EDGE_LOOP('',(#903,#904,#905,#906));
#150=EDGE_LOOP('',(#907,#908,#909,#910,#911,#912,#913,#914));
#151=EDGE_LOOP('',(#915,#916,#917,#918));
#152=EDGE_LOOP('',(#919,#920,#921,#922));
#153=EDGE_LOOP('',(#923,#924,#925,#926));
#154=EDGE_LOOP('',(#927,#928,#929));
#155=EDGE_LOOP('',(#930,#931,#932));
#156=EDGE_LOOP('',(#933,#934,#935,#936));
#157=EDGE_LOOP('',(#937,#938,#939,#940));
#158=EDGE_LOOP('',(#941,#942,#943,#944));
#159=EDGE_LOOP('',(#945,#946,#947));
#160=EDGE_LOOP('',(#948,#949,#950));
#161=EDGE_LOOP('',(#951,#952,#953,#954));
#162=EDGE_LOOP('',(#955));
#163=EDGE_LOOP('',(#956,#957,#958,#959));
#164=EDGE_LOOP('',(#960));
#165=EDGE_LOOP('',(#961,#962,#963,#964));
#166=EDGE_LOOP('',(#965));
#167=EDGE_LOOP('',(#966,#967,#968,#969));
#168=EDGE_LOOP('',(#970));
#169=EDGE_LOOP('',(#971,#972,#973,#974));
#170=EDGE_LOOP('',(#975,#976,#977,#978));
#171=EDGE_LOOP('',(#979,#980,#981,#982));
#172=EDGE_LOOP('',(#983,#984,#985,#986));
#173=EDGE_LOOP('',(#987,#988,#989,#990));
#174=EDGE_LOOP('',(#991,#992,#993,#994,#995,#996,#997,#998,#999));
#175=EDGE_LOOP('',(#1000,#1001,#1002,#1003,#1004,#1005,#1006,#1007,#1008,
#1009,#1010,#1011));
#176=EDGE_LOOP('',(#1012,#1013,#1014,#1015));
#177=EDGE_LOOP('',(#1016,#1017,#1018,#1019));
#178=EDGE_LOOP('',(#1020,#1021,#1022,#1023));
#179=EDGE_LOOP('',(#1024,#1025,#1026,#1027));
#180=EDGE_LOOP('',(#1028,#1029,#1030,#1031));
#181=EDGE_LOOP('',(#1032,#1033,#1034,#1035));
#182=EDGE_LOOP('',(#1036,#1037,#1038,#1039));
#183=EDGE_LOOP('',(#1040,#1041,#1042,#1043));
#184=EDGE_LOOP('',(#1044,#1045,#1046,#1047,#1048,#1049,#1050,#1051,#1052));
#185=EDGE_LOOP('',(#1053,#1054,#1055,#1056,#1057,#1058,#1059,#1060,#1061,
#1062,#1063,#1064));
#186=EDGE_LOOP('',(#1065,#1066,#1067,#1068));
#187=EDGE_LOOP('',(#1069,#1070,#1071,#1072));
#188=EDGE_LOOP('',(#1073,#1074,#1075,#1076));
#189=EDGE_LOOP('',(#1077,#1078,#1079,#1080));
#190=EDGE_LOOP('',(#1081,#1082,#1083,#1084,#1085,#1086,#1087,#1088));
#191=EDGE_LOOP('',(#1089,#1090,#1091,#1092,#1093,#1094,#1095,#1096));
#192=EDGE_LOOP('',(#1097,#1098,#1099,#1100));
#193=EDGE_LOOP('',(#1101,#1102,#1103,#1104));
#194=EDGE_LOOP('',(#1105,#1106,#1107,#1108,#1109,#1110,#1111,#1112,#1113,
#1114,#1115,#1116));
#195=EDGE_LOOP('',(#1117,#1118,#1119,#1120));
#196=EDGE_LOOP('',(#1121,#1122,#1123,#1124));
#197=EDGE_LOOP('',(#1125));
#198=EDGE_LOOP('',(#1126));
#199=EDGE_LOOP('',(#1127,#1128,#1129,#1130));
#200=EDGE_LOOP('',(#1131,#1132,#1133,#1134));
#201=EDGE_LOOP('',(#1135));
#202=EDGE_LOOP('',(#1136));
#203=EDGE_LOOP('',(#1137,#1138,#1139,#1140));
#204=EDGE_LOOP('',(#1141,#1142,#1143,#1144));
#205=EDGE_LOOP('',(#1145,#1146,#1147,#1148));
#206=EDGE_LOOP('',(#1149,#1150,#1151,#1152));
#207=LINE('',#1740,#361);
#208=LINE('',#1742,#362);
#209=LINE('',#1744,#363);
#210=LINE('',#1745,#364);
#211=LINE('',#1748,#365);
#212=LINE('',#1750,#366);
#213=LINE('',#1751,#367);
#214=LINE('',#1754,#368);
#215=LINE('',#1756,#369);
#216=LINE('',#1757,#370);
#217=LINE('',#1759,#371);
#218=LINE('',#1760,#372);
#219=LINE('',#1765,#373);
#220=LINE('',#1767,#374);
#221=LINE('',#1769,#375);
#222=LINE('',#1770,#376);
#223=LINE('',#1773,#377);
#224=LINE('',#1775,#378);
#225=LINE('',#1777,#379);
#226=LINE('',#1778,#380);
#227=LINE('',#1781,#381);
#228=LINE('',#1783,#382);
#229=LINE('',#1785,#383);
#230=LINE('',#1787,#384);
#231=LINE('',#1789,#385);
#232=LINE('',#1790,#386);
#233=LINE('',#1794,#387);
#234=LINE('',#1798,#388);
#235=LINE('',#1803,#389);
#236=LINE('',#1807,#390);
#237=LINE('',#1811,#391);
#238=LINE('',#1812,#392);
#239=LINE('',#1814,#393);
#240=LINE('',#1816,#394);
#241=LINE('',#1818,#395);
#242=LINE('',#1819,#396);
#243=LINE('',#1822,#397);
#244=LINE('',#1823,#398);
#245=LINE('',#1824,#399);
#246=LINE('',#1826,#400);
#247=LINE('',#1828,#401);
#248=LINE('',#1829,#402);
#249=LINE('',#1832,#403);
#250=LINE('',#1834,#404);
#251=LINE('',#1835,#405);
#252=LINE('',#1837,#406);
#253=LINE('',#1839,#407);
#254=LINE('',#1842,#408);
#255=LINE('',#1843,#409);
#256=LINE('',#1846,#410);
#257=LINE('',#1847,#411);
#258=LINE('',#1849,#412);
#259=LINE('',#1852,#413);
#260=LINE('',#1857,#414);
#261=LINE('',#1861,#415);
#262=LINE('',#1865,#416);
#263=LINE('',#1867,#417);
#264=LINE('',#1868,#418);
#265=LINE('',#1870,#419);
#266=LINE('',#1872,#420);
#267=LINE('',#1877,#421);
#268=LINE('',#1879,#422);
#269=LINE('',#1881,#423);
#270=LINE('',#1882,#424);
#271=LINE('',#1886,#425);
#272=LINE('',#1887,#426);
#273=LINE('',#1888,#427);
#274=LINE('',#1899,#428);
#275=LINE('',#1906,#429);
#276=LINE('',#1913,#430);
#277=LINE('',#1920,#431);
#278=LINE('',#1925,#432);
#279=LINE('',#1927,#433);
#280=LINE('',#1929,#434);
#281=LINE('',#1930,#435);
#282=LINE('',#1934,#436);
#283=LINE('',#1936,#437);
#284=LINE('',#1938,#438);
#285=LINE('',#1939,#439);
#286=LINE('',#1942,#440);
#287=LINE('',#1944,#441);
#288=LINE('',#1945,#442);
#289=LINE('',#1947,#443);
#290=LINE('',#1948,#444);
#291=LINE('',#1951,#445);
#292=LINE('',#1953,#446);
#293=LINE('',#1955,#447);
#294=LINE('',#1957,#448);
#295=LINE('',#1958,#449);
#296=LINE('',#1961,#450);
#297=LINE('',#1965,#451);
#298=LINE('',#1967,#452);
#299=LINE('',#1969,#453);
#300=LINE('',#1971,#454);
#301=LINE('',#1973,#455);
#302=LINE('',#1975,#456);
#303=LINE('',#1977,#457);
#304=LINE('',#1981,#458);
#305=LINE('',#1983,#459);
#306=LINE('',#1985,#460);
#307=LINE('',#1986,#461);
#308=LINE('',#1989,#462);
#309=LINE('',#1991,#463);
#310=LINE('',#1992,#464);
#311=LINE('',#1995,#465);
#312=LINE('',#1996,#466);
#313=LINE('',#1999,#467);
#314=LINE('',#2000,#468);
#315=LINE('',#2002,#469);
#316=LINE('',#2006,#470);
#317=LINE('',#2008,#471);
#318=LINE('',#2009,#472);
#319=LINE('',#2011,#473);
#320=LINE('',#2014,#474);
#321=LINE('',#2015,#475);
#322=LINE('',#2020,#476);
#323=LINE('',#2022,#477);
#324=LINE('',#2024,#478);
#325=LINE('',#2026,#479);
#326=LINE('',#2028,#480);
#327=LINE('',#2030,#481);
#328=LINE('',#2032,#482);
#329=LINE('',#2035,#483);
#330=LINE('',#2036,#484);
#331=LINE('',#2039,#485);
#332=LINE('',#2041,#486);
#333=LINE('',#2044,#487);
#334=LINE('',#2046,#488);
#335=LINE('',#2048,#489);
#336=LINE('',#2050,#490);
#337=LINE('',#2051,#491);
#338=LINE('',#2054,#492);
#339=LINE('',#2056,#493);
#340=LINE('',#2058,#494);
#341=LINE('',#2060,#495);
#342=LINE('',#2061,#496);
#343=LINE('',#2064,#497);
#344=LINE('',#2065,#498);
#345=LINE('',#2068,#499);
#346=LINE('',#2069,#500);
#347=LINE('',#2072,#501);
#348=LINE('',#2074,#502);
#349=LINE('',#2076,#503);
#350=LINE('',#2077,#504);
#351=LINE('',#2079,#505);
#352=LINE('',#2081,#506);
#353=LINE('',#2083,#507);
#354=LINE('',#2084,#508);
#355=LINE('',#2086,#509);
#356=LINE('',#2088,#510);
#357=LINE('',#2089,#511);
#358=LINE('',#2092,#512);
#359=LINE('',#2093,#513);
#360=LINE('',#2096,#514);
#361=VECTOR('',#1400,10.);
#362=VECTOR('',#1401,10.);
#363=VECTOR('',#1402,10.);
#364=VECTOR('',#1403,10.);
#365=VECTOR('',#1406,10.);
#366=VECTOR('',#1407,10.);
#367=VECTOR('',#1408,10.);
#368=VECTOR('',#1411,10.);
#369=VECTOR('',#1412,10.);
#370=VECTOR('',#1413,10.);
#371=VECTOR('',#1416,10.);
#372=VECTOR('',#1417,10.);
#373=VECTOR('',#1422,10.);
#374=VECTOR('',#1423,10.);
#375=VECTOR('',#1424,10.);
#376=VECTOR('',#1425,10.);
#377=VECTOR('',#1428,10.);
#378=VECTOR('',#1429,10.);
#379=VECTOR('',#1430,10.);
#380=VECTOR('',#1431,10.);
#381=VECTOR('',#1434,10.);
#382=VECTOR('',#1435,10.);
#383=VECTOR('',#1436,10.);
#384=VECTOR('',#1437,10.);
#385=VECTOR('',#1438,10.);
#386=VECTOR('',#1439,10.);
#387=VECTOR('',#1442,10.);
#388=VECTOR('',#1445,10.);
#389=VECTOR('',#1450,10.);
#390=VECTOR('',#1453,10.);
#391=VECTOR('',#1458,10.);
#392=VECTOR('',#1459,10.);
#393=VECTOR('',#1460,10.);
#394=VECTOR('',#1461,10.);
#395=VECTOR('',#1462,10.);
#396=VECTOR('',#1463,10.);
#397=VECTOR('',#1466,10.);
#398=VECTOR('',#1467,10.);
#399=VECTOR('',#1468,10.);
#400=VECTOR('',#1471,10.);
#401=VECTOR('',#1472,10.);
#402=VECTOR('',#1473,10.);
#403=VECTOR('',#1476,10.);
#404=VECTOR('',#1477,10.);
#405=VECTOR('',#1478,10.);
#406=VECTOR('',#1481,10.);
#407=VECTOR('',#1484,10.);
#408=VECTOR('',#1487,10.);
#409=VECTOR('',#1488,10.);
#410=VECTOR('',#1491,10.);
#411=VECTOR('',#1492,10.);
#412=VECTOR('',#1495,10.);
#413=VECTOR('',#1500,10.);
#414=VECTOR('',#1505,10.);
#415=VECTOR('',#1508,10.);
#416=VECTOR('',#1513,10.);
#417=VECTOR('',#1514,10.);
#418=VECTOR('',#1515,10.);
#419=VECTOR('',#1518,10.);
#420=VECTOR('',#1521,10.);
#421=VECTOR('',#1526,10.);
#422=VECTOR('',#1527,10.);
#423=VECTOR('',#1528,10.);
#424=VECTOR('',#1529,10.);
#425=VECTOR('',#1532,10.);
#426=VECTOR('',#1533,10.);
#427=VECTOR('',#1534,10.);
#428=VECTOR('',#1551,2.);
#429=VECTOR('',#1560,2.);
#430=VECTOR('',#1569,2.);
#431=VECTOR('',#1578,2.);
#432=VECTOR('',#1583,10.);
#433=VECTOR('',#1584,10.);
#434=VECTOR('',#1585,10.);
#435=VECTOR('',#1586,10.);
#436=VECTOR('',#1589,10.);
#437=VECTOR('',#1590,10.);
#438=VECTOR('',#1591,10.);
#439=VECTOR('',#1592,10.);
#440=VECTOR('',#1595,10.);
#441=VECTOR('',#1596,10.);
#442=VECTOR('',#1597,10.);
#443=VECTOR('',#1600,10.);
#444=VECTOR('',#1601,10.);
#445=VECTOR('',#1604,10.);
#446=VECTOR('',#1605,10.);
#447=VECTOR('',#1606,10.);
#448=VECTOR('',#1607,10.);
#449=VECTOR('',#1608,10.);
#450=VECTOR('',#1611,10.);
#451=VECTOR('',#1614,10.);
#452=VECTOR('',#1615,10.);
#453=VECTOR('',#1616,10.);
#454=VECTOR('',#1617,10.);
#455=VECTOR('',#1618,10.);
#456=VECTOR('',#1619,10.);
#457=VECTOR('',#1620,10.);
#458=VECTOR('',#1623,10.);
#459=VECTOR('',#1624,10.);
#460=VECTOR('',#1625,10.);
#461=VECTOR('',#1626,10.);
#462=VECTOR('',#1629,10.);
#463=VECTOR('',#1630,10.);
#464=VECTOR('',#1631,10.);
#465=VECTOR('',#1634,10.);
#466=VECTOR('',#1635,10.);
#467=VECTOR('',#1638,10.);
#468=VECTOR('',#1639,10.);
#469=VECTOR('',#1642,10.);
#470=VECTOR('',#1647,10.);
#471=VECTOR('',#1648,10.);
#472=VECTOR('',#1649,10.);
#473=VECTOR('',#1652,10.);
#474=VECTOR('',#1655,10.);
#475=VECTOR('',#1656,10.);
#476=VECTOR('',#1661,10.);
#477=VECTOR('',#1662,10.);
#478=VECTOR('',#1663,10.);
#479=VECTOR('',#1664,10.);
#480=VECTOR('',#1665,10.);
#481=VECTOR('',#1666,10.);
#482=VECTOR('',#1667,10.);
#483=VECTOR('',#1672,10.);
#484=VECTOR('',#1673,10.);
#485=VECTOR('',#1678,10.);
#486=VECTOR('',#1681,10.);
#487=VECTOR('',#1684,10.);
#488=VECTOR('',#1685,10.);
#489=VECTOR('',#1686,10.);
#490=VECTOR('',#1687,10.);
#491=VECTOR('',#1688,10.);
#492=VECTOR('',#1691,10.);
#493=VECTOR('',#1692,10.);
#494=VECTOR('',#1693,10.);
#495=VECTOR('',#1694,10.);
#496=VECTOR('',#1695,10.);
#497=VECTOR('',#1698,10.);
#498=VECTOR('',#1699,10.);
#499=VECTOR('',#1702,10.);
#500=VECTOR('',#1703,10.);
#501=VECTOR('',#1706,10.);
#502=VECTOR('',#1707,10.);
#503=VECTOR('',#1708,10.);
#504=VECTOR('',#1709,10.);
#505=VECTOR('',#1710,10.);
#506=VECTOR('',#1711,10.);
#507=VECTOR('',#1712,10.);
#508=VECTOR('',#1713,10.);
#509=VECTOR('',#1716,10.);
#510=VECTOR('',#1719,10.);
#511=VECTOR('',#1720,10.);
#512=VECTOR('',#1725,10.);
#513=VECTOR('',#1726,10.);
#514=VECTOR('',#1731,10.);
#515=VERTEX_POINT('',#1738);
#516=VERTEX_POINT('',#1739);
#517=VERTEX_POINT('',#1741);
#518=VERTEX_POINT('',#1743);
#519=VERTEX_POINT('',#1747);
#520=VERTEX_POINT('',#1749);
#521=VERTEX_POINT('',#1753);
#522=VERTEX_POINT('',#1755);
#523=VERTEX_POINT('',#1763);
#524=VERTEX_POINT('',#1764);
#525=VERTEX_POINT('',#1766);
#526=VERTEX_POINT('',#1768);
#527=VERTEX_POINT('',#1772);
#528=VERTEX_POINT('',#1774);
#529=VERTEX_POINT('',#1776);
#530=VERTEX_POINT('',#1780);
#531=VERTEX_POINT('',#1782);
#532=VERTEX_POINT('',#1784);
#533=VERTEX_POINT('',#1786);
#534=VERTEX_POINT('',#1788);
#535=VERTEX_POINT('',#1792);
#536=VERTEX_POINT('',#1793);
#537=VERTEX_POINT('',#1795);
#538=VERTEX_POINT('',#1797);
#539=VERTEX_POINT('',#1801);
#540=VERTEX_POINT('',#1802);
#541=VERTEX_POINT('',#1804);
#542=VERTEX_POINT('',#1806);
#543=VERTEX_POINT('',#1810);
#544=VERTEX_POINT('',#1813);
#545=VERTEX_POINT('',#1815);
#546=VERTEX_POINT('',#1817);
#547=VERTEX_POINT('',#1821);
#548=VERTEX_POINT('',#1827);
#549=VERTEX_POINT('',#1831);
#550=VERTEX_POINT('',#1833);
#551=VERTEX_POINT('',#1841);
#552=VERTEX_POINT('',#1845);
#553=VERTEX_POINT('',#1855);
#554=VERTEX_POINT('',#1856);
#555=VERTEX_POINT('',#1858);
#556=VERTEX_POINT('',#1860);
#557=VERTEX_POINT('',#1864);
#558=VERTEX_POINT('',#1866);
#559=VERTEX_POINT('',#1875);
#560=VERTEX_POINT('',#1876);
#561=VERTEX_POINT('',#1878);
#562=VERTEX_POINT('',#1880);
#563=VERTEX_POINT('',#1884);
#564=VERTEX_POINT('',#1885);
#565=VERTEX_POINT('',#1895);
#566=VERTEX_POINT('',#1898);
#567=VERTEX_POINT('',#1902);
#568=VERTEX_POINT('',#1905);
#569=VERTEX_POINT('',#1909);
#570=VERTEX_POINT('',#1912);
#571=VERTEX_POINT('',#1916);
#572=VERTEX_POINT('',#1919);
#573=VERTEX_POINT('',#1923);
#574=VERTEX_POINT('',#1924);
#575=VERTEX_POINT('',#1926);
#576=VERTEX_POINT('',#1928);
#577=VERTEX_POINT('',#1932);
#578=VERTEX_POINT('',#1933);
#579=VERTEX_POINT('',#1935);
#580=VERTEX_POINT('',#1937);
#581=VERTEX_POINT('',#1941);
#582=VERTEX_POINT('',#1943);
#583=VERTEX_POINT('',#1950);
#584=VERTEX_POINT('',#1952);
#585=VERTEX_POINT('',#1954);
#586=VERTEX_POINT('',#1956);
#587=VERTEX_POINT('',#1960);
#588=VERTEX_POINT('',#1962);
#589=VERTEX_POINT('',#1964);
#590=VERTEX_POINT('',#1966);
#591=VERTEX_POINT('',#1968);
#592=VERTEX_POINT('',#1970);
#593=VERTEX_POINT('',#1972);
#594=VERTEX_POINT('',#1974);
#595=VERTEX_POINT('',#1976);
#596=VERTEX_POINT('',#1979);
#597=VERTEX_POINT('',#1980);
#598=VERTEX_POINT('',#1982);
#599=VERTEX_POINT('',#1984);
#600=VERTEX_POINT('',#1988);
#601=VERTEX_POINT('',#1990);
#602=VERTEX_POINT('',#1994);
#603=VERTEX_POINT('',#1998);
#604=VERTEX_POINT('',#2005);
#605=VERTEX_POINT('',#2007);
#606=VERTEX_POINT('',#2013);
#607=VERTEX_POINT('',#2017);
#608=VERTEX_POINT('',#2019);
#609=VERTEX_POINT('',#2021);
#610=VERTEX_POINT('',#2023);
#611=VERTEX_POINT('',#2025);
#612=VERTEX_POINT('',#2027);
#613=VERTEX_POINT('',#2029);
#614=VERTEX_POINT('',#2031);
#615=VERTEX_POINT('',#2043);
#616=VERTEX_POINT('',#2045);
#617=VERTEX_POINT('',#2047);
#618=VERTEX_POINT('',#2049);
#619=VERTEX_POINT('',#2053);
#620=VERTEX_POINT('',#2055);
#621=VERTEX_POINT('',#2057);
#622=VERTEX_POINT('',#2059);
#623=VERTEX_POINT('',#2063);
#624=VERTEX_POINT('',#2067);
#625=VERTEX_POINT('',#2071);
#626=VERTEX_POINT('',#2073);
#627=VERTEX_POINT('',#2075);
#628=VERTEX_POINT('',#2078);
#629=VERTEX_POINT('',#2080);
#630=VERTEX_POINT('',#2082);
#631=EDGE_CURVE('',#515,#516,#207,.T.);
#632=EDGE_CURVE('',#517,#515,#208,.T.);
#633=EDGE_CURVE('',#518,#517,#209,.T.);
#634=EDGE_CURVE('',#516,#518,#210,.T.);
#635=EDGE_CURVE('',#516,#519,#211,.T.);
#636=EDGE_CURVE('',#520,#518,#212,.T.);
#637=EDGE_CURVE('',#520,#519,#213,.T.);
#638=EDGE_CURVE('',#519,#521,#214,.T.);
#639=EDGE_CURVE('',#522,#520,#215,.T.);
#640=EDGE_CURVE('',#521,#522,#216,.T.);
#641=EDGE_CURVE('',#521,#515,#217,.T.);
#642=EDGE_CURVE('',#522,#517,#218,.T.);
#643=EDGE_CURVE('',#523,#524,#219,.T.);
#644=EDGE_CURVE('',#525,#523,#220,.T.);
#645=EDGE_CURVE('',#526,#525,#221,.T.);
#646=EDGE_CURVE('',#524,#526,#222,.T.);
#647=EDGE_CURVE('',#527,#525,#223,.T.);
#648=EDGE_CURVE('',#528,#527,#224,.T.);
#649=EDGE_CURVE('',#529,#528,#225,.T.);
#650=EDGE_CURVE('',#529,#526,#226,.T.);
#651=EDGE_CURVE('',#523,#530,#227,.T.);
#652=EDGE_CURVE('',#530,#531,#228,.T.);
#653=EDGE_CURVE('',#531,#532,#229,.T.);
#654=EDGE_CURVE('',#532,#533,#230,.T.);
#655=EDGE_CURVE('',#533,#534,#231,.T.);
#656=EDGE_CURVE('',#534,#527,#232,.T.);
#657=EDGE_CURVE('',#535,#536,#233,.T.);
#658=EDGE_CURVE('',#537,#536,#27,.T.);
#659=EDGE_CURVE('',#538,#537,#234,.T.);
#660=EDGE_CURVE('',#535,#538,#28,.T.);
#661=EDGE_CURVE('',#539,#540,#235,.T.);
#662=EDGE_CURVE('',#541,#539,#29,.T.);
#663=EDGE_CURVE('',#541,#542,#236,.T.);
#664=EDGE_CURVE('',#540,#542,#30,.T.);
#665=EDGE_CURVE('',#535,#543,#237,.T.);
#666=EDGE_CURVE('',#543,#532,#238,.T.);
#667=EDGE_CURVE('',#544,#531,#239,.T.);
#668=EDGE_CURVE('',#545,#544,#240,.T.);
#669=EDGE_CURVE('',#546,#545,#241,.T.);
#670=EDGE_CURVE('',#536,#546,#242,.T.);
#671=EDGE_CURVE('',#546,#547,#243,.T.);
#672=EDGE_CURVE('',#547,#540,#244,.T.);
#673=EDGE_CURVE('',#542,#537,#245,.T.);
#674=EDGE_CURVE('',#541,#538,#246,.T.);
#675=EDGE_CURVE('',#548,#539,#247,.T.);
#676=EDGE_CURVE('',#543,#548,#248,.T.);
#677=EDGE_CURVE('',#549,#524,#249,.T.);
#678=EDGE_CURVE('',#550,#549,#250,.T.);
#679=EDGE_CURVE('',#530,#550,#251,.T.);
#680=EDGE_CURVE('',#550,#544,#252,.T.);
#681=EDGE_CURVE('',#549,#545,#253,.T.);
#682=EDGE_CURVE('',#551,#529,#254,.T.);
#683=EDGE_CURVE('',#547,#551,#255,.T.);
#684=EDGE_CURVE('',#552,#528,#256,.T.);
#685=EDGE_CURVE('',#552,#551,#257,.T.);
#686=EDGE_CURVE('',#552,#534,#258,.T.);
#687=EDGE_CURVE('',#548,#533,#259,.T.);
#688=EDGE_CURVE('',#553,#554,#260,.T.);
#689=EDGE_CURVE('',#555,#554,#31,.T.);
#690=EDGE_CURVE('',#556,#555,#261,.T.);
#691=EDGE_CURVE('',#553,#556,#32,.T.);
#692=EDGE_CURVE('',#553,#557,#262,.T.);
#693=EDGE_CURVE('',#557,#558,#263,.T.);
#694=EDGE_CURVE('',#554,#558,#264,.T.);
#695=EDGE_CURVE('',#558,#555,#265,.T.);
#696=EDGE_CURVE('',#557,#556,#266,.T.);
#697=EDGE_CURVE('',#559,#560,#267,.T.);
#698=EDGE_CURVE('',#561,#560,#268,.T.);
#699=EDGE_CURVE('',#562,#561,#269,.T.);
#700=EDGE_CURVE('',#562,#559,#270,.T.);
#701=EDGE_CURVE('',#563,#564,#271,.T.);
#702=EDGE_CURVE('',#563,#562,#272,.T.);
#703=EDGE_CURVE('',#564,#561,#273,.T.);
#704=EDGE_CURVE('',#563,#559,#33,.T.);
#705=EDGE_CURVE('',#560,#564,#34,.T.);
#706=EDGE_CURVE('',#565,#565,#35,.T.);
#707=EDGE_CURVE('',#565,#566,#274,.T.);
#708=EDGE_CURVE('',#566,#566,#36,.T.);
#709=EDGE_CURVE('',#567,#567,#37,.T.);
#710=EDGE_CURVE('',#567,#568,#275,.T.);
#711=EDGE_CURVE('',#568,#568,#38,.T.);
#712=EDGE_CURVE('',#569,#569,#39,.T.);
#713=EDGE_CURVE('',#569,#570,#276,.T.);
#714=EDGE_CURVE('',#570,#570,#40,.T.);
#715=EDGE_CURVE('',#571,#571,#41,.T.);
#716=EDGE_CURVE('',#571,#572,#277,.T.);
#717=EDGE_CURVE('',#572,#572,#42,.T.);
#718=EDGE_CURVE('',#573,#574,#278,.T.);
#719=EDGE_CURVE('',#575,#573,#279,.T.);
#720=EDGE_CURVE('',#575,#576,#280,.T.);
#721=EDGE_CURVE('',#574,#576,#281,.T.);
#722=EDGE_CURVE('',#577,#578,#282,.T.);
#723=EDGE_CURVE('',#579,#577,#283,.T.);
#724=EDGE_CURVE('',#580,#579,#284,.T.);
#725=EDGE_CURVE('',#578,#580,#285,.T.);
#726=EDGE_CURVE('',#581,#579,#286,.T.);
#727=EDGE_CURVE('',#582,#581,#287,.T.);
#728=EDGE_CURVE('',#580,#582,#288,.T.);
#729=EDGE_CURVE('',#576,#581,#289,.T.);
#730=EDGE_CURVE('',#582,#575,#290,.T.);
#731=EDGE_CURVE('',#583,#577,#291,.T.);
#732=EDGE_CURVE('',#583,#584,#292,.T.);
#733=EDGE_CURVE('',#585,#584,#293,.T.);
#734=EDGE_CURVE('',#585,#586,#294,.T.);
#735=EDGE_CURVE('',#586,#574,#295,.T.);
#736=EDGE_CURVE('',#578,#587,#296,.T.);
#737=EDGE_CURVE('',#587,#588,#43,.T.);
#738=EDGE_CURVE('',#588,#589,#297,.T.);
#739=EDGE_CURVE('',#590,#589,#298,.T.);
#740=EDGE_CURVE('',#591,#590,#299,.T.);
#741=EDGE_CURVE('',#592,#591,#300,.T.);
#742=EDGE_CURVE('',#592,#593,#301,.T.);
#743=EDGE_CURVE('',#594,#593,#302,.T.);
#744=EDGE_CURVE('',#594,#595,#303,.T.);
#745=EDGE_CURVE('',#595,#583,#44,.T.);
#746=EDGE_CURVE('',#596,#597,#304,.T.);
#747=EDGE_CURVE('',#597,#598,#305,.T.);
#748=EDGE_CURVE('',#598,#599,#306,.T.);
#749=EDGE_CURVE('',#599,#596,#307,.T.);
#750=EDGE_CURVE('',#600,#597,#308,.T.);
#751=EDGE_CURVE('',#600,#601,#309,.T.);
#752=EDGE_CURVE('',#598,#601,#310,.T.);
#753=EDGE_CURVE('',#596,#602,#311,.T.);
#754=EDGE_CURVE('',#602,#600,#312,.T.);
#755=EDGE_CURVE('',#603,#599,#313,.T.);
#756=EDGE_CURVE('',#602,#603,#314,.T.);
#757=EDGE_CURVE('',#601,#603,#315,.T.);
#758=EDGE_CURVE('',#604,#585,#316,.T.);
#759=EDGE_CURVE('',#605,#604,#317,.T.);
#760=EDGE_CURVE('',#605,#586,#318,.T.);
#761=EDGE_CURVE('',#573,#605,#319,.T.);
#762=EDGE_CURVE('',#606,#604,#320,.T.);
#763=EDGE_CURVE('',#587,#606,#321,.T.);
#764=EDGE_CURVE('',#584,#607,#45,.T.);
#765=EDGE_CURVE('',#607,#608,#322,.T.);
#766=EDGE_CURVE('',#609,#608,#323,.T.);
#767=EDGE_CURVE('',#609,#610,#324,.T.);
#768=EDGE_CURVE('',#610,#611,#325,.T.);
#769=EDGE_CURVE('',#611,#612,#326,.T.);
#770=EDGE_CURVE('',#613,#612,#327,.T.);
#771=EDGE_CURVE('',#613,#614,#328,.T.);
#772=EDGE_CURVE('',#614,#606,#46,.T.);
#773=EDGE_CURVE('',#588,#614,#329,.T.);
#774=EDGE_CURVE('',#589,#613,#330,.T.);
#775=EDGE_CURVE('',#595,#607,#331,.T.);
#776=EDGE_CURVE('',#608,#594,#332,.T.);
#777=EDGE_CURVE('',#612,#615,#333,.T.);
#778=EDGE_CURVE('',#615,#616,#334,.T.);
#779=EDGE_CURVE('',#616,#617,#335,.T.);
#780=EDGE_CURVE('',#617,#618,#336,.T.);
#781=EDGE_CURVE('',#618,#590,#337,.T.);
#782=EDGE_CURVE('',#593,#619,#338,.T.);
#783=EDGE_CURVE('',#619,#620,#339,.T.);
#784=EDGE_CURVE('',#620,#621,#340,.T.);
#785=EDGE_CURVE('',#621,#622,#341,.T.);
#786=EDGE_CURVE('',#622,#609,#342,.T.);
#787=EDGE_CURVE('',#619,#623,#343,.T.);
#788=EDGE_CURVE('',#623,#592,#344,.T.);
#789=EDGE_CURVE('',#624,#618,#345,.T.);
#790=EDGE_CURVE('',#591,#624,#346,.T.);
#791=EDGE_CURVE('',#625,#624,#347,.T.);
#792=EDGE_CURVE('',#626,#625,#348,.T.);
#793=EDGE_CURVE('',#627,#626,#349,.T.);
#794=EDGE_CURVE('',#611,#627,#350,.T.);
#795=EDGE_CURVE('',#628,#610,#351,.T.);
#796=EDGE_CURVE('',#629,#628,#352,.T.);
#797=EDGE_CURVE('',#630,#629,#353,.T.);
#798=EDGE_CURVE('',#623,#630,#354,.T.);
#799=EDGE_CURVE('',#625,#617,#355,.T.);
#800=EDGE_CURVE('',#626,#616,#356,.T.);
#801=EDGE_CURVE('',#627,#615,#357,.T.);
#802=EDGE_CURVE('',#628,#622,#358,.T.);
#803=EDGE_CURVE('',#629,#621,#359,.T.);
#804=EDGE_CURVE('',#630,#620,#360,.T.);
#805=ORIENTED_EDGE('',*,*,#631,.F.);
#806=ORIENTED_EDGE('',*,*,#632,.F.);
#807=ORIENTED_EDGE('',*,*,#633,.F.);
#808=ORIENTED_EDGE('',*,*,#634,.F.);
#809=ORIENTED_EDGE('',*,*,#635,.F.);
#810=ORIENTED_EDGE('',*,*,#634,.T.);
#811=ORIENTED_EDGE('',*,*,#636,.F.);
#812=ORIENTED_EDGE('',*,*,#637,.T.);
#813=ORIENTED_EDGE('',*,*,#638,.F.);
#814=ORIENTED_EDGE('',*,*,#637,.F.);
#815=ORIENTED_EDGE('',*,*,#639,.F.);
#816=ORIENTED_EDGE('',*,*,#640,.F.);
#817=ORIENTED_EDGE('',*,*,#641,.F.);
#818=ORIENTED_EDGE('',*,*,#640,.T.);
#819=ORIENTED_EDGE('',*,*,#642,.T.);
#820=ORIENTED_EDGE('',*,*,#632,.T.);
#821=ORIENTED_EDGE('',*,*,#642,.F.);
#822=ORIENTED_EDGE('',*,*,#639,.T.);
#823=ORIENTED_EDGE('',*,*,#636,.T.);
#824=ORIENTED_EDGE('',*,*,#633,.T.);
#825=ORIENTED_EDGE('',*,*,#643,.F.);
#826=ORIENTED_EDGE('',*,*,#644,.F.);
#827=ORIENTED_EDGE('',*,*,#645,.F.);
#828=ORIENTED_EDGE('',*,*,#646,.F.);
#829=ORIENTED_EDGE('',*,*,#645,.T.);
#830=ORIENTED_EDGE('',*,*,#647,.F.);
#831=ORIENTED_EDGE('',*,*,#648,.F.);
#832=ORIENTED_EDGE('',*,*,#649,.F.);
#833=ORIENTED_EDGE('',*,*,#650,.T.);
#834=ORIENTED_EDGE('',*,*,#644,.T.);
#835=ORIENTED_EDGE('',*,*,#651,.T.);
#836=ORIENTED_EDGE('',*,*,#652,.T.);
#837=ORIENTED_EDGE('',*,*,#653,.T.);
#838=ORIENTED_EDGE('',*,*,#654,.T.);
#839=ORIENTED_EDGE('',*,*,#655,.T.);
#840=ORIENTED_EDGE('',*,*,#656,.T.);
#841=ORIENTED_EDGE('',*,*,#647,.T.);
#842=ORIENTED_EDGE('',*,*,#657,.T.);
#843=ORIENTED_EDGE('',*,*,#658,.F.);
#844=ORIENTED_EDGE('',*,*,#659,.F.);
#845=ORIENTED_EDGE('',*,*,#660,.F.);
#846=ORIENTED_EDGE('',*,*,#661,.F.);
#847=ORIENTED_EDGE('',*,*,#662,.F.);
#848=ORIENTED_EDGE('',*,*,#663,.T.);
#849=ORIENTED_EDGE('',*,*,#664,.F.);
#850=ORIENTED_EDGE('',*,*,#657,.F.);
#851=ORIENTED_EDGE('',*,*,#665,.T.);
#852=ORIENTED_EDGE('',*,*,#666,.T.);
#853=ORIENTED_EDGE('',*,*,#653,.F.);
#854=ORIENTED_EDGE('',*,*,#667,.F.);
#855=ORIENTED_EDGE('',*,*,#668,.F.);
#856=ORIENTED_EDGE('',*,*,#669,.F.);
#857=ORIENTED_EDGE('',*,*,#670,.F.);
#858=ORIENTED_EDGE('',*,*,#658,.T.);
#859=ORIENTED_EDGE('',*,*,#670,.T.);
#860=ORIENTED_EDGE('',*,*,#671,.T.);
#861=ORIENTED_EDGE('',*,*,#672,.T.);
#862=ORIENTED_EDGE('',*,*,#664,.T.);
#863=ORIENTED_EDGE('',*,*,#673,.T.);
#864=ORIENTED_EDGE('',*,*,#660,.T.);
#865=ORIENTED_EDGE('',*,*,#674,.F.);
#866=ORIENTED_EDGE('',*,*,#662,.T.);
#867=ORIENTED_EDGE('',*,*,#675,.F.);
#868=ORIENTED_EDGE('',*,*,#676,.F.);
#869=ORIENTED_EDGE('',*,*,#665,.F.);
#870=ORIENTED_EDGE('',*,*,#643,.T.);
#871=ORIENTED_EDGE('',*,*,#677,.F.);
#872=ORIENTED_EDGE('',*,*,#678,.F.);
#873=ORIENTED_EDGE('',*,*,#679,.F.);
#874=ORIENTED_EDGE('',*,*,#651,.F.);
#875=ORIENTED_EDGE('',*,*,#679,.T.);
#876=ORIENTED_EDGE('',*,*,#680,.T.);
#877=ORIENTED_EDGE('',*,*,#667,.T.);
#878=ORIENTED_EDGE('',*,*,#652,.F.);
#879=ORIENTED_EDGE('',*,*,#678,.T.);
#880=ORIENTED_EDGE('',*,*,#681,.T.);
#881=ORIENTED_EDGE('',*,*,#668,.T.);
#882=ORIENTED_EDGE('',*,*,#680,.F.);
#883=ORIENTED_EDGE('',*,*,#646,.T.);
#884=ORIENTED_EDGE('',*,*,#650,.F.);
#885=ORIENTED_EDGE('',*,*,#682,.F.);
#886=ORIENTED_EDGE('',*,*,#683,.F.);
#887=ORIENTED_EDGE('',*,*,#671,.F.);
#888=ORIENTED_EDGE('',*,*,#669,.T.);
#889=ORIENTED_EDGE('',*,*,#681,.F.);
#890=ORIENTED_EDGE('',*,*,#677,.T.);
#891=ORIENTED_EDGE('',*,*,#638,.T.);
#892=ORIENTED_EDGE('',*,*,#641,.T.);
#893=ORIENTED_EDGE('',*,*,#631,.T.);
#894=ORIENTED_EDGE('',*,*,#635,.T.);
#895=ORIENTED_EDGE('',*,*,#649,.T.);
#896=ORIENTED_EDGE('',*,*,#684,.F.);
#897=ORIENTED_EDGE('',*,*,#685,.T.);
#898=ORIENTED_EDGE('',*,*,#682,.T.);
#899=ORIENTED_EDGE('',*,*,#648,.T.);
#900=ORIENTED_EDGE('',*,*,#656,.F.);
#901=ORIENTED_EDGE('',*,*,#686,.F.);
#902=ORIENTED_EDGE('',*,*,#684,.T.);
#903=ORIENTED_EDGE('',*,*,#659,.T.);
#904=ORIENTED_EDGE('',*,*,#673,.F.);
#905=ORIENTED_EDGE('',*,*,#663,.F.);
#906=ORIENTED_EDGE('',*,*,#674,.T.);
#907=ORIENTED_EDGE('',*,*,#661,.T.);
#908=ORIENTED_EDGE('',*,*,#672,.F.);
#909=ORIENTED_EDGE('',*,*,#683,.T.);
#910=ORIENTED_EDGE('',*,*,#685,.F.);
#911=ORIENTED_EDGE('',*,*,#686,.T.);
#912=ORIENTED_EDGE('',*,*,#655,.F.);
#913=ORIENTED_EDGE('',*,*,#687,.F.);
#914=ORIENTED_EDGE('',*,*,#675,.T.);
#915=ORIENTED_EDGE('',*,*,#676,.T.);
#916=ORIENTED_EDGE('',*,*,#687,.T.);
#917=ORIENTED_EDGE('',*,*,#654,.F.);
#918=ORIENTED_EDGE('',*,*,#666,.F.);
#919=ORIENTED_EDGE('',*,*,#688,.T.);
#920=ORIENTED_EDGE('',*,*,#689,.F.);
#921=ORIENTED_EDGE('',*,*,#690,.F.);
#922=ORIENTED_EDGE('',*,*,#691,.F.);
#923=ORIENTED_EDGE('',*,*,#688,.F.);
#924=ORIENTED_EDGE('',*,*,#692,.T.);
#925=ORIENTED_EDGE('',*,*,#693,.T.);
#926=ORIENTED_EDGE('',*,*,#694,.F.);
#927=ORIENTED_EDGE('',*,*,#689,.T.);
#928=ORIENTED_EDGE('',*,*,#694,.T.);
#929=ORIENTED_EDGE('',*,*,#695,.T.);
#930=ORIENTED_EDGE('',*,*,#691,.T.);
#931=ORIENTED_EDGE('',*,*,#696,.F.);
#932=ORIENTED_EDGE('',*,*,#692,.F.);
#933=ORIENTED_EDGE('',*,*,#690,.T.);
#934=ORIENTED_EDGE('',*,*,#695,.F.);
#935=ORIENTED_EDGE('',*,*,#693,.F.);
#936=ORIENTED_EDGE('',*,*,#696,.T.);
#937=ORIENTED_EDGE('',*,*,#697,.T.);
#938=ORIENTED_EDGE('',*,*,#698,.F.);
#939=ORIENTED_EDGE('',*,*,#699,.F.);
#940=ORIENTED_EDGE('',*,*,#700,.T.);
#941=ORIENTED_EDGE('',*,*,#701,.F.);
#942=ORIENTED_EDGE('',*,*,#702,.T.);
#943=ORIENTED_EDGE('',*,*,#699,.T.);
#944=ORIENTED_EDGE('',*,*,#703,.F.);
#945=ORIENTED_EDGE('',*,*,#704,.T.);
#946=ORIENTED_EDGE('',*,*,#700,.F.);
#947=ORIENTED_EDGE('',*,*,#702,.F.);
#948=ORIENTED_EDGE('',*,*,#705,.T.);
#949=ORIENTED_EDGE('',*,*,#703,.T.);
#950=ORIENTED_EDGE('',*,*,#698,.T.);
#951=ORIENTED_EDGE('',*,*,#697,.F.);
#952=ORIENTED_EDGE('',*,*,#704,.F.);
#953=ORIENTED_EDGE('',*,*,#701,.T.);
#954=ORIENTED_EDGE('',*,*,#705,.F.);
#955=ORIENTED_EDGE('',*,*,#706,.F.);
#956=ORIENTED_EDGE('',*,*,#706,.T.);
#957=ORIENTED_EDGE('',*,*,#707,.T.);
#958=ORIENTED_EDGE('',*,*,#708,.F.);
#959=ORIENTED_EDGE('',*,*,#707,.F.);
#960=ORIENTED_EDGE('',*,*,#709,.F.);
#961=ORIENTED_EDGE('',*,*,#709,.T.);
#962=ORIENTED_EDGE('',*,*,#710,.T.);
#963=ORIENTED_EDGE('',*,*,#711,.F.);
#964=ORIENTED_EDGE('',*,*,#710,.F.);
#965=ORIENTED_EDGE('',*,*,#712,.F.);
#966=ORIENTED_EDGE('',*,*,#712,.T.);
#967=ORIENTED_EDGE('',*,*,#713,.T.);
#968=ORIENTED_EDGE('',*,*,#714,.F.);
#969=ORIENTED_EDGE('',*,*,#713,.F.);
#970=ORIENTED_EDGE('',*,*,#715,.F.);
#971=ORIENTED_EDGE('',*,*,#715,.T.);
#972=ORIENTED_EDGE('',*,*,#716,.T.);
#973=ORIENTED_EDGE('',*,*,#717,.F.);
#974=ORIENTED_EDGE('',*,*,#716,.F.);
#975=ORIENTED_EDGE('',*,*,#718,.F.);
#976=ORIENTED_EDGE('',*,*,#719,.F.);
#977=ORIENTED_EDGE('',*,*,#720,.T.);
#978=ORIENTED_EDGE('',*,*,#721,.F.);
#979=ORIENTED_EDGE('',*,*,#722,.F.);
#980=ORIENTED_EDGE('',*,*,#723,.F.);
#981=ORIENTED_EDGE('',*,*,#724,.F.);
#982=ORIENTED_EDGE('',*,*,#725,.F.);
#983=ORIENTED_EDGE('',*,*,#724,.T.);
#984=ORIENTED_EDGE('',*,*,#726,.F.);
#985=ORIENTED_EDGE('',*,*,#727,.F.);
#986=ORIENTED_EDGE('',*,*,#728,.F.);
#987=ORIENTED_EDGE('',*,*,#727,.T.);
#988=ORIENTED_EDGE('',*,*,#729,.F.);
#989=ORIENTED_EDGE('',*,*,#720,.F.);
#990=ORIENTED_EDGE('',*,*,#730,.F.);
#991=ORIENTED_EDGE('',*,*,#731,.F.);
#992=ORIENTED_EDGE('',*,*,#732,.T.);
#993=ORIENTED_EDGE('',*,*,#733,.F.);
#994=ORIENTED_EDGE('',*,*,#734,.T.);
#995=ORIENTED_EDGE('',*,*,#735,.T.);
#996=ORIENTED_EDGE('',*,*,#721,.T.);
#997=ORIENTED_EDGE('',*,*,#729,.T.);
#998=ORIENTED_EDGE('',*,*,#726,.T.);
#999=ORIENTED_EDGE('',*,*,#723,.T.);
#1000=ORIENTED_EDGE('',*,*,#736,.T.);
#1001=ORIENTED_EDGE('',*,*,#737,.T.);
#1002=ORIENTED_EDGE('',*,*,#738,.T.);
#1003=ORIENTED_EDGE('',*,*,#739,.F.);
#1004=ORIENTED_EDGE('',*,*,#740,.F.);
#1005=ORIENTED_EDGE('',*,*,#741,.F.);
#1006=ORIENTED_EDGE('',*,*,#742,.T.);
#1007=ORIENTED_EDGE('',*,*,#743,.F.);
#1008=ORIENTED_EDGE('',*,*,#744,.T.);
#1009=ORIENTED_EDGE('',*,*,#745,.T.);
#1010=ORIENTED_EDGE('',*,*,#731,.T.);
#1011=ORIENTED_EDGE('',*,*,#722,.T.);
#1012=ORIENTED_EDGE('',*,*,#746,.T.);
#1013=ORIENTED_EDGE('',*,*,#747,.T.);
#1014=ORIENTED_EDGE('',*,*,#748,.T.);
#1015=ORIENTED_EDGE('',*,*,#749,.T.);
#1016=ORIENTED_EDGE('',*,*,#747,.F.);
#1017=ORIENTED_EDGE('',*,*,#750,.F.);
#1018=ORIENTED_EDGE('',*,*,#751,.T.);
#1019=ORIENTED_EDGE('',*,*,#752,.F.);
#1020=ORIENTED_EDGE('',*,*,#746,.F.);
#1021=ORIENTED_EDGE('',*,*,#753,.T.);
#1022=ORIENTED_EDGE('',*,*,#754,.T.);
#1023=ORIENTED_EDGE('',*,*,#750,.T.);
#1024=ORIENTED_EDGE('',*,*,#749,.F.);
#1025=ORIENTED_EDGE('',*,*,#755,.F.);
#1026=ORIENTED_EDGE('',*,*,#756,.F.);
#1027=ORIENTED_EDGE('',*,*,#753,.F.);
#1028=ORIENTED_EDGE('',*,*,#756,.T.);
#1029=ORIENTED_EDGE('',*,*,#757,.F.);
#1030=ORIENTED_EDGE('',*,*,#751,.F.);
#1031=ORIENTED_EDGE('',*,*,#754,.F.);
#1032=ORIENTED_EDGE('',*,*,#748,.F.);
#1033=ORIENTED_EDGE('',*,*,#752,.T.);
#1034=ORIENTED_EDGE('',*,*,#757,.T.);
#1035=ORIENTED_EDGE('',*,*,#755,.T.);
#1036=ORIENTED_EDGE('',*,*,#758,.F.);
#1037=ORIENTED_EDGE('',*,*,#759,.F.);
#1038=ORIENTED_EDGE('',*,*,#760,.T.);
#1039=ORIENTED_EDGE('',*,*,#734,.F.);
#1040=ORIENTED_EDGE('',*,*,#718,.T.);
#1041=ORIENTED_EDGE('',*,*,#735,.F.);
#1042=ORIENTED_EDGE('',*,*,#760,.F.);
#1043=ORIENTED_EDGE('',*,*,#761,.F.);
#1044=ORIENTED_EDGE('',*,*,#761,.T.);
#1045=ORIENTED_EDGE('',*,*,#759,.T.);
#1046=ORIENTED_EDGE('',*,*,#762,.F.);
#1047=ORIENTED_EDGE('',*,*,#763,.F.);
#1048=ORIENTED_EDGE('',*,*,#736,.F.);
#1049=ORIENTED_EDGE('',*,*,#725,.T.);
#1050=ORIENTED_EDGE('',*,*,#728,.T.);
#1051=ORIENTED_EDGE('',*,*,#730,.T.);
#1052=ORIENTED_EDGE('',*,*,#719,.T.);
#1053=ORIENTED_EDGE('',*,*,#758,.T.);
#1054=ORIENTED_EDGE('',*,*,#733,.T.);
#1055=ORIENTED_EDGE('',*,*,#764,.T.);
#1056=ORIENTED_EDGE('',*,*,#765,.T.);
#1057=ORIENTED_EDGE('',*,*,#766,.F.);
#1058=ORIENTED_EDGE('',*,*,#767,.T.);
#1059=ORIENTED_EDGE('',*,*,#768,.T.);
#1060=ORIENTED_EDGE('',*,*,#769,.T.);
#1061=ORIENTED_EDGE('',*,*,#770,.F.);
#1062=ORIENTED_EDGE('',*,*,#771,.T.);
#1063=ORIENTED_EDGE('',*,*,#772,.T.);
#1064=ORIENTED_EDGE('',*,*,#762,.T.);
#1065=ORIENTED_EDGE('',*,*,#738,.F.);
#1066=ORIENTED_EDGE('',*,*,#773,.T.);
#1067=ORIENTED_EDGE('',*,*,#771,.F.);
#1068=ORIENTED_EDGE('',*,*,#774,.F.);
#1069=ORIENTED_EDGE('',*,*,#737,.F.);
#1070=ORIENTED_EDGE('',*,*,#763,.T.);
#1071=ORIENTED_EDGE('',*,*,#772,.F.);
#1072=ORIENTED_EDGE('',*,*,#773,.F.);
#1073=ORIENTED_EDGE('',*,*,#745,.F.);
#1074=ORIENTED_EDGE('',*,*,#775,.T.);
#1075=ORIENTED_EDGE('',*,*,#764,.F.);
#1076=ORIENTED_EDGE('',*,*,#732,.F.);
#1077=ORIENTED_EDGE('',*,*,#744,.F.);
#1078=ORIENTED_EDGE('',*,*,#776,.F.);
#1079=ORIENTED_EDGE('',*,*,#765,.F.);
#1080=ORIENTED_EDGE('',*,*,#775,.F.);
#1081=ORIENTED_EDGE('',*,*,#774,.T.);
#1082=ORIENTED_EDGE('',*,*,#770,.T.);
#1083=ORIENTED_EDGE('',*,*,#777,.T.);
#1084=ORIENTED_EDGE('',*,*,#778,.T.);
#1085=ORIENTED_EDGE('',*,*,#779,.T.);
#1086=ORIENTED_EDGE('',*,*,#780,.T.);
#1087=ORIENTED_EDGE('',*,*,#781,.T.);
#1088=ORIENTED_EDGE('',*,*,#739,.T.);
#1089=ORIENTED_EDGE('',*,*,#776,.T.);
#1090=ORIENTED_EDGE('',*,*,#743,.T.);
#1091=ORIENTED_EDGE('',*,*,#782,.T.);
#1092=ORIENTED_EDGE('',*,*,#783,.T.);
#1093=ORIENTED_EDGE('',*,*,#784,.T.);
#1094=ORIENTED_EDGE('',*,*,#785,.T.);
#1095=ORIENTED_EDGE('',*,*,#786,.T.);
#1096=ORIENTED_EDGE('',*,*,#766,.T.);
#1097=ORIENTED_EDGE('',*,*,#787,.F.);
#1098=ORIENTED_EDGE('',*,*,#782,.F.);
#1099=ORIENTED_EDGE('',*,*,#742,.F.);
#1100=ORIENTED_EDGE('',*,*,#788,.F.);
#1101=ORIENTED_EDGE('',*,*,#789,.F.);
#1102=ORIENTED_EDGE('',*,*,#790,.F.);
#1103=ORIENTED_EDGE('',*,*,#740,.T.);
#1104=ORIENTED_EDGE('',*,*,#781,.F.);
#1105=ORIENTED_EDGE('',*,*,#788,.T.);
#1106=ORIENTED_EDGE('',*,*,#741,.T.);
#1107=ORIENTED_EDGE('',*,*,#790,.T.);
#1108=ORIENTED_EDGE('',*,*,#791,.F.);
#1109=ORIENTED_EDGE('',*,*,#792,.F.);
#1110=ORIENTED_EDGE('',*,*,#793,.F.);
#1111=ORIENTED_EDGE('',*,*,#794,.F.);
#1112=ORIENTED_EDGE('',*,*,#768,.F.);
#1113=ORIENTED_EDGE('',*,*,#795,.F.);
#1114=ORIENTED_EDGE('',*,*,#796,.F.);
#1115=ORIENTED_EDGE('',*,*,#797,.F.);
#1116=ORIENTED_EDGE('',*,*,#798,.F.);
#1117=ORIENTED_EDGE('',*,*,#789,.T.);
#1118=ORIENTED_EDGE('',*,*,#780,.F.);
#1119=ORIENTED_EDGE('',*,*,#799,.F.);
#1120=ORIENTED_EDGE('',*,*,#791,.T.);
#1121=ORIENTED_EDGE('',*,*,#793,.T.);
#1122=ORIENTED_EDGE('',*,*,#800,.T.);
#1123=ORIENTED_EDGE('',*,*,#778,.F.);
#1124=ORIENTED_EDGE('',*,*,#801,.F.);
#1125=ORIENTED_EDGE('',*,*,#711,.T.);
#1126=ORIENTED_EDGE('',*,*,#714,.T.);
#1127=ORIENTED_EDGE('',*,*,#794,.T.);
#1128=ORIENTED_EDGE('',*,*,#801,.T.);
#1129=ORIENTED_EDGE('',*,*,#777,.F.);
#1130=ORIENTED_EDGE('',*,*,#769,.F.);
#1131=ORIENTED_EDGE('',*,*,#796,.T.);
#1132=ORIENTED_EDGE('',*,*,#802,.T.);
#1133=ORIENTED_EDGE('',*,*,#785,.F.);
#1134=ORIENTED_EDGE('',*,*,#803,.F.);
#1135=ORIENTED_EDGE('',*,*,#708,.T.);
#1136=ORIENTED_EDGE('',*,*,#717,.T.);
#1137=ORIENTED_EDGE('',*,*,#795,.T.);
#1138=ORIENTED_EDGE('',*,*,#767,.F.);
#1139=ORIENTED_EDGE('',*,*,#786,.F.);
#1140=ORIENTED_EDGE('',*,*,#802,.F.);
#1141=ORIENTED_EDGE('',*,*,#797,.T.);
#1142=ORIENTED_EDGE('',*,*,#803,.T.);
#1143=ORIENTED_EDGE('',*,*,#784,.F.);
#1144=ORIENTED_EDGE('',*,*,#804,.F.);
#1145=ORIENTED_EDGE('',*,*,#787,.T.);
#1146=ORIENTED_EDGE('',*,*,#798,.T.);
#1147=ORIENTED_EDGE('',*,*,#804,.T.);
#1148=ORIENTED_EDGE('',*,*,#783,.F.);
#1149=ORIENTED_EDGE('',*,*,#792,.T.);
#1150=ORIENTED_EDGE('',*,*,#799,.T.);
#1151=ORIENTED_EDGE('',*,*,#779,.F.);
#1152=ORIENTED_EDGE('',*,*,#800,.F.);
#1153=PLANE('',#1304);
#1154=PLANE('',#1305);
#1155=PLANE('',#1306);
#1156=PLANE('',#1307);
#1157=PLANE('',#1308);
#1158=PLANE('',#1309);
#1159=PLANE('',#1310);
#1160=PLANE('',#1311);
#1161=PLANE('',#1318);
#1162=PLANE('',#1319);
#1163=PLANE('',#1320);
#1164=PLANE('',#1321);
#1165=PLANE('',#1322);
#1166=PLANE('',#1323);
#1167=PLANE('',#1324);
#1168=PLANE('',#1325);
#1169=PLANE('',#1326);
#1170=PLANE('',#1327);
#1171=PLANE('',#1328);
#1172=PLANE('',#1329);
#1173=PLANE('',#1333);
#1174=PLANE('',#1334);
#1175=PLANE('',#1335);
#1176=PLANE('',#1336);
#1177=PLANE('',#1337);
#1178=PLANE('',#1338);
#1179=PLANE('',#1339);
#1180=PLANE('',#1341);
#1181=PLANE('',#1344);
#1182=PLANE('',#1348);
#1183=PLANE('',#1352);
#1184=PLANE('',#1356);
#1185=PLANE('',#1360);
#1186=PLANE('',#1361);
#1187=PLANE('',#1362);
#1188=PLANE('',#1363);
#1189=PLANE('',#1364);
#1190=PLANE('',#1365);
#1191=PLANE('',#1368);
#1192=PLANE('',#1369);
#1193=PLANE('',#1370);
#1194=PLANE('',#1371);
#1195=PLANE('',#1372);
#1196=PLANE('',#1373);
#1197=PLANE('',#1374);
#1198=PLANE('',#1375);
#1199=PLANE('',#1376);
#1200=PLANE('',#1379);
#1201=PLANE('',#1382);
#1202=PLANE('',#1383);
#1203=PLANE('',#1384);
#1204=PLANE('',#1385);
#1205=PLANE('',#1386);
#1206=PLANE('',#1387);
#1207=PLANE('',#1388);
#1208=PLANE('',#1389);
#1209=PLANE('',#1390);
#1210=PLANE('',#1391);
#1211=PLANE('',#1392);
#1212=PLANE('',#1393);
#1213=PLANE('',#1394);
#1214=PLANE('',#1395);
#1215=ADVANCED_FACE('',(#57),#1153,.F.);
#1216=ADVANCED_FACE('',(#58),#1154,.F.);
#1217=ADVANCED_FACE('',(#59),#1155,.F.);
#1218=ADVANCED_FACE('',(#60),#1156,.F.);
#1219=ADVANCED_FACE('',(#61),#1157,.F.);
#1220=ADVANCED_FACE('',(#62),#1158,.F.);
#1221=ADVANCED_FACE('',(#63),#1159,.T.);
#1222=ADVANCED_FACE('',(#64),#1160,.T.);
#1223=ADVANCED_FACE('',(#65),#47,.F.);
#1224=ADVANCED_FACE('',(#66),#48,.F.);
#1225=ADVANCED_FACE('',(#67),#1161,.T.);
#1226=ADVANCED_FACE('',(#68),#1162,.T.);
#1227=ADVANCED_FACE('',(#69),#1163,.F.);
#1228=ADVANCED_FACE('',(#70),#1164,.T.);
#1229=ADVANCED_FACE('',(#71),#1165,.T.);
#1230=ADVANCED_FACE('',(#72),#1166,.T.);
#1231=ADVANCED_FACE('',(#73,#21),#1167,.T.);
#1232=ADVANCED_FACE('',(#74),#1168,.T.);
#1233=ADVANCED_FACE('',(#75),#1169,.T.);
#1234=ADVANCED_FACE('',(#76),#1170,.T.);
#1235=ADVANCED_FACE('',(#77),#1171,.T.);
#1236=ADVANCED_FACE('',(#78),#1172,.T.);
#1237=ADVANCED_FACE('',(#79),#49,.F.);
#1238=ADVANCED_FACE('',(#80),#1173,.T.);
#1239=ADVANCED_FACE('',(#81),#1174,.T.);
#1240=ADVANCED_FACE('',(#82),#1175,.F.);
#1241=ADVANCED_FACE('',(#83),#1176,.T.);
#1242=ADVANCED_FACE('',(#84),#1177,.T.);
#1243=ADVANCED_FACE('',(#85),#1178,.T.);
#1244=ADVANCED_FACE('',(#86),#1179,.F.);
#1245=ADVANCED_FACE('',(#87),#1180,.T.);
#1246=ADVANCED_FACE('',(#88),#50,.F.);
#1247=ADVANCED_FACE('',(#89),#1181,.T.);
#1248=ADVANCED_FACE('',(#90),#51,.F.);
#1249=ADVANCED_FACE('',(#91),#1182,.T.);
#1250=ADVANCED_FACE('',(#92),#52,.F.);
#1251=ADVANCED_FACE('',(#93),#1183,.T.);
#1252=ADVANCED_FACE('',(#94),#53,.F.);
#1253=ADVANCED_FACE('',(#95),#1184,.T.);
#1254=ADVANCED_FACE('',(#96),#54,.F.);
#1255=ADVANCED_FACE('',(#97),#1185,.T.);
#1256=ADVANCED_FACE('',(#98),#1186,.T.);
#1257=ADVANCED_FACE('',(#99),#1187,.T.);
#1258=ADVANCED_FACE('',(#100),#1188,.T.);
#1259=ADVANCED_FACE('',(#101),#1189,.F.);
#1260=ADVANCED_FACE('',(#102,#22),#1190,.F.);
#1261=ADVANCED_FACE('',(#103),#1191,.T.);
#1262=ADVANCED_FACE('',(#104),#1192,.T.);
#1263=ADVANCED_FACE('',(#105),#1193,.T.);
#1264=ADVANCED_FACE('',(#106),#1194,.T.);
#1265=ADVANCED_FACE('',(#107),#1195,.T.);
#1266=ADVANCED_FACE('',(#108),#1196,.F.);
#1267=ADVANCED_FACE('',(#109),#1197,.F.);
#1268=ADVANCED_FACE('',(#110),#1198,.F.);
#1269=ADVANCED_FACE('',(#111),#1199,.T.);
#1270=ADVANCED_FACE('',(#112),#1200,.F.);
#1271=ADVANCED_FACE('',(#113),#55,.F.);
#1272=ADVANCED_FACE('',(#114),#56,.F.);
#1273=ADVANCED_FACE('',(#115),#1201,.F.);
#1274=ADVANCED_FACE('',(#116),#1202,.T.);
#1275=ADVANCED_FACE('',(#117),#1203,.T.);
#1276=ADVANCED_FACE('',(#118),#1204,.F.);
#1277=ADVANCED_FACE('',(#119),#1205,.F.);
#1278=ADVANCED_FACE('',(#120),#1206,.F.);
#1279=ADVANCED_FACE('',(#121),#1207,.T.);
#1280=ADVANCED_FACE('',(#122,#23,#24),#1208,.T.);
#1281=ADVANCED_FACE('',(#123),#1209,.T.);
#1282=ADVANCED_FACE('',(#124,#25,#26),#1210,.T.);
#1283=ADVANCED_FACE('',(#125),#1211,.T.);
#1284=ADVANCED_FACE('',(#126),#1212,.T.);
#1285=ADVANCED_FACE('',(#127),#1213,.T.);
#1286=ADVANCED_FACE('',(#128),#1214,.T.);
#1287=CLOSED_SHELL('',(#1215,#1216,#1217,#1218,#1219,#1220,#1221,#1222,
#1223,#1224,#1225,#1226,#1227,#1228,#1229,#1230,#1231,#1232,#1233,#1234,
#1235,#1236));
#1288=CLOSED_SHELL('',(#1237,#1238,#1239,#1240,#1241));
#1289=CLOSED_SHELL('',(#1242,#1243,#1244,#1245,#1246));
#1290=CLOSED_SHELL('',(#1247,#1248,#1249,#1250,#1251,#1252,#1253,#1254,
#1255,#1256,#1257,#1258,#1259,#1260,#1261,#1262,#1263,#1264,#1265,#1266,
#1267,#1268,#1269,#1270,#1271,#1272,#1273,#1274,#1275,#1276,#1277,#1278,
#1279,#1280,#1281,#1282,#1283,#1284,#1285,#1286));
#1291=DERIVED_UNIT_ELEMENT(#1293,1.);
#1292=DERIVED_UNIT_ELEMENT(#2104,-3.);
#1293=(
MASS_UNIT()
NAMED_UNIT(*)
SI_UNIT(.KILO.,.GRAM.)
);
#1294=DERIVED_UNIT((#1291,#1292));
#1295=MEASURE_REPRESENTATION_ITEM('density measure',
POSITIVE_RATIO_MEASURE(7850.),#1294);
#1296=PROPERTY_DEFINITION_REPRESENTATION(#1301,#1298);
#1297=PROPERTY_DEFINITION_REPRESENTATION(#1302,#1299);
#1298=REPRESENTATION('material name',(#1300),#2101);
#1299=REPRESENTATION('density',(#1295),#2101);
#1300=DESCRIPTIVE_REPRESENTATION_ITEM('Stahl','Stahl');
#1301=PROPERTY_DEFINITION('material property','material name',#2111);
#1302=PROPERTY_DEFINITION('material property','density of part',#2111);
#1303=AXIS2_PLACEMENT_3D('',#1736,#1396,#1397);
#1304=AXIS2_PLACEMENT_3D('',#1737,#1398,#1399);
#1305=AXIS2_PLACEMENT_3D('',#1746,#1404,#1405);
#1306=AXIS2_PLACEMENT_3D('',#1752,#1409,#1410);
#1307=AXIS2_PLACEMENT_3D('',#1758,#1414,#1415);
#1308=AXIS2_PLACEMENT_3D('',#1761,#1418,#1419);
#1309=AXIS2_PLACEMENT_3D('',#1762,#1420,#1421);
#1310=AXIS2_PLACEMENT_3D('',#1771,#1426,#1427);
#1311=AXIS2_PLACEMENT_3D('',#1779,#1432,#1433);
#1312=AXIS2_PLACEMENT_3D('',#1791,#1440,#1441);
#1313=AXIS2_PLACEMENT_3D('',#1796,#1443,#1444);
#1314=AXIS2_PLACEMENT_3D('',#1799,#1446,#1447);
#1315=AXIS2_PLACEMENT_3D('',#1800,#1448,#1449);
#1316=AXIS2_PLACEMENT_3D('',#1805,#1451,#1452);
#1317=AXIS2_PLACEMENT_3D('',#1808,#1454,#1455);
#1318=AXIS2_PLACEMENT_3D('',#1809,#1456,#1457);
#1319=AXIS2_PLACEMENT_3D('',#1820,#1464,#1465);
#1320=AXIS2_PLACEMENT_3D('',#1825,#1469,#1470);
#1321=AXIS2_PLACEMENT_3D('',#1830,#1474,#1475);
#1322=AXIS2_PLACEMENT_3D('',#1836,#1479,#1480);
#1323=AXIS2_PLACEMENT_3D('',#1838,#1482,#1483);
#1324=AXIS2_PLACEMENT_3D('',#1840,#1485,#1486);
#1325=AXIS2_PLACEMENT_3D('',#1844,#1489,#1490);
#1326=AXIS2_PLACEMENT_3D('',#1848,#1493,#1494);
#1327=AXIS2_PLACEMENT_3D('',#1850,#1496,#1497);
#1328=AXIS2_PLACEMENT_3D('',#1851,#1498,#1499);
#1329=AXIS2_PLACEMENT_3D('',#1853,#1501,#1502);
#1330=AXIS2_PLACEMENT_3D('',#1854,#1503,#1504);
#1331=AXIS2_PLACEMENT_3D('',#1859,#1506,#1507);
#1332=AXIS2_PLACEMENT_3D('',#1862,#1509,#1510);
#1333=AXIS2_PLACEMENT_3D('',#1863,#1511,#1512);
#1334=AXIS2_PLACEMENT_3D('',#1869,#1516,#1517);
#1335=AXIS2_PLACEMENT_3D('',#1871,#1519,#1520);
#1336=AXIS2_PLACEMENT_3D('',#1873,#1522,#1523);
#1337=AXIS2_PLACEMENT_3D('',#1874,#1524,#1525);
#1338=AXIS2_PLACEMENT_3D('',#1883,#1530,#1531);
#1339=AXIS2_PLACEMENT_3D('',#1889,#1535,#1536);
#1340=AXIS2_PLACEMENT_3D('',#1890,#1537,#1538);
#1341=AXIS2_PLACEMENT_3D('',#1891,#1539,#1540);
#1342=AXIS2_PLACEMENT_3D('',#1892,#1541,#1542);
#1343=AXIS2_PLACEMENT_3D('',#1893,#1543,#1544);
#1344=AXIS2_PLACEMENT_3D('',#1894,#1545,#1546);
#1345=AXIS2_PLACEMENT_3D('',#1896,#1547,#1548);
#1346=AXIS2_PLACEMENT_3D('',#1897,#1549,#1550);
#1347=AXIS2_PLACEMENT_3D('',#1900,#1552,#1553);
#1348=AXIS2_PLACEMENT_3D('',#1901,#1554,#1555);
#1349=AXIS2_PLACEMENT_3D('',#1903,#1556,#1557);
#1350=AXIS2_PLACEMENT_3D('',#1904,#1558,#1559);
#1351=AXIS2_PLACEMENT_3D('',#1907,#1561,#1562);
#1352=AXIS2_PLACEMENT_3D('',#1908,#1563,#1564);
#1353=AXIS2_PLACEMENT_3D('',#1910,#1565,#1566);
#1354=AXIS2_PLACEMENT_3D('',#1911,#1567,#1568);
#1355=AXIS2_PLACEMENT_3D('',#1914,#1570,#1571);
#1356=AXIS2_PLACEMENT_3D('',#1915,#1572,#1573);
#1357=AXIS2_PLACEMENT_3D('',#1917,#1574,#1575);
#1358=AXIS2_PLACEMENT_3D('',#1918,#1576,#1577);
#1359=AXIS2_PLACEMENT_3D('',#1921,#1579,#1580);
#1360=AXIS2_PLACEMENT_3D('',#1922,#1581,#1582);
#1361=AXIS2_PLACEMENT_3D('',#1931,#1587,#1588);
#1362=AXIS2_PLACEMENT_3D('',#1940,#1593,#1594);
#1363=AXIS2_PLACEMENT_3D('',#1946,#1598,#1599);
#1364=AXIS2_PLACEMENT_3D('',#1949,#1602,#1603);
#1365=AXIS2_PLACEMENT_3D('',#1959,#1609,#1610);
#1366=AXIS2_PLACEMENT_3D('',#1963,#1612,#1613);
#1367=AXIS2_PLACEMENT_3D('',#1978,#1621,#1622);
#1368=AXIS2_PLACEMENT_3D('',#1987,#1627,#1628);
#1369=AXIS2_PLACEMENT_3D('',#1993,#1632,#1633);
#1370=AXIS2_PLACEMENT_3D('',#1997,#1636,#1637);
#1371=AXIS2_PLACEMENT_3D('',#2001,#1640,#1641);
#1372=AXIS2_PLACEMENT_3D('',#2003,#1643,#1644);
#1373=AXIS2_PLACEMENT_3D('',#2004,#1645,#1646);
#1374=AXIS2_PLACEMENT_3D('',#2010,#1650,#1651);
#1375=AXIS2_PLACEMENT_3D('',#2012,#1653,#1654);
#1376=AXIS2_PLACEMENT_3D('',#2016,#1657,#1658);
#1377=AXIS2_PLACEMENT_3D('',#2018,#1659,#1660);
#1378=AXIS2_PLACEMENT_3D('',#2033,#1668,#1669);
#1379=AXIS2_PLACEMENT_3D('',#2034,#1670,#1671);
#1380=AXIS2_PLACEMENT_3D('',#2037,#1674,#1675);
#1381=AXIS2_PLACEMENT_3D('',#2038,#1676,#1677);
#1382=AXIS2_PLACEMENT_3D('',#2040,#1679,#1680);
#1383=AXIS2_PLACEMENT_3D('',#2042,#1682,#1683);
#1384=AXIS2_PLACEMENT_3D('',#2052,#1689,#1690);
#1385=AXIS2_PLACEMENT_3D('',#2062,#1696,#1697);
#1386=AXIS2_PLACEMENT_3D('',#2066,#1700,#1701);
#1387=AXIS2_PLACEMENT_3D('',#2070,#1704,#1705);
#1388=AXIS2_PLACEMENT_3D('',#2085,#1714,#1715);
#1389=AXIS2_PLACEMENT_3D('',#2087,#1717,#1718);
#1390=AXIS2_PLACEMENT_3D('',#2090,#1721,#1722);
#1391=AXIS2_PLACEMENT_3D('',#2091,#1723,#1724);
#1392=AXIS2_PLACEMENT_3D('',#2094,#1727,#1728);
#1393=AXIS2_PLACEMENT_3D('',#2095,#1729,#1730);
#1394=AXIS2_PLACEMENT_3D('',#2097,#1732,#1733);
#1395=AXIS2_PLACEMENT_3D('',#2098,#1734,#1735);
#1396=DIRECTION('axis',(0.,0.,1.));
#1397=DIRECTION('refdir',(1.,0.,0.));
#1398=DIRECTION('center_axis',(1.,0.,0.));
#1399=DIRECTION('ref_axis',(0.,0.,-1.));
#1400=DIRECTION('',(0.,0.,1.));
#1401=DIRECTION('',(0.,0.707106781186548,-0.707106781186547));
#1402=DIRECTION('',(0.,0.,-1.));
#1403=DIRECTION('',(0.,-0.707106781186547,-0.707106781186548));
#1404=DIRECTION('center_axis',(0.,-0.707106781186548,0.707106781186547));
#1405=DIRECTION('ref_axis',(0.,-0.707106781186547,-0.707106781186548));
#1406=DIRECTION('',(-1.,0.,0.));
#1407=DIRECTION('',(1.,0.,0.));
#1408=DIRECTION('',(0.,0.707106781186547,0.707106781186548));
#1409=DIRECTION('center_axis',(-1.,0.,0.));
#1410=DIRECTION('ref_axis',(0.,0.,1.));
#1411=DIRECTION('',(0.,0.,-1.));
#1412=DIRECTION('',(0.,0.,1.));
#1413=DIRECTION('',(0.,-0.707106781186548,0.707106781186547));
#1414=DIRECTION('center_axis',(0.,-0.707106781186547,-0.707106781186548));
#1415=DIRECTION('ref_axis',(0.,0.707106781186548,-0.707106781186547));
#1416=DIRECTION('',(1.,0.,0.));
#1417=DIRECTION('',(1.,0.,0.));
#1418=DIRECTION('center_axis',(0.,-1.,0.));
#1419=DIRECTION('ref_axis',(0.,0.,-1.));
#1420=DIRECTION('center_axis',(0.,-0.707106781186548,-0.707106781186547));
#1421=DIRECTION('ref_axis',(0.,0.707106781186547,-0.707106781186548));
#1422=DIRECTION('',(-0.404226041727222,0.646761666763555,-0.646761666763555));
#1423=DIRECTION('',(-1.,0.,0.));
#1424=DIRECTION('',(-0.404226041727222,-0.646761666763555,0.646761666763555));
#1425=DIRECTION('',(1.,0.,0.));
#1426=DIRECTION('center_axis',(0.847998304005088,-0.52999894000318,0.));
#1427=DIRECTION('ref_axis',(0.52999894000318,0.847998304005088,0.));
#1428=DIRECTION('',(0.52999894000318,0.847998304005088,0.));
#1429=DIRECTION('',(0.,0.,1.));
#1430=DIRECTION('',(-0.52999894000318,-0.847998304005088,0.));
#1431=DIRECTION('',(0.,0.,1.));
#1432=DIRECTION('center_axis',(0.,0.,1.));
#1433=DIRECTION('ref_axis',(1.,0.,0.));
#1434=DIRECTION('',(0.52999894000318,-0.847998304005088,0.));
#1435=DIRECTION('',(-1.,0.,0.));
#1436=DIRECTION('',(0.,-1.,0.));
#1437=DIRECTION('',(1.,0.,0.));
#1438=DIRECTION('',(0.,1.,0.));
#1439=DIRECTION('',(-1.,0.,0.));
#1440=DIRECTION('center_axis',(0.,0.,1.));
#1441=DIRECTION('ref_axis',(1.,0.,0.));
#1442=DIRECTION('',(0.,0.,1.));
#1443=DIRECTION('center_axis',(0.,0.,-1.));
#1444=DIRECTION('ref_axis',(1.,0.,0.));
#1445=DIRECTION('',(0.,0.,1.));
#1446=DIRECTION('center_axis',(0.,0.,1.));
#1447=DIRECTION('ref_axis',(1.,0.,0.));
#1448=DIRECTION('center_axis',(0.,0.,1.));
#1449=DIRECTION('ref_axis',(-0.707106781186547,-0.707106781186548,0.));
#1450=DIRECTION('',(0.,0.,1.));
#1451=DIRECTION('center_axis',(0.,0.,1.));
#1452=DIRECTION('ref_axis',(1.,0.,0.));
#1453=DIRECTION('',(0.,0.,1.));
#1454=DIRECTION('center_axis',(0.,0.,-1.));
#1455=DIRECTION('ref_axis',(1.,0.,0.));
#1456=DIRECTION('center_axis',(-1.,0.,0.));
#1457=DIRECTION('ref_axis',(0.,-1.,0.));
#1458=DIRECTION('',(0.,-1.,0.));
#1459=DIRECTION('',(0.,0.,1.));
#1460=DIRECTION('',(0.,0.,1.));
#1461=DIRECTION('',(0.,-1.,0.));
#1462=DIRECTION('',(0.,0.,1.));
#1463=DIRECTION('',(0.,-1.,0.));
#1464=DIRECTION('center_axis',(0.,0.,1.));
#1465=DIRECTION('ref_axis',(1.,0.,0.));
#1466=DIRECTION('',(1.,0.,0.));
#1467=DIRECTION('',(0.,1.,0.));
#1468=DIRECTION('',(-1.,0.,0.));
#1469=DIRECTION('center_axis',(0.,0.,1.));
#1470=DIRECTION('ref_axis',(1.,0.,0.));
#1471=DIRECTION('',(-1.,0.,0.));
#1472=DIRECTION('',(0.,1.,0.));
#1473=DIRECTION('',(1.,0.,0.));
#1474=DIRECTION('center_axis',(-0.847998304005088,-0.52999894000318,0.));
#1475=DIRECTION('ref_axis',(0.52999894000318,-0.847998304005088,0.));
#1476=DIRECTION('',(0.,0.,1.));
#1477=DIRECTION('',(-0.52999894000318,0.847998304005088,0.));
#1478=DIRECTION('',(0.,0.,-1.));
#1479=DIRECTION('center_axis',(0.,1.,0.));
#1480=DIRECTION('ref_axis',(-1.,0.,0.));
#1481=DIRECTION('',(-1.,0.,0.));
#1482=DIRECTION('center_axis',(0.,0.,1.));
#1483=DIRECTION('ref_axis',(1.,0.,0.));
#1484=DIRECTION('',(-1.,0.,0.));
#1485=DIRECTION('center_axis',(0.,1.,0.));
#1486=DIRECTION('ref_axis',(-1.,0.,0.));
#1487=DIRECTION('',(-1.,0.,0.));
#1488=DIRECTION('',(0.,0.,1.));
#1489=DIRECTION('center_axis',(0.,0.,1.));
#1490=DIRECTION('ref_axis',(1.,0.,0.));
#1491=DIRECTION('',(-1.,0.,0.));
#1492=DIRECTION('',(0.,1.,0.));
#1493=DIRECTION('center_axis',(0.,1.,0.));
#1494=DIRECTION('ref_axis',(-1.,0.,0.));
#1495=DIRECTION('',(0.,0.,1.));
#1496=DIRECTION('center_axis',(0.,1.,0.));
#1497=DIRECTION('ref_axis',(-1.,0.,0.));
#1498=DIRECTION('center_axis',(1.,0.,0.));
#1499=DIRECTION('ref_axis',(0.,1.,0.));
#1500=DIRECTION('',(0.,0.,1.));
#1501=DIRECTION('center_axis',(0.,-1.,0.));
#1502=DIRECTION('ref_axis',(1.,0.,0.));
#1503=DIRECTION('center_axis',(0.,0.,1.));
#1504=DIRECTION('ref_axis',(1.,0.,0.));
#1505=DIRECTION('',(0.,0.,1.));
#1506=DIRECTION('center_axis',(0.,0.,-1.));
#1507=DIRECTION('ref_axis',(1.,0.,0.));
#1508=DIRECTION('',(0.,0.,1.));
#1509=DIRECTION('center_axis',(0.,0.,1.));
#1510=DIRECTION('ref_axis',(1.,0.,0.));
#1511=DIRECTION('center_axis',(1.,0.,0.));
#1512=DIRECTION('ref_axis',(0.,1.,0.));
#1513=DIRECTION('',(0.,1.,0.));
#1514=DIRECTION('',(0.,0.,1.));
#1515=DIRECTION('',(0.,1.,0.));
#1516=DIRECTION('center_axis',(0.,0.,1.));
#1517=DIRECTION('ref_axis',(1.,0.,0.));
#1518=DIRECTION('',(-1.,0.,0.));
#1519=DIRECTION('center_axis',(0.,0.,1.));
#1520=DIRECTION('ref_axis',(1.,0.,0.));
#1521=DIRECTION('',(-1.,0.,0.));
#1522=DIRECTION('center_axis',(0.,1.,0.));
#1523=DIRECTION('ref_axis',(-1.,0.,0.));
#1524=DIRECTION('center_axis',(-1.,0.,0.));
#1525=DIRECTION('ref_axis',(0.,-1.,0.));
#1526=DIRECTION('',(0.,0.,1.));
#1527=DIRECTION('',(0.,-1.,0.));
#1528=DIRECTION('',(0.,0.,1.));
#1529=DIRECTION('',(0.,-1.,0.));
#1530=DIRECTION('center_axis',(0.,1.,0.));
#1531=DIRECTION('ref_axis',(-1.,0.,0.));
#1532=DIRECTION('',(0.,0.,1.));
#1533=DIRECTION('',(-1.,0.,0.));
#1534=DIRECTION('',(-1.,0.,0.));
#1535=DIRECTION('center_axis',(0.,0.,1.));
#1536=DIRECTION('ref_axis',(1.,0.,0.));
#1537=DIRECTION('center_axis',(0.,0.,1.));
#1538=DIRECTION('ref_axis',(1.,0.,0.));
#1539=DIRECTION('center_axis',(0.,0.,1.));
#1540=DIRECTION('ref_axis',(1.,0.,0.));
#1541=DIRECTION('center_axis',(0.,0.,-1.));
#1542=DIRECTION('ref_axis',(1.,0.,0.));
#1543=DIRECTION('center_axis',(0.,0.,1.));
#1544=DIRECTION('ref_axis',(1.,0.,0.));
#1545=DIRECTION('center_axis',(0.,1.,0.));
#1546=DIRECTION('ref_axis',(1.,0.,0.));
#1547=DIRECTION('center_axis',(0.,-1.,0.));
#1548=DIRECTION('ref_axis',(1.,0.,0.));
#1549=DIRECTION('center_axis',(0.,1.,0.));
#1550=DIRECTION('ref_axis',(1.,0.,0.));
#1551=DIRECTION('',(0.,1.,0.));
#1552=DIRECTION('center_axis',(0.,-1.,0.));
#1553=DIRECTION('ref_axis',(1.,0.,0.));
#1554=DIRECTION('center_axis',(0.,1.,0.));
#1555=DIRECTION('ref_axis',(1.,0.,0.));
#1556=DIRECTION('center_axis',(0.,-1.,0.));
#1557=DIRECTION('ref_axis',(1.,0.,0.));
#1558=DIRECTION('center_axis',(0.,1.,0.));
#1559=DIRECTION('ref_axis',(1.,0.,0.));
#1560=DIRECTION('',(0.,1.,0.));
#1561=DIRECTION('center_axis',(0.,-1.,0.));
#1562=DIRECTION('ref_axis',(1.,0.,0.));
#1563=DIRECTION('center_axis',(0.,1.,0.));
#1564=DIRECTION('ref_axis',(1.,0.,0.));
#1565=DIRECTION('center_axis',(0.,-1.,0.));
#1566=DIRECTION('ref_axis',(1.,0.,0.));
#1567=DIRECTION('center_axis',(0.,1.,0.));
#1568=DIRECTION('ref_axis',(1.,0.,0.));
#1569=DIRECTION('',(0.,1.,0.));
#1570=DIRECTION('center_axis',(0.,-1.,0.));
#1571=DIRECTION('ref_axis',(1.,0.,0.));
#1572=DIRECTION('center_axis',(0.,1.,0.));
#1573=DIRECTION('ref_axis',(1.,0.,0.));
#1574=DIRECTION('center_axis',(0.,-1.,0.));
#1575=DIRECTION('ref_axis',(1.,0.,0.));
#1576=DIRECTION('center_axis',(0.,1.,0.));
#1577=DIRECTION('ref_axis',(1.,0.,0.));
#1578=DIRECTION('',(0.,1.,0.));
#1579=DIRECTION('center_axis',(0.,-1.,0.));
#1580=DIRECTION('ref_axis',(1.,0.,0.));
#1581=DIRECTION('center_axis',(0.,0.,-1.));
#1582=DIRECTION('ref_axis',(0.,1.,0.));
#1583=DIRECTION('',(1.,0.,0.));
#1584=DIRECTION('',(0.,-1.,0.));
#1585=DIRECTION('',(1.,0.,0.));
#1586=DIRECTION('',(0.,1.,0.));
#1587=DIRECTION('center_axis',(0.,0.,1.));
#1588=DIRECTION('ref_axis',(0.,-1.,0.));
#1589=DIRECTION('',(-1.,0.,0.));
#1590=DIRECTION('',(0.,-1.,0.));
#1591=DIRECTION('',(1.,0.,0.));
#1592=DIRECTION('',(0.,1.,0.));
#1593=DIRECTION('center_axis',(0.,1.,0.));
#1594=DIRECTION('ref_axis',(0.,0.,1.));
#1595=DIRECTION('',(0.,0.,1.));
#1596=DIRECTION('',(1.,0.,0.));
#1597=DIRECTION('',(0.,0.,-1.));
#1598=DIRECTION('center_axis',(0.,0.707106781186548,-0.707106781186547));
#1599=DIRECTION('ref_axis',(0.,0.707106781186547,0.707106781186548));
#1600=DIRECTION('',(0.,0.707106781186547,0.707106781186548));
#1601=DIRECTION('',(0.,-0.707106781186547,-0.707106781186548));
#1602=DIRECTION('center_axis',(-1.,0.,0.));
#1603=DIRECTION('ref_axis',(0.,0.,1.));
#1604=DIRECTION('',(0.,0.,1.));
#1605=DIRECTION('',(0.,1.,0.));
#1606=DIRECTION('',(0.,0.,-1.));
#1607=DIRECTION('',(0.,-0.395027750659416,0.918669187580036));
#1608=DIRECTION('',(0.,0.,1.));
#1609=DIRECTION('center_axis',(0.,1.,0.));
#1610=DIRECTION('ref_axis',(-1.,0.,0.));
#1611=DIRECTION('',(0.,0.,-1.));
#1612=DIRECTION('center_axis',(0.,1.,0.));
#1613=DIRECTION('ref_axis',(1.,0.,0.));
#1614=DIRECTION('',(0.,0.,1.));
#1615=DIRECTION('',(1.,0.,0.));
#1616=DIRECTION('',(0.,0.,1.));
#1617=DIRECTION('',(-1.,0.,0.));
#1618=DIRECTION('',(0.,0.,1.));
#1619=DIRECTION('',(1.,0.,0.));
#1620=DIRECTION('',(0.,0.,-1.));
#1621=DIRECTION('center_axis',(0.,1.,0.));
#1622=DIRECTION('ref_axis',(1.,0.,0.));
#1623=DIRECTION('',(0.,0.,1.));
#1624=DIRECTION('',(1.,0.,0.));
#1625=DIRECTION('',(0.,0.,-1.));
#1626=DIRECTION('',(-1.,0.,0.));
#1627=DIRECTION('center_axis',(0.,-0.707106781186548,0.707106781186547));
#1628=DIRECTION('ref_axis',(0.,-0.707106781186547,-0.707106781186548));
#1629=DIRECTION('',(0.,0.707106781186547,0.707106781186548));
#1630=DIRECTION('',(1.,0.,0.));
#1631=DIRECTION('',(0.,-0.707106781186547,-0.707106781186548));
#1632=DIRECTION('center_axis',(-1.,0.,0.));
#1633=DIRECTION('ref_axis',(0.,0.,1.));
#1634=DIRECTION('',(0.,-0.707106781186547,0.707106781186548));
#1635=DIRECTION('',(0.,0.,1.));
#1636=DIRECTION('center_axis',(0.,-0.707106781186548,-0.707106781186547));
#1637=DIRECTION('ref_axis',(0.,0.707106781186547,-0.707106781186548));
#1638=DIRECTION('',(0.,0.707106781186547,-0.707106781186548));
#1639=DIRECTION('',(1.,0.,0.));
#1640=DIRECTION('center_axis',(0.,-1.,0.));
#1641=DIRECTION('ref_axis',(0.,0.,-1.));
#1642=DIRECTION('',(0.,0.,-1.));
#1643=DIRECTION('center_axis',(1.,0.,0.));
#1644=DIRECTION('ref_axis',(0.,0.,-1.));
#1645=DIRECTION('center_axis',(0.,-0.918669187580036,-0.395027750659416));
#1646=DIRECTION('ref_axis',(0.,0.395027750659416,-0.918669187580036));
#1647=DIRECTION('',(1.,0.,0.));
#1648=DIRECTION('',(0.,0.395027750659416,-0.918669187580036));
#1649=DIRECTION('',(1.,0.,0.));
#1650=DIRECTION('center_axis',(0.,-1.,0.));
#1651=DIRECTION('ref_axis',(0.,0.,-1.));
#1652=DIRECTION('',(0.,0.,-1.));
#1653=DIRECTION('center_axis',(1.,0.,0.));
#1654=DIRECTION('ref_axis',(0.,0.,-1.));
#1655=DIRECTION('',(0.,0.,1.));
#1656=DIRECTION('',(0.,1.,0.));
#1657=DIRECTION('center_axis',(0.,1.,0.));
#1658=DIRECTION('ref_axis',(-1.,0.,0.));
#1659=DIRECTION('center_axis',(0.,-1.,0.));
#1660=DIRECTION('ref_axis',(1.,0.,0.));
#1661=DIRECTION('',(0.,0.,1.));
#1662=DIRECTION('',(-1.,0.,0.));
#1663=DIRECTION('',(0.,0.,-1.));
#1664=DIRECTION('',(-1.,0.,0.));
#1665=DIRECTION('',(0.,0.,1.));
#1666=DIRECTION('',(-1.,0.,0.));
#1667=DIRECTION('',(0.,0.,-1.));
#1668=DIRECTION('center_axis',(0.,-1.,0.));
#1669=DIRECTION('ref_axis',(1.,0.,0.));
#1670=DIRECTION('center_axis',(-1.,0.,0.));
#1671=DIRECTION('ref_axis',(0.,0.,1.));
#1672=DIRECTION('',(0.,1.,0.));
#1673=DIRECTION('',(0.,1.,0.));
#1674=DIRECTION('center_axis',(0.,1.,0.));
#1675=DIRECTION('ref_axis',(1.,0.,0.));
#1676=DIRECTION('center_axis',(0.,1.,0.));
#1677=DIRECTION('ref_axis',(1.,0.,0.));
#1678=DIRECTION('',(0.,1.,0.));
#1679=DIRECTION('center_axis',(1.,0.,0.));
#1680=DIRECTION('ref_axis',(0.,0.,-1.));
#1681=DIRECTION('',(0.,-1.,0.));
#1682=DIRECTION('center_axis',(0.,0.,1.));
#1683=DIRECTION('ref_axis',(1.,0.,0.));
#1684=DIRECTION('',(0.,1.,0.));
#1685=DIRECTION('',(-1.,0.,0.));
#1686=DIRECTION('',(0.,-1.,0.));
#1687=DIRECTION('',(1.,0.,0.));
#1688=DIRECTION('',(-0.507020126563394,0.86193421515777,0.));
#1689=DIRECTION('center_axis',(0.,0.,1.));
#1690=DIRECTION('ref_axis',(1.,0.,0.));
#1691=DIRECTION('',(-0.507020126563394,-0.86193421515777,0.));
#1692=DIRECTION('',(1.,0.,0.));
#1693=DIRECTION('',(0.,1.,0.));
#1694=DIRECTION('',(-1.,0.,0.));
#1695=DIRECTION('',(0.,-1.,0.));
#1696=DIRECTION('center_axis',(0.86193421515777,-0.507020126563394,0.));
#1697=DIRECTION('ref_axis',(0.507020126563394,0.86193421515777,0.));
#1698=DIRECTION('',(0.,0.,-1.));
#1699=DIRECTION('',(0.507020126563394,0.86193421515777,0.));
#1700=DIRECTION('center_axis',(-0.86193421515777,-0.507020126563394,0.));
#1701=DIRECTION('ref_axis',(0.507020126563394,-0.86193421515777,0.));
#1702=DIRECTION('',(0.,0.,1.));
#1703=DIRECTION('',(0.507020126563394,-0.86193421515777,0.));
#1704=DIRECTION('center_axis',(0.,0.,1.));
#1705=DIRECTION('ref_axis',(1.,0.,0.));
#1706=DIRECTION('',(1.,0.,0.));
#1707=DIRECTION('',(0.,-1.,0.));
#1708=DIRECTION('',(-1.,0.,0.));
#1709=DIRECTION('',(0.,1.,0.));
#1710=DIRECTION('',(0.,-1.,0.));
#1711=DIRECTION('',(-1.,0.,0.));
#1712=DIRECTION('',(0.,1.,0.));
#1713=DIRECTION('',(1.,0.,0.));
#1714=DIRECTION('center_axis',(0.,-1.,0.));
#1715=DIRECTION('ref_axis',(1.,0.,0.));
#1716=DIRECTION('',(0.,0.,1.));
#1717=DIRECTION('center_axis',(0.,1.,0.));
#1718=DIRECTION('ref_axis',(-1.,0.,0.));
#1719=DIRECTION('',(0.,0.,1.));
#1720=DIRECTION('',(0.,0.,1.));
#1721=DIRECTION('center_axis',(1.,0.,0.));
#1722=DIRECTION('ref_axis',(0.,1.,0.));
#1723=DIRECTION('center_axis',(0.,1.,0.));
#1724=DIRECTION('ref_axis',(-1.,0.,0.));
#1725=DIRECTION('',(0.,0.,1.));
#1726=DIRECTION('',(0.,0.,1.));
#1727=DIRECTION('center_axis',(-1.,0.,0.));
#1728=DIRECTION('ref_axis',(0.,-1.,0.));
#1729=DIRECTION('center_axis',(1.,0.,0.));
#1730=DIRECTION('ref_axis',(0.,1.,0.));
#1731=DIRECTION('',(0.,0.,1.));
#1732=DIRECTION('center_axis',(0.,-1.,0.));
#1733=DIRECTION('ref_axis',(1.,0.,0.));
#1734=DIRECTION('center_axis',(-1.,0.,0.));
#1735=DIRECTION('ref_axis',(0.,-1.,0.));
#1736=CARTESIAN_POINT('',(0.,0.,0.));
#1737=CARTESIAN_POINT('Origin',(3.5,3.9,24.5));
#1738=CARTESIAN_POINT('',(3.5,4.,22.2));
#1739=CARTESIAN_POINT('',(3.5,4.,26.8));
#1740=CARTESIAN_POINT('',(3.5,4.,13.75));
#1741=CARTESIAN_POINT('',(3.5,2.8,23.4));
#1742=CARTESIAN_POINT('',(3.5,5.,21.2));
#1743=CARTESIAN_POINT('',(3.5,2.8,25.6));
#1744=CARTESIAN_POINT('',(3.5,2.8,23.4));
#1745=CARTESIAN_POINT('',(3.5,2.8,25.6));
#1746=CARTESIAN_POINT('Origin',(0.,5.,27.8));
#1747=CARTESIAN_POINT('',(-3.5,4.,26.8));
#1748=CARTESIAN_POINT('',(7.5,4.,26.8));
#1749=CARTESIAN_POINT('',(-3.5,2.8,25.6));
#1750=CARTESIAN_POINT('',(0.,2.8,25.6));
#1751=CARTESIAN_POINT('',(-3.5,2.8,25.6));
#1752=CARTESIAN_POINT('Origin',(-3.5,3.9,24.5));
#1753=CARTESIAN_POINT('',(-3.5,4.,22.2));
#1754=CARTESIAN_POINT('',(-3.5,4.,13.75));
#1755=CARTESIAN_POINT('',(-3.5,2.8,23.4));
#1756=CARTESIAN_POINT('',(-3.5,2.8,23.4));
#1757=CARTESIAN_POINT('',(-3.5,5.,21.2));
#1758=CARTESIAN_POINT('Origin',(0.,2.8,23.4));
#1759=CARTESIAN_POINT('',(7.5,4.,22.2));
#1760=CARTESIAN_POINT('',(0.,2.8,23.4));
#1761=CARTESIAN_POINT('Origin',(0.,2.8,25.6));
#1762=CARTESIAN_POINT('Origin',(0.,1.5,31.));
#1763=CARTESIAN_POINT('',(-7.0625,2.5,30.));
#1764=CARTESIAN_POINT('',(-8.,4.,28.5));
#1765=CARTESIAN_POINT('',(-9.37254901960784,6.19607843137255,26.3039215686275));
#1766=CARTESIAN_POINT('',(7.0625,2.5,30.));
#1767=CARTESIAN_POINT('',(0.,2.5,30.));
#1768=CARTESIAN_POINT('',(8.,4.,28.5));
#1769=CARTESIAN_POINT('',(8.64542483660131,5.03267973856209,27.4673202614379));
#1770=CARTESIAN_POINT('',(7.5,4.,28.5));
#1771=CARTESIAN_POINT('Origin',(5.5,0.,8.));
#1772=CARTESIAN_POINT('',(5.5,0.,30.));
#1773=CARTESIAN_POINT('',(5.5,0.,30.));
#1774=CARTESIAN_POINT('',(5.5,0.,8.));
#1775=CARTESIAN_POINT('',(5.5,2.77555756156289E-16,4.));
#1776=CARTESIAN_POINT('',(8.,4.,8.));
#1777=CARTESIAN_POINT('',(5.17696629213483,-0.51685393258427,8.));
#1778=CARTESIAN_POINT('',(8.,4.,8.));
#1779=CARTESIAN_POINT('Origin',(0.,-1.5,30.));
#1780=CARTESIAN_POINT('',(-5.5,0.,30.));
#1781=CARTESIAN_POINT('',(-8.,4.,30.));
#1782=CARTESIAN_POINT('',(-15.,0.,30.));
#1783=CARTESIAN_POINT('',(15.,0.,30.));
#1784=CARTESIAN_POINT('',(-15.,-3.,30.));
#1785=CARTESIAN_POINT('',(-15.,0.,30.));
#1786=CARTESIAN_POINT('',(15.,-3.,30.));
#1787=CARTESIAN_POINT('',(-15.,-3.,30.));
#1788=CARTESIAN_POINT('',(15.,0.,30.));
#1789=CARTESIAN_POINT('',(15.,-3.,30.));
#1790=CARTESIAN_POINT('',(15.,0.,30.));
#1791=CARTESIAN_POINT('Origin',(-13.,7.,0.));
#1792=CARTESIAN_POINT('',(-15.,7.,0.));
#1793=CARTESIAN_POINT('',(-15.,7.,3.));
#1794=CARTESIAN_POINT('',(-15.,7.,0.));
#1795=CARTESIAN_POINT('',(-13.,9.,3.));
#1796=CARTESIAN_POINT('Origin',(-13.,7.,3.));
#1797=CARTESIAN_POINT('',(-13.,9.,0.));
#1798=CARTESIAN_POINT('',(-13.,9.,0.));
#1799=CARTESIAN_POINT('Origin',(-13.,7.,0.));
#1800=CARTESIAN_POINT('Origin',(13.,7.,0.));
#1801=CARTESIAN_POINT('',(15.,7.,0.));
#1802=CARTESIAN_POINT('',(15.,7.,3.));
#1803=CARTESIAN_POINT('',(15.,7.,0.));
#1804=CARTESIAN_POINT('',(13.,9.,0.));
#1805=CARTESIAN_POINT('Origin',(13.,7.,0.));
#1806=CARTESIAN_POINT('',(13.,9.,3.));
#1807=CARTESIAN_POINT('',(13.,9.,0.));
#1808=CARTESIAN_POINT('Origin',(13.,7.,3.));
#1809=CARTESIAN_POINT('Origin',(-15.,0.,0.));
#1810=CARTESIAN_POINT('',(-15.,-3.,0.));
#1811=CARTESIAN_POINT('',(-15.,0.,0.));
#1812=CARTESIAN_POINT('',(-15.,-3.,0.));
#1813=CARTESIAN_POINT('',(-15.,0.,8.));
#1814=CARTESIAN_POINT('',(-15.,0.,0.));
#1815=CARTESIAN_POINT('',(-15.,4.,8.));
#1816=CARTESIAN_POINT('',(-15.,4.,8.));
#1817=CARTESIAN_POINT('',(-15.,4.,3.));
#1818=CARTESIAN_POINT('',(-15.,4.,3.));
#1819=CARTESIAN_POINT('',(-15.,9.,3.));
#1820=CARTESIAN_POINT('Origin',(0.,4.,3.));
#1821=CARTESIAN_POINT('',(15.,4.,3.));
#1822=CARTESIAN_POINT('',(7.5,4.,3.));
#1823=CARTESIAN_POINT('',(15.,-1.,3.));
#1824=CARTESIAN_POINT('',(15.,9.,3.));
#1825=CARTESIAN_POINT('Origin',(0.,-1.5,0.));
#1826=CARTESIAN_POINT('',(15.,9.,0.));
#1827=CARTESIAN_POINT('',(15.,-3.,0.));
#1828=CARTESIAN_POINT('',(15.,-3.,0.));
#1829=CARTESIAN_POINT('',(-15.,-3.,0.));
#1830=CARTESIAN_POINT('Origin',(-8.,4.,8.));
#1831=CARTESIAN_POINT('',(-8.,4.,8.));
#1832=CARTESIAN_POINT('',(-8.,4.,8.));
#1833=CARTESIAN_POINT('',(-5.5,0.,8.));
#1834=CARTESIAN_POINT('',(-6.42696629213483,1.48314606741573,8.));
#1835=CARTESIAN_POINT('',(-5.5,0.,4.));
#1836=CARTESIAN_POINT('Origin',(15.,0.,0.));
#1837=CARTESIAN_POINT('',(7.5,0.,8.));
#1838=CARTESIAN_POINT('Origin',(0.,2.,8.));
#1839=CARTESIAN_POINT('',(15.,4.,8.));
#1840=CARTESIAN_POINT('Origin',(15.,4.,3.));
#1841=CARTESIAN_POINT('',(15.,4.,8.));
#1842=CARTESIAN_POINT('',(15.,4.,8.));
#1843=CARTESIAN_POINT('',(15.,4.,3.));
#1844=CARTESIAN_POINT('Origin',(0.,2.,8.));
#1845=CARTESIAN_POINT('',(15.,0.,8.));
#1846=CARTESIAN_POINT('',(7.5,0.,8.));
#1847=CARTESIAN_POINT('',(15.,0.,8.));
#1848=CARTESIAN_POINT('Origin',(15.,0.,0.));
#1849=CARTESIAN_POINT('',(15.,0.,0.));
#1850=CARTESIAN_POINT('Origin',(15.,9.,0.));
#1851=CARTESIAN_POINT('Origin',(15.,-3.,0.));
#1852=CARTESIAN_POINT('',(15.,-3.,0.));
#1853=CARTESIAN_POINT('Origin',(-15.,-3.,0.));
#1854=CARTESIAN_POINT('Origin',(13.,7.,0.));
#1855=CARTESIAN_POINT('',(15.,7.,0.));
#1856=CARTESIAN_POINT('',(15.,7.,3.));
#1857=CARTESIAN_POINT('',(15.,7.,0.));
#1858=CARTESIAN_POINT('',(13.,9.,3.));
#1859=CARTESIAN_POINT('Origin',(13.,7.,3.));
#1860=CARTESIAN_POINT('',(13.,9.,0.));
#1861=CARTESIAN_POINT('',(13.,9.,0.));
#1862=CARTESIAN_POINT('Origin',(13.,7.,0.));
#1863=CARTESIAN_POINT('Origin',(15.,-3.,0.));
#1864=CARTESIAN_POINT('',(15.,9.,0.));
#1865=CARTESIAN_POINT('',(15.,-3.,0.));
#1866=CARTESIAN_POINT('',(15.,9.,3.));
#1867=CARTESIAN_POINT('',(15.,9.,0.));
#1868=CARTESIAN_POINT('',(15.,-1.,3.));
#1869=CARTESIAN_POINT('Origin',(0.,4.,3.));
#1870=CARTESIAN_POINT('',(15.,9.,3.));
#1871=CARTESIAN_POINT('Origin',(0.,-1.5,0.));
#1872=CARTESIAN_POINT('',(15.,9.,0.));
#1873=CARTESIAN_POINT('Origin',(15.,9.,0.));
#1874=CARTESIAN_POINT('Origin',(-15.,0.,0.));
#1875=CARTESIAN_POINT('',(-15.,7.,0.));
#1876=CARTESIAN_POINT('',(-15.,7.,3.));
#1877=CARTESIAN_POINT('',(-15.,7.,0.));
#1878=CARTESIAN_POINT('',(-15.,9.,3.));
#1879=CARTESIAN_POINT('',(-15.,9.,3.));
#1880=CARTESIAN_POINT('',(-15.,9.,0.));
#1881=CARTESIAN_POINT('',(-15.,9.,0.));
#1882=CARTESIAN_POINT('',(-15.,0.,0.));
#1883=CARTESIAN_POINT('Origin',(15.,9.,0.));
#1884=CARTESIAN_POINT('',(-13.,9.,0.));
#1885=CARTESIAN_POINT('',(-13.,9.,3.));
#1886=CARTESIAN_POINT('',(-13.,9.,0.));
#1887=CARTESIAN_POINT('',(15.,9.,0.));
#1888=CARTESIAN_POINT('',(15.,9.,3.));
#1889=CARTESIAN_POINT('Origin',(0.,-1.5,0.));
#1890=CARTESIAN_POINT('Origin',(-13.,7.,0.));
#1891=CARTESIAN_POINT('Origin',(0.,4.,3.));
#1892=CARTESIAN_POINT('Origin',(-13.,7.,3.));
#1893=CARTESIAN_POINT('Origin',(-13.,7.,0.));
#1894=CARTESIAN_POINT('Origin',(9.5,5.5,13.));
#1895=CARTESIAN_POINT('',(7.5,5.5,13.));
#1896=CARTESIAN_POINT('Origin',(9.5,5.5,13.));
#1897=CARTESIAN_POINT('Origin',(9.5,8.75,13.));
#1898=CARTESIAN_POINT('',(7.5,12.,13.));
#1899=CARTESIAN_POINT('',(7.5,8.75,13.));
#1900=CARTESIAN_POINT('Origin',(9.5,12.,13.));
#1901=CARTESIAN_POINT('Origin',(-9.5,5.5,25.));
#1902=CARTESIAN_POINT('',(-11.5,5.5,25.));
#1903=CARTESIAN_POINT('Origin',(-9.5,5.5,25.));
#1904=CARTESIAN_POINT('Origin',(-9.5,8.75,25.));
#1905=CARTESIAN_POINT('',(-11.5,12.,25.));
#1906=CARTESIAN_POINT('',(-11.5,8.75,25.));
#1907=CARTESIAN_POINT('Origin',(-9.5,12.,25.));
#1908=CARTESIAN_POINT('Origin',(-9.5,5.5,13.));
#1909=CARTESIAN_POINT('',(-11.5,5.5,13.));
#1910=CARTESIAN_POINT('Origin',(-9.5,5.5,13.));
#1911=CARTESIAN_POINT('Origin',(-9.5,8.75,13.));
#1912=CARTESIAN_POINT('',(-11.5,12.,13.));
#1913=CARTESIAN_POINT('',(-11.5,8.75,13.));
#1914=CARTESIAN_POINT('Origin',(-9.5,12.,13.));
#1915=CARTESIAN_POINT('Origin',(9.5,5.5,25.));
#1916=CARTESIAN_POINT('',(7.5,5.5,25.));
#1917=CARTESIAN_POINT('Origin',(9.5,5.5,25.));
#1918=CARTESIAN_POINT('Origin',(9.5,8.75,25.));
#1919=CARTESIAN_POINT('',(7.5,12.,25.));
#1920=CARTESIAN_POINT('',(7.5,8.75,25.));
#1921=CARTESIAN_POINT('Origin',(9.5,12.,25.));
#1922=CARTESIAN_POINT('Origin',(0.,4.25,29.));
#1923=CARTESIAN_POINT('',(-4.,5.85,29.));
#1924=CARTESIAN_POINT('',(4.,5.85,29.));
#1925=CARTESIAN_POINT('',(0.,5.85,29.));
#1926=CARTESIAN_POINT('',(-4.,7.5,29.));
#1927=CARTESIAN_POINT('',(-4.,4.25,29.));
#1928=CARTESIAN_POINT('',(4.,7.5,29.));
#1929=CARTESIAN_POINT('',(0.,7.5,29.));
#1930=CARTESIAN_POINT('',(4.,4.25,29.));
#1931=CARTESIAN_POINT('Origin',(0.,10.5,34.5));
#1932=CARTESIAN_POINT('',(4.,4.25,34.5));
#1933=CARTESIAN_POINT('',(-4.,4.25,34.5));
#1934=CARTESIAN_POINT('',(0.,4.25,34.5));
#1935=CARTESIAN_POINT('',(4.,10.5,34.5));
#1936=CARTESIAN_POINT('',(4.,10.5,34.5));
#1937=CARTESIAN_POINT('',(-4.,10.5,34.5));
#1938=CARTESIAN_POINT('',(0.,10.5,34.5));
#1939=CARTESIAN_POINT('',(-4.,10.5,34.5));
#1940=CARTESIAN_POINT('Origin',(0.,10.5,32.));
#1941=CARTESIAN_POINT('',(4.,10.5,32.));
#1942=CARTESIAN_POINT('',(4.,10.5,32.));
#1943=CARTESIAN_POINT('',(-4.,10.5,32.));
#1944=CARTESIAN_POINT('',(0.,10.5,32.));
#1945=CARTESIAN_POINT('',(-4.,10.5,32.));
#1946=CARTESIAN_POINT('Origin',(0.,7.5,29.));
#1947=CARTESIAN_POINT('',(4.,7.5,29.));
#1948=CARTESIAN_POINT('',(-4.,7.5,29.));
#1949=CARTESIAN_POINT('Origin',(4.,5.75,10.));
#1950=CARTESIAN_POINT('',(4.,4.25,10.));
#1951=CARTESIAN_POINT('',(4.,4.25,9.));
#1952=CARTESIAN_POINT('',(4.,7.5,10.));
#1953=CARTESIAN_POINT('',(4.,5.75,10.));
#1954=CARTESIAN_POINT('',(4.,7.5,10.1627906976744));
#1955=CARTESIAN_POINT('',(4.,7.5,9.));
#1956=CARTESIAN_POINT('',(4.,5.85,14.));
#1957=CARTESIAN_POINT('',(4.,6.56799729935016,12.3302388387206));
#1958=CARTESIAN_POINT('',(4.,5.85,20.5));
#1959=CARTESIAN_POINT('Origin',(8.25,4.25,8.));
#1960=CARTESIAN_POINT('',(-4.,4.25,10.));
#1961=CARTESIAN_POINT('',(-4.,4.25,19.25));
#1962=CARTESIAN_POINT('',(-5.5,4.25,10.));
#1963=CARTESIAN_POINT('Origin',(-4.75,4.25,10.));
#1964=CARTESIAN_POINT('',(-5.5,4.25,30.));
#1965=CARTESIAN_POINT('',(-5.5,4.25,9.));
#1966=CARTESIAN_POINT('',(-8.25,4.25,30.));
#1967=CARTESIAN_POINT('',(4.125,4.25,30.));
#1968=CARTESIAN_POINT('',(-8.25,4.25,8.));
#1969=CARTESIAN_POINT('',(-8.25,4.25,8.));
#1970=CARTESIAN_POINT('',(8.25,4.25,8.));
#1971=CARTESIAN_POINT('',(4.125,4.25,8.));
#1972=CARTESIAN_POINT('',(8.25,4.25,30.));
#1973=CARTESIAN_POINT('',(8.25,4.25,8.));
#1974=CARTESIAN_POINT('',(5.5,4.25,30.));
#1975=CARTESIAN_POINT('',(4.125,4.25,30.));
#1976=CARTESIAN_POINT('',(5.5,4.25,10.));
#1977=CARTESIAN_POINT('',(5.5,4.25,19.25));
#1978=CARTESIAN_POINT('Origin',(4.75,4.25,10.));
#1979=CARTESIAN_POINT('',(-3.,4.25,22.45));
#1980=CARTESIAN_POINT('',(-3.,4.25,26.55));
#1981=CARTESIAN_POINT('',(-3.,4.25,16.25));
#1982=CARTESIAN_POINT('',(3.,4.25,26.55));
#1983=CARTESIAN_POINT('',(4.125,4.25,26.55));
#1984=CARTESIAN_POINT('',(3.,4.25,22.45));
#1985=CARTESIAN_POINT('',(3.,4.25,16.25));
#1986=CARTESIAN_POINT('',(4.125,4.25,22.45));
#1987=CARTESIAN_POINT('Origin',(0.,4.75,27.05));
#1988=CARTESIAN_POINT('',(-3.,3.1,25.4));
#1989=CARTESIAN_POINT('',(-3.,3.1,25.4));
#1990=CARTESIAN_POINT('',(3.,3.1,25.4));
#1991=CARTESIAN_POINT('',(0.,3.1,25.4));
#1992=CARTESIAN_POINT('',(3.,3.1,25.4));
#1993=CARTESIAN_POINT('Origin',(-3.,3.925,24.5));
#1994=CARTESIAN_POINT('',(-3.,3.1,23.6));
#1995=CARTESIAN_POINT('',(-3.,4.75,21.95));
#1996=CARTESIAN_POINT('',(-3.,3.1,23.6));
#1997=CARTESIAN_POINT('Origin',(0.,3.1,23.6));
#1998=CARTESIAN_POINT('',(3.,3.1,23.6));
#1999=CARTESIAN_POINT('',(3.,4.75,21.95));
#2000=CARTESIAN_POINT('',(0.,3.1,23.6));
#2001=CARTESIAN_POINT('Origin',(0.,3.1,25.4));
#2002=CARTESIAN_POINT('',(3.,3.1,23.6));
#2003=CARTESIAN_POINT('Origin',(3.,3.925,24.5));
#2004=CARTESIAN_POINT('Origin',(0.,5.85,14.));
#2005=CARTESIAN_POINT('',(-4.,7.5,10.1627906976744));
#2006=CARTESIAN_POINT('',(6.5,7.5,10.1627906976744));
#2007=CARTESIAN_POINT('',(-4.,5.85,14.));
#2008=CARTESIAN_POINT('',(-4.,2.84827411595915,20.9807578698624));
#2009=CARTESIAN_POINT('',(0.,5.85,14.));
#2010=CARTESIAN_POINT('Origin',(0.,5.85,31.));
#2011=CARTESIAN_POINT('',(-4.,5.85,30.75));
#2012=CARTESIAN_POINT('Origin',(-4.,5.75,30.5));
#2013=CARTESIAN_POINT('',(-4.,7.5,10.));
#2014=CARTESIAN_POINT('',(-4.,7.5,19.25));
#2015=CARTESIAN_POINT('',(-4.,5.75,10.));
#2016=CARTESIAN_POINT('Origin',(13.,7.5,8.));
#2017=CARTESIAN_POINT('',(5.5,7.5,10.));
#2018=CARTESIAN_POINT('Origin',(4.75,7.5,10.));
#2019=CARTESIAN_POINT('',(5.5,7.5,30.));
#2020=CARTESIAN_POINT('',(5.5,7.5,19.25));
#2021=CARTESIAN_POINT('',(6.5,7.5,30.));
#2022=CARTESIAN_POINT('',(13.,7.5,30.));
#2023=CARTESIAN_POINT('',(6.5,7.5,8.));
#2024=CARTESIAN_POINT('',(6.5,7.5,8.));
#2025=CARTESIAN_POINT('',(-6.5,7.5,8.));
#2026=CARTESIAN_POINT('',(13.,7.5,8.));
#2027=CARTESIAN_POINT('',(-6.5,7.5,30.));
#2028=CARTESIAN_POINT('',(-6.5,7.5,8.));
#2029=CARTESIAN_POINT('',(-5.5,7.5,30.));
#2030=CARTESIAN_POINT('',(13.,7.5,30.));
#2031=CARTESIAN_POINT('',(-5.5,7.5,10.));
#2032=CARTESIAN_POINT('',(-5.5,7.5,9.));
#2033=CARTESIAN_POINT('Origin',(-4.75,7.5,10.));
#2034=CARTESIAN_POINT('Origin',(-5.5,5.75,10.));
#2035=CARTESIAN_POINT('',(-5.5,5.75,10.));
#2036=CARTESIAN_POINT('',(-5.5,4.8125,30.));
#2037=CARTESIAN_POINT('Origin',(-4.75,5.75,10.));
#2038=CARTESIAN_POINT('Origin',(4.75,5.75,10.));
#2039=CARTESIAN_POINT('',(5.5,5.75,10.));
#2040=CARTESIAN_POINT('Origin',(5.5,5.75,30.5));
#2041=CARTESIAN_POINT('',(5.5,4.8125,30.));
#2042=CARTESIAN_POINT('Origin',(0.,3.875,30.));
#2043=CARTESIAN_POINT('',(-6.5,12.,30.));
#2044=CARTESIAN_POINT('',(-6.5,7.5,30.));
#2045=CARTESIAN_POINT('',(-13.,12.,30.));
#2046=CARTESIAN_POINT('',(-6.5,12.,30.));
#2047=CARTESIAN_POINT('',(-13.,0.25,30.));
#2048=CARTESIAN_POINT('',(-13.,12.,30.));
#2049=CARTESIAN_POINT('',(-5.89705882352941,0.25,30.));
#2050=CARTESIAN_POINT('',(-13.,0.25,30.));
#2051=CARTESIAN_POINT('',(-7.10764781491003,2.30800128534704,30.));
#2052=CARTESIAN_POINT('Origin',(0.,3.875,30.));
#2053=CARTESIAN_POINT('',(5.89705882352941,0.25,30.));
#2054=CARTESIAN_POINT('',(5.5635301678512,-0.316998714652956,30.));
#2055=CARTESIAN_POINT('',(13.,0.25,30.));
#2056=CARTESIAN_POINT('',(-13.,0.25,30.));
#2057=CARTESIAN_POINT('',(13.,12.,30.));
#2058=CARTESIAN_POINT('',(13.,0.25,30.));
#2059=CARTESIAN_POINT('',(6.5,12.,30.));
#2060=CARTESIAN_POINT('',(13.,12.,30.));
#2061=CARTESIAN_POINT('',(6.5,12.,30.));
#2062=CARTESIAN_POINT('Origin',(5.16176470588235,-1.,8.));
#2063=CARTESIAN_POINT('',(5.89705882352941,0.25,8.));
#2064=CARTESIAN_POINT('',(5.89705882352941,0.25,8.));
#2065=CARTESIAN_POINT('',(5.5635301678512,-0.316998714652956,8.));
#2066=CARTESIAN_POINT('Origin',(-8.25,4.25,8.));
#2067=CARTESIAN_POINT('',(-5.89705882352941,0.25,8.));
#2068=CARTESIAN_POINT('',(-5.89705882352941,0.25,8.));
#2069=CARTESIAN_POINT('',(-7.10764781491003,2.30800128534704,8.));
#2070=CARTESIAN_POINT('Origin',(0.,3.875,8.));
#2071=CARTESIAN_POINT('',(-13.,0.25,8.));
#2072=CARTESIAN_POINT('',(-13.,0.25,8.));
#2073=CARTESIAN_POINT('',(-13.,12.,8.));
#2074=CARTESIAN_POINT('',(-13.,7.5,8.));
#2075=CARTESIAN_POINT('',(-6.5,12.,8.));
#2076=CARTESIAN_POINT('',(-6.5,12.,8.));
#2077=CARTESIAN_POINT('',(-6.5,7.5,8.));
#2078=CARTESIAN_POINT('',(6.5,12.,8.));
#2079=CARTESIAN_POINT('',(6.5,12.,8.));
#2080=CARTESIAN_POINT('',(13.,12.,8.));
#2081=CARTESIAN_POINT('',(13.,12.,8.));
#2082=CARTESIAN_POINT('',(13.,0.25,8.));
#2083=CARTESIAN_POINT('',(13.,0.25,8.));
#2084=CARTESIAN_POINT('',(-13.,0.25,8.));
#2085=CARTESIAN_POINT('Origin',(-13.,0.25,8.));
#2086=CARTESIAN_POINT('',(-13.,0.25,8.));
#2087=CARTESIAN_POINT('Origin',(-6.5,12.,8.));
#2088=CARTESIAN_POINT('',(-13.,12.,8.));
#2089=CARTESIAN_POINT('',(-6.5,12.,8.));
#2090=CARTESIAN_POINT('Origin',(-6.5,7.5,8.));
#2091=CARTESIAN_POINT('Origin',(13.,12.,8.));
#2092=CARTESIAN_POINT('',(6.5,12.,8.));
#2093=CARTESIAN_POINT('',(13.,12.,8.));
#2094=CARTESIAN_POINT('Origin',(6.5,12.,8.));
#2095=CARTESIAN_POINT('Origin',(13.,0.25,8.));
#2096=CARTESIAN_POINT('',(13.,0.25,8.));
#2097=CARTESIAN_POINT('Origin',(-13.,0.25,8.));
#2098=CARTESIAN_POINT('Origin',(-13.,7.5,8.));
#2099=UNCERTAINTY_MEASURE_WITH_UNIT(LENGTH_MEASURE(0.01),#2103,
'DISTANCE_ACCURACY_VALUE',
'Maximum model space distance between geometric entities at asserted c
onnectivities');
#2100=UNCERTAINTY_MEASURE_WITH_UNIT(LENGTH_MEASURE(0.01),#2103,
'DISTANCE_ACCURACY_VALUE',
'Maximum model space distance between geometric entities at asserted c
onnectivities');
#2101=(
GEOMETRIC_REPRESENTATION_CONTEXT(3)
GLOBAL_UNCERTAINTY_ASSIGNED_CONTEXT((#2099))
GLOBAL_UNIT_ASSIGNED_CONTEXT((#2103,#2105,#2106))
REPRESENTATION_CONTEXT('','3D')
);
#2102=(
GEOMETRIC_REPRESENTATION_CONTEXT(3)
GLOBAL_UNCERTAINTY_ASSIGNED_CONTEXT((#2100))
GLOBAL_UNIT_ASSIGNED_CONTEXT((#2103,#2105,#2106))
REPRESENTATION_CONTEXT('','3D')
);
#2103=(
LENGTH_UNIT()
NAMED_UNIT(*)
SI_UNIT(.MILLI.,.METRE.)
);
#2104=(
LENGTH_UNIT()
NAMED_UNIT(*)
SI_UNIT($,.METRE.)
);
#2105=(
NAMED_UNIT(*)
PLANE_ANGLE_UNIT()
SI_UNIT($,.RADIAN.)
);
#2106=(
NAMED_UNIT(*)
SI_UNIT($,.STERADIAN.)
SOLID_ANGLE_UNIT()
);
#2107=SHAPE_DEFINITION_REPRESENTATION(#2108,#2109);
#2108=PRODUCT_DEFINITION_SHAPE('',$,#2111);
#2109=SHAPE_REPRESENTATION('',(#1303),#2101);
#2110=PRODUCT_DEFINITION_CONTEXT('part definition',#2115,'design');
#2111=PRODUCT_DEFINITION('(Nicht gespeichert)','(Nicht gespeichert)',#2112,
#2110);
#2112=PRODUCT_DEFINITION_FORMATION('',$,#2117);
#2113=PRODUCT_RELATED_PRODUCT_CATEGORY('(Nicht gespeichert)',
'(Nicht gespeichert)',(#2117));
#2114=APPLICATION_PROTOCOL_DEFINITION('international standard',
'automotive_design',2009,#2115);
#2115=APPLICATION_CONTEXT(
'Core Data for Automotive Mechanical Design Process');
#2116=PRODUCT_CONTEXT('part definition',#2115,'mechanical');
#2117=PRODUCT('(Nicht gespeichert)','(Nicht gespeichert)',$,(#2116));
#2118=PRESENTATION_STYLE_ASSIGNMENT((#2119));
#2119=SURFACE_STYLE_USAGE(.BOTH.,#2120);
#2120=SURFACE_SIDE_STYLE('',(#2121));
#2121=SURFACE_STYLE_FILL_AREA(#2122);
#2122=FILL_AREA_STYLE('Stahl - satiniert',(#2123));
#2123=FILL_AREA_STYLE_COLOUR('Stahl - satiniert',#2124);
#2124=COLOUR_RGB('Stahl - satiniert',0.627450980392157,0.627450980392157,
0.627450980392157);
ENDSEC;
END-ISO-10303-21;
